<svg width="287" height="75" viewBox="0 0 287 75" fill="none" xmlns="http://www.w3.org/2000/svg">
<rect width="287" height="75" rx="37.5" fill="#345267"/>
<path d="M41.8246 27.1H53.0296V30.394H45.5236V34.795H52.3546V38.089H45.5236V42.706H53.1646V46H41.8246V27.1ZM58.901 39.088L54.851 32.5H59.036L60.791 35.389L61.547 37.279L62.357 35.389L64.193 32.5H68L63.923 38.98L68.27 46H64.193L62.114 42.76L61.304 40.762L60.44 42.76L58.361 46H54.527L58.901 39.088ZM70.0356 32.5H72.6006L73.0056 34.12H73.1136C73.5816 33.436 74.1306 32.932 74.7606 32.608C75.4086 32.284 76.1916 32.122 77.1096 32.122C78.8016 32.122 80.0706 32.662 80.9166 33.742C81.7626 34.804 82.1856 36.523 82.1856 38.899C82.1856 40.051 82.0506 41.095 81.7806 42.031C81.5106 42.949 81.1056 43.732 80.5656 44.38C80.0436 45.028 79.3956 45.523 78.6216 45.865C77.8656 46.207 76.9926 46.378 76.0026 46.378C75.4446 46.378 74.9856 46.333 74.6256 46.243C74.2656 46.171 73.9056 46.045 73.5456 45.865V51.4H70.0356V32.5ZM76.0566 35.092C75.3726 35.092 74.8326 35.263 74.4366 35.605C74.0586 35.947 73.7616 36.46 73.5456 37.144V42.76C73.7976 42.958 74.0676 43.12 74.3556 43.246C74.6616 43.354 75.0576 43.408 75.5436 43.408C76.5516 43.408 77.3076 43.057 77.8116 42.355C78.3156 41.635 78.5676 40.456 78.5676 38.818C78.5676 37.63 78.3696 36.712 77.9736 36.064C77.5776 35.416 76.9386 35.092 76.0566 35.092ZM88.2346 41.464C88.2346 42.094 88.3156 42.553 88.4776 42.841C88.6396 43.129 88.9006 43.273 89.2606 43.273C89.4766 43.273 89.6836 43.255 89.8816 43.219C90.0976 43.183 90.3586 43.102 90.6646 42.976L91.0426 45.73C90.7546 45.874 90.3136 46.018 89.7196 46.162C89.1256 46.306 88.5136 46.378 87.8836 46.378C86.8576 46.378 86.0746 46.144 85.5346 45.676C84.9946 45.19 84.7246 44.398 84.7246 43.3V27.1H88.2346V41.464ZM91.9052 39.25C91.9052 36.964 92.4632 35.209 93.5792 33.985C94.6952 32.743 96.2612 32.122 98.2772 32.122C99.3572 32.122 100.293 32.293 101.085 32.635C101.877 32.977 102.534 33.463 103.056 34.093C103.578 34.705 103.965 35.452 104.217 36.334C104.487 37.216 104.622 38.188 104.622 39.25C104.622 41.536 104.064 43.3 102.948 44.542C101.85 45.766 100.293 46.378 98.2772 46.378C97.1972 46.378 96.2612 46.207 95.4692 45.865C94.6772 45.523 94.0112 45.046 93.4712 44.434C92.9492 43.804 92.5532 43.048 92.2832 42.166C92.0312 41.284 91.9052 40.312 91.9052 39.25ZM95.5232 39.25C95.5232 39.844 95.5772 40.393 95.6852 40.897C95.7932 41.401 95.9552 41.842 96.1712 42.22C96.3872 42.598 96.6662 42.895 97.0082 43.111C97.3682 43.309 97.7912 43.408 98.2772 43.408C99.1952 43.408 99.8792 43.075 100.329 42.409C100.779 41.743 101.004 40.69 101.004 39.25C101.004 38.008 100.797 37.009 100.383 36.253C99.9692 35.479 99.2672 35.092 98.2772 35.092C97.4132 35.092 96.7382 35.416 96.2522 36.064C95.7662 36.712 95.5232 37.774 95.5232 39.25ZM114.507 35.794C113.949 35.596 113.445 35.497 112.995 35.497C112.365 35.497 111.834 35.668 111.402 36.01C110.988 36.334 110.709 36.757 110.565 37.279V46H107.055V32.5H109.782L110.187 34.282H110.295C110.601 33.616 111.015 33.103 111.537 32.743C112.059 32.383 112.671 32.203 113.373 32.203C113.841 32.203 114.372 32.302 114.966 32.5L114.507 35.794ZM127.321 44.839C126.781 45.271 126.043 45.64 125.107 45.946C124.189 46.234 123.208 46.378 122.164 46.378C119.986 46.378 118.393 45.748 117.385 44.488C116.377 43.21 115.873 41.464 115.873 39.25C115.873 36.874 116.44 35.092 117.574 33.904C118.708 32.716 120.301 32.122 122.353 32.122C123.037 32.122 123.703 32.212 124.351 32.392C124.999 32.572 125.575 32.869 126.079 33.283C126.583 33.697 126.988 34.255 127.294 34.957C127.6 35.659 127.753 36.532 127.753 37.576C127.753 37.954 127.726 38.359 127.672 38.791C127.636 39.223 127.573 39.673 127.483 40.141H119.383C119.437 41.275 119.725 42.13 120.247 42.706C120.787 43.282 121.651 43.57 122.839 43.57C123.577 43.57 124.234 43.462 124.81 43.246C125.404 43.012 125.854 42.778 126.16 42.544L127.321 44.839ZM122.299 34.93C121.381 34.93 120.697 35.209 120.247 35.767C119.815 36.307 119.554 37.036 119.464 37.954H124.486C124.558 36.982 124.405 36.235 124.027 35.713C123.667 35.191 123.091 34.93 122.299 34.93ZM151.803 36.199L152.208 32.446H152.046L150.885 35.47L146.862 42.517H145.674L141.435 35.443L140.247 32.446H140.112L140.652 36.172V46H137.142V27.1H140.517L145.566 35.74L146.457 37.9H146.565L147.375 35.686L152.154 27.1H155.502V46H151.803V36.199ZM158.008 39.25C158.008 36.964 158.566 35.209 159.682 33.985C160.798 32.743 162.364 32.122 164.38 32.122C165.46 32.122 166.396 32.293 167.188 32.635C167.98 32.977 168.637 33.463 169.159 34.093C169.681 34.705 170.068 35.452 170.32 36.334C170.59 37.216 170.725 38.188 170.725 39.25C170.725 41.536 170.167 43.3 169.051 44.542C167.953 45.766 166.396 46.378 164.38 46.378C163.3 46.378 162.364 46.207 161.572 45.865C160.78 45.523 160.114 45.046 159.574 44.434C159.052 43.804 158.656 43.048 158.386 42.166C158.134 41.284 158.008 40.312 158.008 39.25ZM161.626 39.25C161.626 39.844 161.68 40.393 161.788 40.897C161.896 41.401 162.058 41.842 162.274 42.22C162.49 42.598 162.769 42.895 163.111 43.111C163.471 43.309 163.894 43.408 164.38 43.408C165.298 43.408 165.982 43.075 166.432 42.409C166.882 41.743 167.107 40.69 167.107 39.25C167.107 38.008 166.9 37.009 166.486 36.253C166.072 35.479 165.37 35.092 164.38 35.092C163.516 35.092 162.841 35.416 162.355 36.064C161.869 36.712 161.626 37.774 161.626 39.25ZM180.61 35.794C180.052 35.596 179.548 35.497 179.098 35.497C178.468 35.497 177.937 35.668 177.505 36.01C177.091 36.334 176.812 36.757 176.668 37.279V46H173.158V32.5H175.885L176.29 34.282H176.398C176.704 33.616 177.118 33.103 177.64 32.743C178.162 32.383 178.774 32.203 179.476 32.203C179.944 32.203 180.475 32.302 181.069 32.5L180.61 35.794ZM193.423 44.839C192.883 45.271 192.145 45.64 191.209 45.946C190.291 46.234 189.31 46.378 188.266 46.378C186.088 46.378 184.495 45.748 183.487 44.488C182.479 43.21 181.975 41.464 181.975 39.25C181.975 36.874 182.542 35.092 183.676 33.904C184.81 32.716 186.403 32.122 188.455 32.122C189.139 32.122 189.805 32.212 190.453 32.392C191.101 32.572 191.677 32.869 192.181 33.283C192.685 33.697 193.09 34.255 193.396 34.957C193.702 35.659 193.855 36.532 193.855 37.576C193.855 37.954 193.828 38.359 193.774 38.791C193.738 39.223 193.675 39.673 193.585 40.141H185.485C185.539 41.275 185.827 42.13 186.349 42.706C186.889 43.282 187.753 43.57 188.941 43.57C189.679 43.57 190.336 43.462 190.912 43.246C191.506 43.012 191.956 42.778 192.262 42.544L193.423 44.839ZM188.401 34.93C187.483 34.93 186.799 35.209 186.349 35.767C185.917 36.307 185.656 37.036 185.566 37.954H190.588C190.66 36.982 190.507 36.235 190.129 35.713C189.769 35.191 189.193 34.93 188.401 34.93Z" fill="white"/>
<path d="M218 37.5C218 40.0712 218.762 42.5846 220.191 44.7224C221.619 46.8602 223.65 48.5265 226.025 49.5104C228.401 50.4944 231.014 50.7518 233.536 50.2502C236.058 49.7486 238.374 48.5105 240.192 46.6924C242.01 44.8743 243.249 42.5579 243.75 40.0362C244.252 37.5144 243.994 34.9005 243.01 32.5251C242.026 30.1497 240.36 28.1193 238.222 26.6909C236.085 25.2624 233.571 24.5 231 24.5C227.553 24.504 224.249 25.8749 221.812 28.312C219.375 30.7491 218.004 34.0534 218 37.5V37.5ZM230.169 32.2568L235.169 36.7568C235.273 36.8506 235.356 36.9652 235.413 37.0932C235.471 37.2212 235.5 37.3598 235.5 37.5C235.5 37.6402 235.471 37.7787 235.413 37.9068C235.356 38.0348 235.273 38.1494 235.169 38.2432L230.169 42.7432C230.071 42.8311 229.957 42.8989 229.834 42.9428C229.71 42.9867 229.579 43.0057 229.447 42.9988C229.316 42.992 229.188 42.9593 229.069 42.9028C228.951 42.8462 228.844 42.7669 228.756 42.6693C228.669 42.5716 228.601 42.4577 228.557 42.3338C228.513 42.21 228.494 42.0788 228.501 41.9476C228.508 41.8164 228.541 41.6879 228.597 41.5694C228.654 41.4509 228.733 41.3447 228.831 41.2568L233.005 37.5L228.831 33.7432C228.733 33.6553 228.654 33.5491 228.597 33.4306C228.541 33.3121 228.508 33.1836 228.501 33.0524C228.494 32.9212 228.513 32.79 228.557 32.6662C228.601 32.5423 228.669 32.4283 228.756 32.3307C228.844 32.2331 228.951 32.1537 229.069 32.0972C229.188 32.0406 229.316 32.008 229.447 32.0011C229.579 31.9943 229.71 32.0133 229.834 32.0572C229.957 32.1011 230.071 32.1689 230.169 32.2568Z" fill="white"/>
</svg>
