<svg width="429" height="228" viewBox="0 0 429 228" fill="none" xmlns="http://www.w3.org/2000/svg">
<g clip-path="url(#clip0_158_3447)">
<path d="M429 42.3541V214.081H0V82.3487V48.0953H13.8763V65.5441H31.5505L38.5438 73.6904H45.6377V31.4765H61.9604V42.3541H75.8147V63.3516H94.4234V37.0051H109.11V48.089H116.747L123.358 40.3868H130.879V14.8452H151.908V52.7528H173.404V61.8899H181.736V48.0953H213.497V63.3516H225.646V42.3541H244.176V73.6904H245.258V31.4765H261.587V42.3541H275.435V63.3516H294.039V37.0051H308.726V48.089H316.374L322.983 40.3868H330.5V14.8452H351.522V52.7528H373.031V61.8899H381.363V48.0953H398.085V63.3516H425.26V42.3541H429Z" fill="url(#paint0_linear_158_3447)"/>
<path d="M0 153.467V67.5901H16.1576V83.2796H34.7223L40.3876 88.953H101.991L111.575 79.3576H130.924V63.246H147.843V84.9696H179.001L191.009 72.9486H229.537V93.2057H246.655L254.988 84.8641H276.069L282.037 90.8384H308.138V68.3871H326.702V75.7979H341.409V60.0848H354.911V83.8308H392.766L396.306 87.3748H429V153.467H0Z" fill="url(#paint1_linear_158_3447)"/>
<path opacity="0.95" d="M259.833 3.84473H195.31C190.212 3.84473 186.079 7.98208 186.079 13.0858V77.6832C186.079 82.7869 190.212 86.9242 195.31 86.9242H259.833C264.931 86.9242 269.063 82.7869 269.063 77.6832V13.0858C269.063 7.98208 264.931 3.84473 259.833 3.84473Z" fill="url(#paint2_linear_158_3447)"/>
<path d="M246.781 68.009H208.36V69.9086H246.781V68.009Z" fill="#97BFE6"/>
<path d="M241.34 73.9976H213.803V75.8971H241.34V73.9976Z" fill="#97BFE6"/>
<path opacity="0.95" d="M385.414 32.6578H293.589C287.584 32.6578 282.715 37.5321 282.715 43.5448V155.234C282.715 161.247 287.584 166.121 293.589 166.121H385.414C391.42 166.121 396.288 161.247 396.288 155.234V43.5448C396.288 37.5321 391.42 32.6578 385.414 32.6578Z" fill="url(#paint3_linear_158_3447)"/>
<path d="M343.221 111.393H334.212V113.063H343.221V111.393Z" fill="#5094D0"/>
<path d="M352.427 126.698H300.012V129.932H352.427V126.698Z" fill="#97BFE6"/>
<path d="M342.397 142.224H300.012V145.458H342.397V142.224Z" fill="#97BFE6"/>
<path d="M324.86 134.46H300.012V137.694H324.86V134.46Z" fill="#97BFE6"/>
<path d="M366.141 45.9673V47.6006H375.738V56.6259H377.37V45.9673H366.141ZM300.908 56.6259H302.54V47.6006H312.145V45.9673H300.908V56.6259ZM375.746 103.195V112.223H366.149V113.857H377.386V103.195H375.746ZM302.546 103.195H300.908V113.857H312.145V112.223H302.54L302.546 103.195Z" fill="#5094D0"/>
<path d="M372.293 145.694C370.393 145.694 368.535 145.13 366.955 144.074C365.375 143.017 364.144 141.515 363.416 139.758C362.689 138 362.499 136.066 362.869 134.201C363.24 132.335 364.155 130.621 365.498 129.276C366.842 127.931 368.554 127.015 370.418 126.644C372.281 126.273 374.213 126.463 375.968 127.191C377.724 127.919 379.224 129.152 380.279 130.734C381.335 132.316 381.898 134.176 381.898 136.078C381.894 138.627 380.881 141.071 379.081 142.874C377.28 144.676 374.839 145.691 372.293 145.694ZM372.293 128.322C370.761 128.323 369.264 128.779 367.99 129.632C366.717 130.484 365.725 131.696 365.139 133.113C364.553 134.531 364.401 136.09 364.7 137.594C365 139.098 365.738 140.48 366.821 141.564C367.905 142.648 369.285 143.386 370.788 143.685C372.291 143.984 373.848 143.83 375.263 143.243C376.679 142.656 377.888 141.662 378.739 140.386C379.59 139.111 380.044 137.612 380.044 136.078C380.041 134.021 379.224 132.05 377.77 130.596C376.317 129.142 374.347 128.325 372.293 128.324V128.322Z" fill="#5094D0"/>
<path d="M371.679 139.863L367.314 135.494L368.63 134.177L371.679 137.231L375.953 132.95L377.269 134.267L371.679 139.863Z" fill="#5094D0"/>
<path d="M378.069 220.696C378.069 224.73 308.284 228 222.201 228C136.117 228 66.333 224.73 66.333 220.696C66.333 216.663 136.117 213.393 222.202 213.393C308.288 213.393 378.069 216.663 378.069 220.696Z" fill="#F1F1F1"/>
<path opacity="0.95" d="M255.538 6.95087H199.604V54.9973H255.538V6.95087Z" fill="url(#paint4_linear_158_3447)"/>
<path d="M248.936 36.2002C247.094 31.3175 242.668 29.0809 240.579 28.3831C239.835 28.1358 238.507 27.7011 237.107 27.2475L231.827 25.5432H223.122C223.122 25.5432 220.108 26.556 216.903 27.679C213.951 28.7154 210.844 29.8448 209.795 30.3724C207.608 31.475 203.926 39.2858 203.187 40.1821C202.802 40.6436 201.095 43.6898 199.411 47.092H208.789C209.781 45.3877 210.544 44.0662 210.544 44.0662C210.544 44.0662 211.137 45.3688 211.856 47.092H241.905C242.377 45.0916 242.676 42.5715 242.676 42.5715C242.676 42.5715 244.286 44.7608 246.043 47.092H254.696C252.588 43.5575 249.975 38.9535 248.936 36.2002Z" fill="#39546A"/>
<path d="M228.512 1.59402C228.512 1.59402 235.318 2.66824 234.283 13.33C233.248 23.9917 227.238 23.1192 226.836 23.1081C226.435 23.0971 220.805 23.3019 220.366 10.2838C220.366 10.2838 220.175 0.656849 228.512 1.59402Z" fill="#EEA886"/>
<path d="M234.387 10.3184C234.387 10.3184 235.132 9.52136 235.406 10.3278C235.68 11.1342 234.39 14.738 234.342 14.8956C234.342 14.8956 234.207 15.2106 234.028 15.0373C233.848 14.8641 234.387 10.3184 234.387 10.3184Z" fill="#EEA886"/>
<path d="M220.55 10.1829C220.55 10.1829 219.82 9.37175 219.531 10.1735C219.242 10.9752 220.451 14.5979 220.506 14.768C220.506 14.768 220.635 15.083 220.821 14.9145C221.007 14.7459 220.55 10.1829 220.55 10.1829Z" fill="#EEA886"/>
<path d="M234.384 11.9533L233.41 13.2575C233.41 13.2575 233.437 10.3987 233.281 9.94982C233.125 9.50092 232.886 8.13216 232.756 7.80927C232.625 7.48638 226.909 5.88294 221.862 8.2818C221.862 8.2818 222.084 10.3294 221.6 10.5216C221.115 10.7137 221.354 13.8702 221.354 13.8702L220.552 12.9645C220.552 12.9645 219.326 4.76149 219.628 3.90621C219.93 3.05094 220.896 -2.08856 231.253 0.962379C231.253 0.962379 234.482 0.278783 235.128 2.5091C235.775 4.73943 234.384 11.9533 234.384 11.9533Z" fill="#444444"/>
<path d="M232.672 25.351C232.672 25.3416 231.799 24.9226 231.799 24.9226C231.374 23.9775 231.689 19.9674 231.689 19.9674C231.689 19.9674 223.02 17.7623 223.267 19.4476C223.514 21.1329 222.52 25.0612 222.52 25.0612L218.072 27.2663C218.072 27.2663 222.811 40.004 228.257 38.3612C233.704 36.7184 235.76 26.8064 235.76 26.8064L232.672 25.351Z" fill="#EEA886"/>
<path d="M223.391 21.3235C223.391 21.3235 224.788 23.1285 227.213 23.1285C228.808 23.1285 229.954 22.6812 231.541 21.1298C231.541 21.1298 230.853 24.0752 227.224 24.3492C227.224 24.3492 224.592 24.6832 223.391 21.3235Z" fill="#A77961"/>
<path d="M198.363 64.0965C198.363 64.0965 203.365 66.5458 202.128 73.21C200.891 79.8742 200.344 80.7704 201.728 83.3756C203.113 85.9808 204.743 97.0867 203.498 99.1926C202.254 101.298 188.088 89.9405 186.123 80.4113C184.158 70.882 187.368 66.645 188.502 65.0668C189.636 63.4885 193.947 61.8552 198.363 64.0965Z" fill="#0E2D3D"/>
<path d="M196.476 218.749H197.61V213.394C197.61 213.394 199.833 214.878 201.229 216.93C202.624 218.983 204.542 218.808 207.464 218.677C210.385 218.546 210.254 217.367 209.993 215.708C209.732 214.049 206.767 213.525 205.807 213.263C204.847 213.002 202.67 209.245 201.97 208.332C201.392 207.575 200.902 206.755 200.51 205.887C200.51 205.887 199.964 203.66 197.261 205.887C194.558 208.114 195.341 212.392 195.656 212.785C195.971 213.177 196.476 218.749 196.476 218.749Z" fill="#183442"/>
<path d="M202.189 213.265C203.191 213.92 205.807 213.265 205.807 213.265C205.066 212.306 200.51 205.889 200.51 205.889C197.741 204.273 196.647 206.495 196.647 206.495C197.776 206.842 201.185 212.61 202.189 213.265Z" fill="#EEA886"/>
<path d="M231.342 114.52C231.342 114.52 233.156 114.868 233.777 114.014C234.304 113.288 235.508 112.73 235.88 112.559C236.376 112.329 237.635 111.053 237.926 111.677C238.217 112.3 235.95 113.882 235.541 114.304C235.132 114.726 237.767 114.92 238.215 115.334C238.664 115.748 238.11 120.103 236.315 119.765C234.52 119.426 232.825 117.875 232.498 117.875C232.056 117.836 231.617 117.771 231.183 117.679L231.342 114.52Z" fill="#EEA886"/>
<path d="M237.828 115.156C237.828 115.156 243.254 116.56 243.537 116.956C243.82 117.353 243.728 117.642 243.215 117.533C242.702 117.424 237.933 116.328 237.933 116.328C237.933 116.328 244.077 119.07 244.384 119.344C244.561 119.502 244.413 120.077 244.133 120.042C243.853 120.007 237.611 117.64 237.611 117.64C237.611 117.64 243.342 120.211 243.526 120.516C243.565 120.594 243.58 120.682 243.568 120.769C243.556 120.855 243.518 120.936 243.459 121.001C243.401 121.065 243.324 121.11 243.239 121.13C243.154 121.15 243.065 121.143 242.983 121.112C242.546 120.954 237.091 118.865 237.091 118.865C237.091 118.865 241.146 121 241.15 121.349C241.15 121.564 241.048 122.064 240.019 121.482C238.99 120.899 236.42 119.777 236.42 119.777L237.828 115.156Z" fill="#EEA886"/>
<path d="M181.787 219.115H182.484V215.187C183.306 216.095 183.922 217.169 184.292 218.337C184.858 220.213 186.888 220.77 189.984 220.682C193.08 220.594 193.131 219.372 192.862 217.532C192.593 215.692 189.992 214.749 189.992 214.749C188.815 213.701 185.901 209.359 185.901 209.359C185.901 209.359 184.026 208.856 182.555 210.046C181.084 211.235 181.54 213.92 181.584 214.613C181.628 215.306 181.787 219.115 181.787 219.115Z" fill="#183442"/>
<path d="M183.924 125.526C183.924 125.526 180.235 130.329 179.235 136.024C178.234 141.72 179.826 160.84 179.782 163.656C179.738 166.472 177.122 173.477 177.645 178.777C178.169 184.077 180.238 210.482 180.238 210.482L185.891 209.359C185.891 209.359 185.564 182.447 185.891 180.22C186.218 177.993 186.874 169.879 187.005 168.963C187.136 168.046 195.309 143.975 195.309 139.868C195.309 135.76 192.824 118.826 183.924 125.526Z" fill="#1D3B54"/>
<path d="M202.455 127.404C202.455 127.404 208.515 150.558 209.234 153.769C209.953 156.981 210.996 159.624 210.996 160.985C210.996 164.146 209.822 169.221 209.822 169.221L202.127 206.078H194.797C194.797 206.078 198.888 183.97 198.992 179.646C199.096 175.323 202.433 169.163 201.778 167.329C201.124 165.496 191.251 144.341 191.251 144.341C191.251 144.341 183.772 120.682 202.455 127.404Z" fill="#1D3B54"/>
<path d="M189.993 214.749L185.902 209.359L182.556 210.046C182.556 210.046 183.456 212.459 185.082 214.275C186.994 216.423 189.993 214.749 189.993 214.749Z" fill="#EEA886"/>
<path d="M199.952 88.052C201.625 88.2926 203.17 89.0885 204.338 90.3122C206.226 92.3378 207.997 95.5667 208.493 96.6472C208.988 97.7278 215.919 107.737 216.277 107.963C216.636 108.188 220.123 109.353 222.431 110.13C225.992 111.33 233.129 113.929 233.129 113.929L231.713 118.424C231.713 118.424 218.288 114.025 214.924 113.203C210.812 112.189 201.345 100.029 201.345 100.029C201.345 100.029 194.288 91.7424 199.952 88.052Z" fill="#295173"/>
<path d="M195.59 86.2958C195.59 86.2958 198.827 87.8268 199.951 88.0521C201.074 88.2773 205.435 93.9476 206.2 96.0173C206.964 98.0869 206.2 101.193 204.626 104.838C203.053 108.483 204.537 109.698 203.818 113.343C203.099 116.988 203.33 130.627 203.465 132.652C203.601 134.678 182.424 137.746 178.244 134.057C178.244 134.057 181.076 121.772 184.424 118.257C185.149 117.5 185.072 112.444 184.581 111.184C184.09 109.924 178.507 100.517 178.507 100.517C178.507 100.517 178.098 90.977 180.529 89.0869C182.641 87.4441 188.395 86.8582 189.435 86.4975C190.475 86.1368 193.477 85.9808 195.59 86.2958Z" fill="#FBBD57"/>
<path d="M197.136 82.5566C197.136 82.5566 197.039 83.4497 196.927 84.6546C196.884 85.1271 196.837 85.6595 196.795 86.1982C196.666 87.8142 196.562 89.55 196.625 90.4367C196.625 90.4367 193.26 93.8121 189.437 86.499C189.437 86.499 191.044 83.4843 189.833 79.3781C188.622 75.2718 197.136 82.5566 197.136 82.5566Z" fill="#EEA886"/>
<path d="M206.549 106.183C206.549 106.183 207.36 100.791 206.499 97.5199C206.499 97.5199 206.499 100.339 204.954 104.342L206.549 106.183Z" fill="#193D59"/>
<path d="M186.846 87.0172C186.846 87.0172 189.16 93.8594 195.511 93.3554C201.863 92.8513 198.523 87.5795 198.523 87.5795C198.523 87.5795 196.94 86.6707 196.495 86.5841C196.049 86.4974 189.471 86.4155 189.471 86.4155L186.846 87.0172Z" fill="#EEA886"/>
<path d="M198.529 87.5795C198.529 87.5795 201.857 96.7921 201.857 106.183C201.857 115.573 202.124 130.869 203.285 135.7C204.446 140.531 207.753 155.469 207.753 155.469L210.345 154.127C210.345 154.127 204.113 130.285 203.642 128.566C203.172 126.848 204.001 108.684 204.448 107.164C204.895 105.644 206.794 98.8744 206.493 96.9969C206.12 94.6343 203.907 91.125 200.334 88.1134L198.529 87.5795Z" fill="#295173"/>
<path d="M188.104 86.729C189.547 91.6772 190.589 96.7339 191.219 101.85C192.267 110.34 188.004 149.745 185.143 158.69L174.064 156.901C174.064 156.901 176.45 129.047 179.687 123.981C182.925 118.916 183.956 114.427 180.46 103.847C176.964 93.2672 181.992 88.0269 181.992 88.0269C181.992 88.0269 187.135 86.8393 188.104 86.729Z" fill="#295173"/>
<path d="M200.059 114.84L186.627 138.133L171.691 129.502L184.542 105.871L200.059 114.84Z" fill="#626262"/>
<path d="M198.441 115.641L186.509 136.33L173.246 128.662L184.659 107.674L198.441 115.641Z" fill="#E0CEC7"/>
<path d="M194.039 113.783L194.876 112.33L189.514 109.231L188.468 110.562L194.039 113.783Z" fill="#626262"/>
<path d="M193.4 130.31C193.4 130.31 192.788 130.31 192.521 130.184C192.521 130.184 192.049 129.912 191.707 129.738C191.619 129.692 191.528 129.651 191.435 129.615C191.16 129.521 190.531 129.393 189.937 128.985C189.344 128.577 187.239 126.136 187.239 126.136L188.234 124.622L188.962 123.074C188.962 123.074 193.378 123.359 193.976 123.681C194.03 123.711 194.083 123.744 194.133 123.78C194.613 124.095 194.835 124.541 195.068 124.737C195.153 124.81 195.949 125.59 195.922 125.922C195.919 126.107 195.869 126.289 195.776 126.45C195.683 126.61 195.551 126.745 195.392 126.84C195.392 126.84 195.279 127.74 194.835 128.16C194.835 128.16 194.756 128.993 194.058 129.357C194.066 129.352 193.891 130.189 193.4 130.31Z" fill="#EEA886"/>
<path d="M184.295 88.052C184.295 88.052 180.216 86.8818 177.88 91.3818C175.543 95.8818 175.553 97.8034 175.241 100.001C174.945 102.075 173.614 107.741 173.473 108.32C173.331 108.9 170.326 115.881 171.704 118.32C173.083 120.76 187.215 127.987 187.123 128.527C187.03 129.067 189.568 123.073 189.568 123.073C189.568 123.073 183.855 119.885 182.919 118.902C181.399 117.308 178.199 115.594 178.85 113.611C179.624 111.288 181.95 103.449 182.489 102.302C183.029 101.155 187.735 89.5137 184.295 88.052Z" fill="#295173"/>
<path d="M197.639 64.8353C197.639 64.8353 204.901 67.1207 200.958 79.6694C197.015 92.2181 187.098 78.214 188.134 70.5686C189.171 62.9231 197.639 64.8353 197.639 64.8353Z" fill="#EEA987"/>
<path d="M201.701 72.1579C201.701 72.1579 198.092 75.7034 192.052 76.146C192.052 76.146 189.731 78.8709 189.553 79.9404C189.553 79.9404 184.165 70.745 190.788 65.2322C197.412 59.7194 204.136 69.8882 201.701 72.1579Z" fill="#0E2D3D"/>
<path d="M192.126 76.3964C192.078 75.4829 191.517 73.4038 190.16 73.9866C188.804 74.5693 190.244 78.8 191.142 78.5401C191.142 78.5401 192.236 78.5512 192.126 76.3964Z" fill="#EEA987"/>
<path d="M196.928 84.6546C196.885 85.1271 196.838 85.6595 196.795 86.1982C196.795 86.1982 193.589 86.0076 191.446 81.2335C191.586 81.4414 193.935 84.8956 196.928 84.6546Z" fill="#A77961"/>
<path d="M117.399 199.404C122.056 196.127 127.506 173.277 127.83 159.666C127.997 152.695 130.056 149.791 131.872 147.223C133.603 144.774 135.107 142.655 134.232 137.801C132.563 128.519 136.95 124.512 136.996 124.473L136.488 123.893C136.293 124.063 131.722 128.196 133.474 137.938C134.29 142.476 132.945 144.374 131.243 146.777C129.455 149.298 127.232 152.437 127.059 159.643C126.71 174.249 121.139 195.823 116.954 198.77L117.399 199.404Z" fill="url(#paint5_linear_158_3447)"/>
<path d="M107.637 192.745C107.198 191.746 106.743 190.716 106.221 189.628C103.561 184.005 101.206 183.079 97.3007 181.544C96.3457 181.17 95.2649 180.746 94.0786 180.212C88.4856 177.692 89.568 173.987 90.523 170.716C90.6567 170.257 90.7904 169.801 90.9053 169.35C91.3977 167.425 90.4522 166.46 89.0173 165C87.9538 163.913 86.6307 162.562 85.6112 160.432C84.4958 158.096 85.0637 156.844 85.7386 156.204C87.1546 154.858 90.4286 155.102 93.5169 156.794C94.4766 157.318 95.2664 158.147 96.1034 159.024C98.0716 161.087 100.523 163.656 106.72 163.686C110.253 163.702 112.19 164.19 113.192 165.318C114.33 166.598 114.116 168.515 113.822 171.166C113.719 172.084 113.603 173.124 113.532 174.247C113.111 180.947 117.063 185.783 117.1 185.83C119.46 188.645 122.371 194.484 121.115 198.078C120.588 199.584 119.412 200.532 117.618 200.896C116.97 201.032 116.31 201.104 115.648 201.109C111.328 201.093 109.734 197.498 107.637 192.745ZM93.1629 157.463C90.405 155.956 87.4472 155.652 86.283 156.756C85.3988 157.595 85.811 159.033 86.3223 160.092C87.2868 162.111 88.5076 163.359 89.5837 164.458C91.0799 165.987 92.2583 167.194 91.6636 169.539C91.5456 169.999 91.4103 170.464 91.2734 170.93C90.3295 174.189 89.4232 177.265 94.4042 179.506C95.5748 180.032 96.6462 180.451 97.5933 180.826C101.526 182.375 104.138 183.397 106.929 189.295C107.448 190.398 107.905 191.43 108.345 192.431C110.754 197.899 112.209 201.198 117.47 200.132C118.979 199.826 119.962 199.047 120.393 197.815C121.495 194.648 118.851 189.103 116.515 186.317C116.344 186.112 112.327 181.209 112.768 174.189C112.84 173.047 112.958 171.998 113.062 171.072C113.336 168.618 113.534 166.844 112.624 165.822C111.794 164.886 109.973 164.463 106.725 164.447C100.199 164.417 97.6232 161.716 95.5543 159.547C94.7252 158.679 94.0109 157.929 93.1551 157.461L93.1629 157.463Z" fill="url(#paint6_linear_158_3447)"/>
<path d="M117.543 205.55L118.312 205.509C118.273 204.786 117.304 187.735 110.465 182.743C102.962 177.268 100.595 171.384 99.469 167.435C98.1427 162.78 91.3855 161.536 91.0976 161.486L90.9639 162.245C91.0299 162.258 97.5339 163.458 98.7295 167.646C99.8875 171.705 102.317 177.75 110.01 183.365C116.556 188.142 117.533 205.375 117.543 205.55Z" fill="url(#paint7_linear_158_3447)"/>
<path d="M116.24 209.384C114.63 208.582 114.69 205.357 114.778 200.474C114.89 194.304 115.043 185.854 111.816 178.081C108.389 169.824 111.446 167.411 114.401 165.078C117.705 162.464 120.839 159.996 114.838 148.855C112.082 143.738 111.205 140.276 112.083 137.962C112.95 135.673 115.387 134.782 117.959 133.838C122.407 132.208 127.446 130.362 126.795 120.94C126.597 118.051 126.935 116.276 127.863 115.35C128.872 114.342 130.365 114.451 132.076 114.577C134.675 114.767 137.619 114.983 140.184 111.633C140.449 110.796 142.901 103.326 145.833 102.047C146.114 101.914 146.421 101.846 146.732 101.848C147.042 101.849 147.349 101.92 147.628 102.056C149.652 103.026 150.827 104.176 151.22 105.572C151.901 107.999 150.119 110.738 148.074 113.909C144.839 118.891 141.173 124.544 144.973 131.258C149.996 140.145 147.344 143.254 143.67 147.557C141.566 150.024 139.181 152.818 137.588 157.376C136.305 161.043 138.492 164.538 140.608 167.918C143.261 172.159 146.005 176.544 140.228 180.349C130.679 186.64 121.24 207.174 121.152 207.381L121.112 207.466L121.038 207.524C119.279 208.905 117.997 209.564 117.033 209.564C116.758 209.567 116.486 209.506 116.24 209.384ZM139.804 179.705C144.952 176.314 142.636 172.617 139.962 168.328C137.852 164.957 135.462 161.138 136.867 157.121C138.508 152.427 140.943 149.575 143.091 147.058C146.689 142.84 149.069 140.054 144.309 131.638C140.276 124.511 144.238 118.401 147.422 113.488C149.378 110.475 151.066 107.871 150.478 105.78C150.149 104.611 149.109 103.62 147.295 102.752C147.115 102.665 146.918 102.619 146.718 102.619C146.518 102.619 146.321 102.665 146.142 102.752C143.423 103.94 140.921 111.848 140.906 111.929L140.885 111.992L140.844 112.045C138.012 115.785 134.698 115.542 132.034 115.353C130.44 115.236 129.18 115.145 128.415 115.901C127.651 116.657 127.393 118.28 127.574 120.891C128.264 130.891 122.697 132.929 118.235 134.568C115.717 135.487 113.556 136.281 112.813 138.239C112.027 140.329 112.882 143.594 115.526 148.494C121.833 160.208 118.302 162.996 114.887 165.691C112.031 167.947 109.333 170.076 112.536 177.794C115.824 185.715 115.67 194.257 115.557 200.496C115.48 204.749 115.419 208.118 116.592 208.702C117.28 209.045 118.593 208.466 120.499 206.982C121.254 205.312 130.286 185.972 139.804 179.705Z" fill="url(#paint8_linear_158_3447)"/>
<path d="M101.165 119.881C106.026 118.213 105.016 127.599 107.069 134.53C109.123 141.46 129.92 137.557 121.191 154.935C112.463 172.313 132.229 160.747 126.325 175.91C120.42 191.074 125.812 207.294 119.393 203.169C112.974 199.044 115.787 179.947 109.113 177.678C102.439 175.408 101.347 172.762 107.957 166.594C114.566 160.426 90.6397 154.313 96.5395 141.847C102.439 129.382 95.5499 121.809 101.165 119.881Z" fill="url(#paint9_linear_158_3447)"/>
<path d="M117.149 202.176C117.761 199.581 122.982 176.734 118.111 173.973C113.817 171.538 113.923 162.072 114.593 153.131C115.186 145.218 105.034 141.52 104.601 141.365L104.344 142.093C104.444 142.128 114.374 145.749 113.825 153.075C113.138 162.254 113.064 171.998 117.73 174.644C121.429 176.74 118.024 195.101 116.4 201.998L117.149 202.176Z" fill="white"/>
<path d="M135.496 194.041L128.556 220.4H113.046L106.107 194.041H135.496Z" fill="url(#paint10_linear_158_3447)"/>
<path d="M135.496 194.041C135.496 194.041 120.217 196.913 120.217 220.4H113.046L106.107 194.041H135.496Z" fill="url(#paint11_linear_158_3447)"/>
<path d="M230.8 58.7271H224.342V59.9241H230.8V58.7271Z" fill="#5094D0"/>
<path d="M246.928 12.4747V13.645H253.816V20.1155H254.985V12.4731L246.928 12.4747ZM200.159 20.1155H201.328V13.6434H208.216V12.4731H200.159V20.1155ZM253.816 53.5073V59.9809H246.928V61.1528H254.985V53.5073H253.816ZM201.328 53.5073H200.159V61.1528H208.216V59.9809H201.328V53.5073Z" fill="#5094D0"/>
<path d="M371.849 102.447H366.386C366.286 102.228 366.205 102.037 366.138 101.884C364.517 98.0523 356.163 89.2665 356.163 89.2665V89.2854C356.162 89.2884 356.162 89.2917 356.163 89.2948V89.3043C356.163 89.3184 356.154 89.3279 356.149 89.3421C356.144 89.3562 356.139 89.3846 356.13 89.4129C356.125 89.4282 356.121 89.4441 356.121 89.4602L356.105 89.4996C355.763 90.7801 354.08 97.1576 353.238 102.447H316.266C316.181 101.957 316.082 101.489 315.967 101.058C315.646 99.7987 315.408 98.5201 315.255 97.2301C315.255 97.1671 315.241 97.1104 315.236 97.049C315.206 96.8253 315.182 96.6016 315.163 96.3827C314.965 94.346 314.944 92.2959 315.102 90.2556C314.997 90.4793 314.251 93.2215 313.271 96.6064C312.734 98.4618 312.125 100.514 311.521 102.447H302.796L313.752 70.8049C313.994 70.6143 316.837 69.2392 318.911 68.2485C321.027 67.2405 323.579 65.7599 325.885 64.4935C327.065 63.8461 328.178 63.2602 329.144 62.8176L329.29 62.7515C330.884 62.0222 331.944 61.5418 331.944 61.5418L332.633 61.4756C334.858 61.2614 341.758 60.6141 344.072 60.4802C344.263 60.466 344.425 60.4613 344.544 60.4566C344.622 60.4517 344.7 60.4517 344.777 60.4566C345.068 60.4755 346.495 60.97 348.363 61.6851C348.435 61.7088 348.506 61.7371 348.577 61.7655L348.843 61.8647C349 61.9277 349.171 61.9891 349.338 62.0553C349.67 62.1891 350.018 62.323 350.366 62.4601C350.484 62.5089 350.608 62.5561 350.731 62.6034C354.473 64.0887 358.754 65.9316 359.78 66.664C360.455 67.1444 362.552 71.101 364.981 75.9932C367.598 84.379 370.798 96.4772 371.849 102.447Z" fill="#DECBC4"/>
<path d="M344.721 59.3761C344.622 64.3518 335 67.0735 335 67.0735C335 67.0735 330.975 62.0222 331.936 61.5371C332.314 61.3481 332.468 60.592 332.514 59.7478C332.545 58.9956 332.527 58.2421 332.46 57.4923C332.43 57.1394 332.404 56.9142 332.404 56.9142C332.404 56.9142 333.779 55.462 335.528 53.731C338.584 50.7052 342.786 46.8305 342.792 48.3757C342.791 48.4738 342.779 48.5715 342.756 48.667C342.018 52.1338 344.721 59.3761 344.721 59.3761Z" fill="#EEA886"/>
<path d="M341.014 52.0897C340.995 52.1181 340.586 52.7292 339.889 53.6065C338.414 55.4667 335.642 58.5224 332.514 59.7494C332.545 58.9972 332.527 58.2437 332.46 57.4938C332.139 57.486 331.818 57.4475 331.504 57.3789C332.136 56.3136 332.835 55.2893 333.596 54.3122L335.528 53.7325L341.014 52.0897Z" fill="#A77961"/>
<path d="M342.862 48.4386C342.03 50.2515 341.24 51.5667 341.015 52.0865C340.868 52.4251 340.47 52.978 339.89 53.6033C338.306 55.3138 335.357 57.5694 332.461 57.4906C332.139 57.4827 331.819 57.4442 331.504 57.3756C330.335 57.1189 328.954 56.5739 328.2 55.0854C322.198 43.318 326.544 33.6974 326.544 33.6974C326.544 33.6974 342.958 29.0509 345.525 33.9966C347.32 37.4681 344.817 44.1796 342.862 48.4386Z" fill="#EEA886"/>
<path d="M326.536 33.699C326.536 33.699 325.011 33.6139 324.635 30.7205C324.262 27.8633 325.016 27.071 325.016 27.071C325.016 27.071 331.792 24.2359 334.224 23.861C336.656 23.4861 342.641 23.138 344.045 24.743C344.045 24.743 347.451 23.9555 348.379 29.6132C349.853 38.5991 343.362 47.3219 343.362 47.3219C343.362 47.3219 343.417 41.4531 342.124 40.675C340.83 39.8969 339.715 41.7477 339.715 41.7477L337.07 42.2202C337.07 42.2202 341.087 33.5352 336.268 33.2139C331.449 32.8925 329.295 34.203 326.536 33.699Z" fill="#E9754E"/>
<path d="M339.787 39.4071C340.039 36.8208 344.71 35.8332 344.397 38.5439C344.084 41.2546 341.783 43.8582 340.721 43.7669C339.66 43.6755 339.595 41.3791 339.787 39.4071Z" fill="#EEA886"/>
<path d="M367.128 76.2326C365.606 71.3499 364.296 67.4925 363.704 67.0735C362.682 66.3395 354.579 64.1076 350.733 62.5987C350.61 62.5514 350.486 62.5042 350.368 62.4554C350.02 62.3183 349.672 62.1844 349.34 62.0506C349.173 61.9844 349.007 61.923 348.845 61.86L348.579 61.7607C348.508 61.7324 348.437 61.704 348.365 61.6804C348.365 61.6804 348.355 61.6946 348.346 61.6993C346.833 63.4327 345.414 65.2473 344.098 67.1349C340.124 72.7911 334.946 81.9533 335.739 90.4131C335.996 93.1254 336.31 97.0285 336.84 101.399C336.88 101.747 336.922 102.094 336.969 102.447H354.905C355.124 97.868 355.514 91.8354 356.102 89.4996L356.118 89.4602C356.119 89.4441 356.122 89.4282 356.127 89.413C356.127 89.3893 356.141 89.3657 356.146 89.3421C356.151 89.3184 356.156 89.3184 356.16 89.3043V89.2948C356.159 89.2917 356.159 89.2884 356.16 89.2854C356.16 89.2854 360.501 96.0771 360.723 102.447H372.021C371.464 96.5292 369.738 84.6058 367.128 76.2326Z" fill="#3D4145"/>
<path d="M329.213 62.8743C329.213 62.8743 327.857 67.3869 326.108 78.6551C326.046 79.0315 325.99 79.4174 325.927 79.8112C325.927 79.8553 325.913 79.9025 325.908 79.9498C325.865 80.2065 325.828 80.4727 325.79 80.7373L325.776 80.8318C325.747 81.0082 325.717 81.1894 325.694 81.3752C325.628 81.8178 325.562 82.2746 325.494 82.7361C324.838 87.3354 323.963 94.6422 323.074 102.439H315.985C315.6 100.273 315.239 98.3027 315.268 96.9497C315.254 96.9791 315.243 97.0096 315.235 97.041C314.668 98.6161 314.045 100.32 313.413 101.982C313.356 102.14 313.3 102.286 313.241 102.439H301.022L313.194 70.5591C313.436 70.3685 316.57 68.6785 318.642 67.694C320.807 66.6608 323.54 65.3897 325.966 64.2714C327.126 63.7327 328.214 63.2334 329.138 62.8097L329.213 62.8743Z" fill="#3D4145"/>
<path d="M345.698 74.0228L341.014 76.6705L343.016 78.7181L338.623 102.447H336.968C336.359 97.6491 336.013 93.3412 335.741 90.4131C334.52 77.332 347.558 62.5798 348.365 61.6804C348.994 61.9183 349.667 62.1797 350.368 62.4554L345.698 74.0228Z" fill="#52575D"/>
<path d="M329.284 62.7515C329.284 62.7515 327.535 68.4706 325.499 82.744C324.843 87.337 323.963 94.6501 323.074 102.447H322.385L321.478 80.0207L323.707 77.6061L321.725 75.1253L325.972 64.2824C327.132 63.7438 328.221 63.2445 329.144 62.8208L329.284 62.7515Z" fill="#52575D"/>
<path d="M348.601 61.7354L344.721 59.3728C344.721 59.3728 344.611 61.5039 335 67.0702L337.723 74.7708L348.601 61.7354Z" fill="#F6E3DA"/>
<path d="M332.443 60.4502C332.443 60.4502 332.601 62.7498 335 67.0734L329.673 74.0259L329.284 62.7498L332.443 60.4502Z" fill="#F6E3DA"/>
<path d="M335.014 67.0735C335.014 67.0735 336.048 71.2065 335.675 72.3642C335.675 72.3642 333.405 73.1911 331.773 72.1579C331.773 72.1579 332.93 69.2581 335.014 67.0735Z" fill="#D44141"/>
<path d="M333.764 81.1296C332.675 88.5561 332.675 96.0677 333.079 102.447H328.529C328.466 101.547 328.41 100.609 328.353 99.629C327.507 84.924 332.698 71.7862 332.698 71.7862L335.014 71.205C335.014 71.205 334.262 77.7022 333.764 81.1296Z" fill="#D44141"/>
<path d="M315.414 90.2934C315.241 93.8216 315.267 96.9544 315.267 96.9544C315.267 96.9718 315.267 97.0663 315.254 97.2238C315.254 97.1639 315.24 97.1056 315.232 97.0474C314.669 98.6225 314.044 100.325 313.413 101.987C313.275 100.196 313.228 98.399 313.272 96.6032C313.525 86.7101 316.632 81.5233 316.632 81.5233C315.919 83.2512 315.578 86.9495 315.414 90.2934Z" fill="#2F3234"/>
<path d="M272.882 102.489L258.343 110.491L243.743 87.4882L261.402 81.3469L272.882 102.489Z" fill="#2A2C48"/>
<path d="M271.96 101.798L258.364 109.279L244.711 87.7685L261.224 82.0258L271.96 101.798Z" fill="white"/>
<path d="M276.939 97.775C276.939 97.775 274.41 96.5638 273.299 95.9306C272.188 95.2974 269.331 94.428 269.1 94.2216C268.869 94.0153 260.631 93.505 260.132 93.0734C259.633 92.6418 259.147 94.0862 261.282 94.554C263.417 95.0218 266.389 96.1669 266.551 97.0032C266.713 97.8396 264.358 98.0365 264.119 98.7248C263.88 99.4131 264.186 99.2588 264.525 99.4052C264.863 99.5517 267.327 98.1877 268.409 98.5752C269.492 98.9626 271.15 98.4255 271.98 98.7106C272.811 98.9957 276.858 100.355 276.858 100.355L276.939 97.775Z" fill="#EEA886"/>
<path d="M257.644 107.604C257.644 107.604 255.518 105.688 254.497 104.887C253.476 104.085 251.538 101.736 251.253 101.592C250.968 101.447 247.282 93.8736 246.681 93.5759C246.08 93.2782 247.249 92.2513 248.522 94.0847C249.794 95.9181 252.028 98.2744 252.878 98.1027C253.728 97.931 252.998 95.6298 253.551 95.1368C254.105 94.6438 254.08 94.9919 254.351 95.2534C254.621 95.5148 254.294 98.372 255.082 99.2431C255.87 100.114 256.009 101.886 256.6 102.56C257.192 103.234 260.044 106.512 260.044 106.512L257.644 107.604Z" fill="#EEA886"/>
<path d="M303.426 209.989C303.426 209.989 303.887 213.183 303.943 213.664C304 214.144 309.059 213.382 309.059 213.382L309.468 209.576C309.468 209.576 304.055 209.537 303.426 209.989Z" fill="#434873"/>
<path d="M303.882 213.257C303.882 213.257 302.279 215.184 300.735 216.021C299.192 216.859 296.75 217.193 295.833 218.069C295.172 218.699 293.423 221.396 299.86 221.342C306.298 221.289 309.402 221.723 310.087 220.688C310.771 219.654 309.089 213.048 309.089 213.048C309.089 213.048 307.563 213.59 303.882 213.257Z" fill="#2A2C48"/>
<path d="M267.176 209.989C267.176 209.989 267.637 213.183 267.693 213.664C267.75 214.144 272.81 213.378 272.81 213.378L273.219 209.573C273.219 209.573 267.808 209.537 267.176 209.989Z" fill="#434873"/>
<path d="M267.639 213.257C267.639 213.257 266.036 215.184 264.493 216.021C262.95 216.859 257.239 217.551 256.323 218.42C255.661 219.05 254.561 221.57 263.618 221.336C270.054 221.167 273.16 221.717 273.844 220.682C274.529 219.647 272.847 213.041 272.847 213.041C272.847 213.041 271.409 213.627 267.639 213.257Z" fill="#2A2C48"/>
<path d="M299.23 127.876C299.23 127.876 303.983 135.437 303.635 142.27C303.287 149.102 305.366 156.564 306.074 163.702C306.87 171.661 310.126 190.5 310.244 194.758C310.362 199.015 309.739 212.608 309.739 212.608L303.218 212.756C303.218 212.756 297.741 179.82 296.324 176.458C294.906 173.097 287.872 149.139 287.636 146.45C287.4 143.761 299.23 127.876 299.23 127.876Z" fill="#2A2C48"/>
<path d="M274.21 128.9C274.21 128.9 270.629 147.63 270.156 151.813C269.682 155.996 269.369 172.053 269.132 174.666C268.894 177.279 267.558 208.874 266.3 212.756H274.638C274.638 212.756 281.037 189.79 281.037 178.923C281.037 168.057 285.98 155.297 289.171 148.131C292.361 140.964 299.666 140.792 301.628 127.497C301.621 127.489 276.868 124.682 274.21 128.9Z" fill="#2A2C48"/>
<path d="M291.298 64.3187C291.298 64.3187 284.919 61.9324 281.978 66.7947C279.038 71.657 279.319 81.3894 282.535 82.5849C285.751 83.7804 290.581 83.1567 292.227 80.1152C293.872 77.0737 295.361 72.6745 295.288 69.7354C295.216 66.7963 292.974 65.1629 291.298 64.3187Z" fill="#EEA886"/>
<path d="M283.228 82.8038C283.228 82.8038 283.494 84.527 283.055 85.3775C282.616 86.2281 291.32 86.2485 291.32 86.2485C291.32 86.2485 292.026 81.6288 293.365 77.7242C294.704 73.8195 283.228 82.8038 283.228 82.8038Z" fill="#EEA886"/>
<path d="M293.366 77.7289C293.366 77.7289 292.765 78.7212 290.312 78.3368C287.86 77.9525 284.869 74.6858 283.846 74.3267C282.824 73.9676 282.813 73.3659 282.813 73.3659L282.171 74.3109L281.084 74.3802C281.084 74.3802 282.076 71.4584 280.579 70.2677C279.081 69.0769 282.133 60.8172 289.996 63.5625C289.996 63.5625 296.036 65.229 295.817 68.669C295.599 72.109 294.718 76.0167 293.366 77.7289Z" fill="#3A4047"/>
<path d="M282.539 85.2799C282.539 85.2799 282.566 83.656 283.301 83.5016C284.035 83.3473 291.411 82.6353 292.314 82.9913V84.8814C292.314 84.8814 290.575 85.954 282.539 85.2799Z" fill="#E3D3CC"/>
<path d="M282.973 72.1153C283.11 71.5388 284.576 69.8913 285.136 71.6554C285.696 73.4195 284.288 75.7947 283.503 75.5931C282.718 75.3915 282.625 73.5786 282.973 72.1153Z" fill="#EEA886"/>
<path d="M253.265 104.455H253.278C253.227 104.477 253.219 104.479 253.265 104.455Z" fill="#323657"/>
<path d="M304.591 145.886C304.591 145.886 300.678 147.039 294.008 147.776C287.337 148.513 270.666 147.51 270.566 146.722C270.465 145.935 274.151 117.341 273.941 115.866C273.73 114.392 273.618 109.149 273.618 109.149C273.536 110.585 272.073 116.457 270.314 119.659C269.675 120.815 267.536 124.44 266.504 123.616C261.51 119.625 253.777 104.583 253.288 104.455C253.7 104.277 256.954 102.777 257.41 102.625C257.81 102.491 261.412 106.31 263.595 108.678C264.568 109.731 265.259 110.499 265.259 110.499C265.888 109.081 268.185 100.134 268.898 97.0394C270.508 90.0571 270.261 89.7673 270.261 89.7673C275.138 88.2898 282.549 85.2814 282.549 85.2814L292.324 84.8829C292.324 84.8829 301.292 86.8597 304.829 88.4568C305.164 88.6143 305.165 96.4693 306.087 98.5374L303.158 104.724C303.158 104.724 301.467 116.98 301.113 122.43C300.94 124.925 304.591 145.886 304.591 145.886Z" fill="#FFDF69"/>
<path d="M306.479 108.736C306.225 109.56 305.064 110.258 304.313 110.562C303.817 110.763 303.274 110.817 302.748 110.719L302.365 110.648L295.666 109.404C295.666 109.404 294.2 92.5047 304.818 88.4552C305.098 88.5481 308.825 101.169 306.479 108.736Z" fill="#FFDF69"/>
<path d="M304.313 110.562C303.817 110.763 303.274 110.817 302.748 110.719L302.365 110.648L303.026 102.012L304.313 110.562Z" fill="#AC9648"/>
<path d="M265.248 110.497L264.43 113.962C264.43 113.962 263.541 110.48 263.584 108.67C264.565 109.738 265.248 110.497 265.248 110.497Z" fill="#AC9648"/>
<path d="M293.116 64.892C293.116 64.892 301.477 63.843 293.258 77.825L293.116 64.892Z" fill="#3A4047"/>
<path d="M250.465 86.2533L249.615 84.7916L256.308 82.4794L257.158 83.9332L250.465 86.2533Z" fill="#2A2C48"/>
<g opacity="0.95">
<path d="M378.136 23.6137H382.879L381.427 20.599H376.685L378.136 23.6137Z" fill="url(#paint12_linear_158_3447)"/>
<path d="M375.917 23.6137H377.047L375.595 20.599H374.465L375.917 23.6137Z" fill="url(#paint13_linear_158_3447)"/>
<path d="M359.533 20.0241H378.735L378.098 18.5167H358.896L359.533 20.0241Z" fill="url(#paint14_linear_158_3447)"/>
</g>
<path d="M70.9121 86.2675H63.6624C63.4174 86.2675 63.2188 86.4663 63.2188 86.7116V88.2788C63.2188 88.5241 63.4174 88.723 63.6624 88.723H70.9121C71.1571 88.723 71.3557 88.5241 71.3557 88.2788V86.7116C71.3557 86.4663 71.1571 86.2675 70.9121 86.2675Z" fill="url(#paint15_linear_158_3447)"/>
<path d="M70.9121 92.1536H63.6624C63.4174 92.1536 63.2188 92.3524 63.2188 92.5977V94.165C63.2188 94.4103 63.4174 94.6091 63.6624 94.6091H70.9121C71.1571 94.6091 71.3557 94.4103 71.3557 94.165V92.5977C71.3557 92.3524 71.1571 92.1536 70.9121 92.1536Z" fill="url(#paint16_linear_158_3447)"/>
<path d="M70.9121 98.0413H63.6624C63.4174 98.0413 63.2188 98.2401 63.2188 98.4854V100.053C63.2188 100.298 63.4174 100.497 63.6624 100.497H70.9121C71.1571 100.497 71.3557 100.298 71.3557 100.053V98.4854C71.3557 98.2401 71.1571 98.0413 70.9121 98.0413Z" fill="url(#paint17_linear_158_3447)"/>
<path d="M76.5873 86.2675H75.1588C74.9137 86.2675 74.7151 86.4663 74.7151 86.7116V88.2788C74.7151 88.5241 74.9137 88.723 75.1588 88.723H76.5873C76.8323 88.723 77.031 88.5241 77.031 88.2788V86.7116C77.031 86.4663 76.8323 86.2675 76.5873 86.2675Z" fill="url(#paint18_linear_158_3447)"/>
<path d="M76.5873 92.1536H75.1588C74.9137 92.1536 74.7151 92.3524 74.7151 92.5977V94.165C74.7151 94.4103 74.9137 94.6091 75.1588 94.6091H76.5873C76.8323 94.6091 77.031 94.4103 77.031 94.165V92.5977C77.031 92.3524 76.8323 92.1536 76.5873 92.1536Z" fill="url(#paint19_linear_158_3447)"/>
<path d="M76.5873 98.0413H75.1588C74.9137 98.0413 74.7151 98.2401 74.7151 98.4854V100.053C74.7151 100.298 74.9137 100.497 75.1588 100.497H76.5873C76.8323 100.497 77.031 100.298 77.031 100.053V98.4854C77.031 98.2401 76.8323 98.0413 76.5873 98.0413Z" fill="url(#paint20_linear_158_3447)"/>
<path d="M230.58 104.553H239.091L236.486 99.1422H227.975L230.58 104.553Z" fill="url(#paint21_linear_158_3447)"/>
<path d="M226.597 104.553H228.625L226.019 99.1422H223.991L226.597 104.553Z" fill="url(#paint22_linear_158_3447)"/>
<path opacity="0.95" d="M144.888 41.8358H99.0948C94.9041 41.8358 91.5068 45.2369 91.5068 49.4325V89.2128C91.5068 93.4083 94.9041 96.8095 99.0948 96.8095H144.888C149.079 96.8095 152.476 93.4083 152.476 89.2128V49.4325C152.476 45.2369 149.079 41.8358 144.888 41.8358Z" fill="url(#paint23_linear_158_3447)"/>
<path d="M124.179 86.4124H119.343V87.3086H124.179V86.4124Z" fill="#5094D0"/>
<path d="M126.133 37.0208C126.133 37.0208 130.029 39.1629 128.792 44.4237C127.555 49.6845 127.085 50.3854 128.09 52.5133C129.096 54.6413 129.978 63.5594 128.907 65.1912C127.835 66.823 116.967 57.2339 115.76 49.5616C114.554 41.8894 117.271 38.6321 118.235 37.4161C119.2 36.2002 122.697 35.0661 126.133 37.0208Z" fill="#354153"/>
<path d="M133.449 80.5499H129.276C129.075 78.4896 128.889 77.0563 128.927 76.8437C128.988 76.494 124.777 65.4322 124.383 64.517C123.99 63.6019 122.443 61.1527 122.242 58.8467C122.041 56.5408 125.047 55.6036 125.047 55.6036C129.108 56.3313 130.484 61.956 130.484 61.956C130.484 61.956 132.19 73.3627 133.052 76.5728C133.276 77.3902 133.395 78.8456 133.449 80.5499Z" fill="#EEA886"/>
<path d="M131.348 64.6982L125.137 67.3208C125.137 67.3208 119.428 53.1355 124.213 54.7201C128.999 56.3046 131.131 59.2673 131.348 64.6982Z" fill="#E94847"/>
<path d="M124.786 54.7201C124.786 54.7201 127.61 59.5509 126.559 59.9179C125.508 60.2849 119.977 59.0595 117.816 54.4949C117.816 54.4886 121.448 52.8363 124.786 54.7201Z" fill="#EEA886"/>
<path d="M124.386 56.9267C124.386 56.9267 121.88 57.9883 119.61 54.4916C119.61 54.4916 120.219 50.5208 118.93 48.2244C117.642 45.9279 124.567 50.9776 124.567 50.9776C124.567 50.9776 124.456 51.4501 124.339 52.1495C124.279 52.507 124.218 52.9244 124.172 53.3655C124.133 53.7324 124.103 54.1199 124.089 54.5042C124.056 55.3973 124.121 56.2841 124.386 56.9267Z" fill="#EEA886"/>
<path d="M118.156 62.3356C117.64 64.9943 113.937 68.3209 113.937 68.3209C113.754 67.7775 113.566 67.2183 113.383 66.6466C115.938 65.0179 118.156 62.3356 118.156 62.3356Z" fill="#3A3D63"/>
<path d="M117.228 64.4509C116.992 65.4196 115.912 75.2308 116.03 75.5663C116.1 75.7585 116.622 78.0282 117.146 80.5499H112.311C111.816 78.9244 111.525 77.5745 111.594 76.8106C111.908 73.5029 110.782 62.9499 110.782 62.9499C110.782 62.9499 109.778 56.5676 115.068 55.7706C115.068 55.7706 118.192 56.1817 118.381 58.4924C118.57 60.803 117.464 63.4854 117.228 64.4509Z" fill="#EEA886"/>
<path d="M110.392 65.8071L116.956 67.3412C116.956 67.3412 122.163 57.2197 117.473 55.3706C112.53 53.4238 109.206 60.2801 110.392 65.8071Z" fill="#E94847"/>
<path d="M125.527 37.5831C125.527 37.5831 131.231 39.6796 127.614 49.5349C123.998 59.3902 116.617 47.8527 117.733 41.7965C118.848 35.7403 125.527 37.5831 125.527 37.5831Z" fill="#EEA987"/>
<path d="M128.489 43.5731C128.489 43.5731 125.488 46.2618 120.647 46.391C120.647 46.391 119.517 49.1458 119.334 49.9916C119.334 49.9916 114.561 41.7854 120.05 37.6414C125.539 33.4973 130.522 41.8516 128.489 43.5731Z" fill="#354153"/>
<path d="M121.299 46.9817C121.299 46.2508 120.926 44.5734 119.824 44.986C118.721 45.3987 119.709 48.8277 120.436 48.6544C120.436 48.6544 121.306 48.708 121.299 46.9817Z" fill="#EEA987"/>
<path d="M124.092 54.3358C121.417 53.5939 120.374 51.036 120.343 50.9493C122.522 53.7703 124.167 53.3655 124.167 53.3655C124.128 53.7325 124.125 53.9625 124.092 54.3358Z" fill="#A77961"/>
<path d="M136.483 51.7841V52.6614H141.639V57.5063H142.515V51.7841H136.483ZM101.469 57.5063H102.343V52.6614H107.5V51.7841H101.469V57.5063ZM141.639 82.5045V87.3511H136.483V88.2284H142.515V82.5045H141.639ZM102.343 82.5045H101.469V88.2284H107.5V87.3511H102.343V82.5045Z" fill="#5094D0"/>
</g>
<defs>
<linearGradient id="paint0_linear_158_3447" x1="214.499" y1="31.2907" x2="214.499" y2="91.0542" gradientUnits="userSpaceOnUse">
<stop stop-color="#EEEDED"/>
<stop offset="1" stop-color="white"/>
</linearGradient>
<linearGradient id="paint1_linear_158_3447" x1="214.499" y1="56.9126" x2="214.499" y2="106.895" gradientUnits="userSpaceOnUse">
<stop stop-color="#D5D5D4"/>
<stop offset="1" stop-color="white"/>
</linearGradient>
<linearGradient id="paint2_linear_158_3447" x1="233.498" y1="152.934" x2="227.003" y2="35.3457" gradientUnits="userSpaceOnUse">
<stop stop-color="#D1D7E0"/>
<stop offset="1" stop-color="#EBEAF6"/>
</linearGradient>
<linearGradient id="paint3_linear_158_3447" x1="339.502" y1="185.717" x2="339.502" y2="64.6573" gradientUnits="userSpaceOnUse">
<stop stop-color="#D1D7E0"/>
<stop offset="1" stop-color="#EBEAF6"/>
</linearGradient>
<linearGradient id="paint4_linear_158_3447" x1="227.572" y1="110.96" x2="227.572" y2="22.4403" gradientUnits="userSpaceOnUse">
<stop stop-color="#D1D7E0"/>
<stop offset="1" stop-color="#EBEAF6"/>
</linearGradient>
<linearGradient id="paint5_linear_158_3447" x1="136.998" y1="161.651" x2="116.956" y2="161.651" gradientUnits="userSpaceOnUse">
<stop stop-color="#3277A2"/>
<stop offset="1" stop-color="#59BCB0"/>
</linearGradient>
<linearGradient id="paint6_linear_158_3447" x1="121.425" y1="178.213" x2="84.9913" y2="178.213" gradientUnits="userSpaceOnUse">
<stop stop-color="#3277A2"/>
<stop offset="1" stop-color="#59BCB0"/>
</linearGradient>
<linearGradient id="paint7_linear_158_3447" x1="118.312" y1="183.518" x2="90.9654" y2="183.518" gradientUnits="userSpaceOnUse">
<stop stop-color="#3277A2"/>
<stop offset="1" stop-color="#59BCB0"/>
</linearGradient>
<linearGradient id="paint8_linear_158_3447" x1="151.368" y1="155.705" x2="110.302" y2="155.705" gradientUnits="userSpaceOnUse">
<stop stop-color="#3277A2"/>
<stop offset="1" stop-color="#59BCB0"/>
</linearGradient>
<linearGradient id="paint9_linear_158_3447" x1="126.916" y1="200.584" x2="102.958" y2="128.788" gradientUnits="userSpaceOnUse">
<stop stop-color="#3277A2"/>
<stop offset="1" stop-color="#59BCB0"/>
</linearGradient>
<linearGradient id="paint10_linear_158_3447" x1="108.418" y1="247.484" x2="120.399" y2="195.895" gradientUnits="userSpaceOnUse">
<stop stop-color="#CAC5C2"/>
<stop offset="1" stop-color="#FFF6DF"/>
</linearGradient>
<linearGradient id="paint11_linear_158_3447" x1="106.105" y1="207.22" x2="135.496" y2="207.22" gradientUnits="userSpaceOnUse">
<stop stop-color="#CAC5C2"/>
<stop offset="1" stop-color="#FFF6DF"/>
</linearGradient>
<linearGradient id="paint12_linear_158_3447" x1="376.685" y1="22.1064" x2="382.878" y2="22.1064" gradientUnits="userSpaceOnUse">
<stop stop-color="#D1D7E0"/>
<stop offset="1" stop-color="#EBEAF6"/>
</linearGradient>
<linearGradient id="paint13_linear_158_3447" x1="374.465" y1="22.1064" x2="377.047" y2="22.1064" gradientUnits="userSpaceOnUse">
<stop stop-color="#D1D7E0"/>
<stop offset="1" stop-color="#EBEAF6"/>
</linearGradient>
<linearGradient id="paint14_linear_158_3447" x1="358.896" y1="19.2696" x2="378.735" y2="19.2696" gradientUnits="userSpaceOnUse">
<stop stop-color="#D1D7E0"/>
<stop offset="1" stop-color="#EBEAF6"/>
</linearGradient>
<linearGradient id="paint15_linear_158_3447" x1="63.2188" y1="87.4944" x2="71.3557" y2="87.4944" gradientUnits="userSpaceOnUse">
<stop stop-color="#D1D7E0"/>
<stop offset="1" stop-color="#EBEAF6"/>
</linearGradient>
<linearGradient id="paint16_linear_158_3447" x1="63.2188" y1="93.3821" x2="71.3557" y2="93.3821" gradientUnits="userSpaceOnUse">
<stop stop-color="#D1D7E0"/>
<stop offset="1" stop-color="#EBEAF6"/>
</linearGradient>
<linearGradient id="paint17_linear_158_3447" x1="63.2188" y1="99.2682" x2="71.3557" y2="99.2682" gradientUnits="userSpaceOnUse">
<stop stop-color="#D1D7E0"/>
<stop offset="1" stop-color="#EBEAF6"/>
</linearGradient>
<linearGradient id="paint18_linear_158_3447" x1="74.7151" y1="87.4944" x2="77.031" y2="87.4944" gradientUnits="userSpaceOnUse">
<stop stop-color="#D1D7E0"/>
<stop offset="1" stop-color="#EBEAF6"/>
</linearGradient>
<linearGradient id="paint19_linear_158_3447" x1="74.7151" y1="93.3821" x2="77.031" y2="93.3821" gradientUnits="userSpaceOnUse">
<stop stop-color="#D1D7E0"/>
<stop offset="1" stop-color="#EBEAF6"/>
</linearGradient>
<linearGradient id="paint20_linear_158_3447" x1="74.7151" y1="99.2682" x2="77.031" y2="99.2682" gradientUnits="userSpaceOnUse">
<stop stop-color="#D1D7E0"/>
<stop offset="1" stop-color="#EBEAF6"/>
</linearGradient>
<linearGradient id="paint21_linear_158_3447" x1="227.975" y1="101.848" x2="239.091" y2="101.848" gradientUnits="userSpaceOnUse">
<stop stop-color="#D1D7E0"/>
<stop offset="1" stop-color="#EBEAF6"/>
</linearGradient>
<linearGradient id="paint22_linear_158_3447" x1="223.991" y1="101.848" x2="228.625" y2="101.848" gradientUnits="userSpaceOnUse">
<stop stop-color="#D1D7E0"/>
<stop offset="1" stop-color="#EBEAF6"/>
</linearGradient>
<linearGradient id="paint23_linear_158_3447" x1="121.992" y1="104.88" x2="121.992" y2="55.0161" gradientUnits="userSpaceOnUse">
<stop stop-color="#D1D7E0"/>
<stop offset="1" stop-color="#EBEAF6"/>
</linearGradient>
<clipPath id="clip0_158_3447">
<rect width="429" height="228" fill="white"/>
</clipPath>
</defs>
</svg>
