<svg width="466" height="217" viewBox="0 0 466 217" fill="none" xmlns="http://www.w3.org/2000/svg">
<g clip-path="url(#clip0_158_3587)">
<path d="M29.7476 216.389C29.7476 216.389 4.23025 150.551 41.5617 111.241C89.7126 60.5355 151.935 102.918 175.284 101.688C198.633 100.457 199.946 51.7999 269.706 45.9892C323.646 41.4936 412.229 41.1423 393.33 120.628C378.961 181.061 458.904 149.759 443.342 216.521L29.7476 216.389Z" fill="url(#paint0_linear_158_3587)"/>
<path d="M465.546 215.71H0.453629C0.203097 215.71 0 215.913 0 216.163V216.548C0 216.797 0.203097 217 0.453629 217H465.546C465.797 217 466 216.797 466 216.548V216.163C466 215.913 465.797 215.71 465.546 215.71Z" fill="#283353"/>
<path d="M84.3284 131.358L85.8781 132.614C85.8781 132.614 90.1228 131.096 91.0807 136.126C91.0807 136.126 91.3357 138.268 89.9734 138.273C88.6111 138.277 89.1746 138.038 87.246 138.094C85.3174 138.15 83.7241 137.137 83.4423 135.578L82.5195 134.256L84.3284 131.358Z" fill="#F28D51"/>
<path d="M84.153 134.055C85.3913 132.767 85.2913 131.814 85.2913 131.814C85.2913 131.814 70.9597 120.113 69.5129 119.159C68.5267 118.51 57.9608 109.177 53.0301 103.489C50.5816 100.668 47.5513 101.762 44.0814 102.754L41.2258 103.572C37.7771 104.555 36.8797 109.368 39.71 111.706C47.6795 118.289 60.9376 125.694 63.4184 127.25C69.5763 131.113 81.6312 135.704 81.6312 135.704C81.6312 135.704 83.0908 135.162 84.153 134.055Z" fill="#183D6B"/>
<path d="M100.504 205.948C100.504 205.948 103.983 208.547 109.312 207.174C109.312 207.174 113.61 206.198 114.553 208.335C114.553 208.335 107.963 211.673 106.295 212.586C105.038 213.274 103.726 214.36 102.798 215.2C102.624 215.357 102.419 215.477 102.197 215.553C101.975 215.629 101.74 215.659 101.505 215.641C101.271 215.623 101.043 215.557 100.835 215.448C100.627 215.34 100.444 215.19 100.296 215.008C100.006 214.652 99.6747 214.229 99.3098 213.743C98.2941 212.369 95.9287 207.934 95.9287 207.934L100.504 205.948Z" fill="#1A3760"/>
<path d="M102.551 204.628C102.551 204.628 100.438 209.498 95.544 208.603C95.544 208.603 85.5683 200.387 78.7245 191.852C76.5028 189.081 74.6094 186.275 73.4979 183.704C68.9601 173.226 56.7121 157.6 48.9258 149.68L68.4079 142.656C68.4079 142.656 74.6488 155.175 82.9522 170.551C88.9353 181.629 95.9962 194.193 102.551 204.628Z" fill="#0C478D"/>
<path d="M103.685 112.161C103.815 110.975 103.853 109.78 103.8 108.587C103.787 108.322 103.853 108.059 103.991 107.831C104.128 107.604 104.33 107.423 104.572 107.31L110.325 104.648C110.624 104.51 110.859 104.265 110.985 103.962C111.112 103.659 111.119 103.32 111.007 103.011L109.021 97.5672C108.913 97.2715 108.7 97.0259 108.422 96.8776C108.144 96.7292 107.821 96.6886 107.515 96.7636L101.84 98.153C101.569 98.2189 101.283 98.197 101.025 98.0905C100.767 97.9839 100.55 97.7981 100.404 97.5602C99.1077 95.4479 97.4812 93.5556 95.5864 91.9546C95.3618 91.7636 95.2076 91.5032 95.1484 91.2148C95.0892 90.9264 95.1283 90.6266 95.2595 90.3629L96.8275 87.1794C96.9721 86.8861 97.0029 86.5498 96.914 86.2353C96.8251 85.9207 96.6227 85.65 96.3457 85.4752L91.4882 82.3999C91.2093 82.2238 90.8744 82.1583 90.5495 82.2163C90.2245 82.2743 89.9332 82.4516 89.7329 82.7132L86.3194 87.1878C83.8357 86.5612 81.266 86.3434 78.7119 86.543C78.4475 86.5646 78.1827 86.505 77.9533 86.3722C77.7239 86.2393 77.5407 86.0395 77.4285 85.7998L75.2745 81.1721C75.1341 80.8662 74.8834 80.6241 74.5723 80.494C74.2612 80.3638 73.9124 80.3551 73.5952 80.4696L68.232 82.4154C67.9164 82.5297 67.6544 82.7564 67.4962 83.0518C67.3381 83.3472 67.2951 83.6904 67.3754 84.0156L68.5391 88.7444C68.6049 89.0102 68.586 89.2899 68.485 89.5444C68.384 89.799 68.2059 90.0159 67.9756 90.1648C66.4576 91.1415 65.0582 92.2904 63.8056 93.5885C63.609 93.7911 63.3531 93.9263 63.0747 93.9747C62.7963 94.0232 62.5096 93.9824 62.2559 93.8582L57.0758 91.3196C56.7803 91.1752 56.4418 91.1447 56.1251 91.2339C55.8084 91.3231 55.536 91.5257 55.3599 91.8029L52.2887 96.6343C52.1091 96.9166 52.0423 97.2559 52.1015 97.585C52.1608 97.9141 52.3417 98.2091 52.6085 98.4115L57.652 102.238C57.8593 102.397 58.0147 102.613 58.0984 102.86C58.1822 103.106 58.1906 103.372 58.1225 103.624C57.8114 104.782 57.59 105.963 57.4604 107.156C57.3899 107.799 57.3467 108.438 57.3308 109.072C57.3248 109.326 57.2477 109.574 57.1081 109.788C56.9684 110.001 56.7718 110.171 56.5404 110.279L51.0138 112.837C50.7174 112.974 50.4833 113.217 50.3579 113.518C50.2324 113.819 50.2247 114.156 50.3361 114.462L52.2986 119.842C52.4133 120.157 52.6409 120.419 52.9376 120.577C53.2344 120.736 53.5793 120.779 53.906 120.699L58.4043 119.597C58.6939 119.526 58.9991 119.554 59.2709 119.677C59.5427 119.799 59.7654 120.009 59.9032 120.273C61.0128 122.417 62.4495 124.376 64.162 126.081C64.363 126.278 64.4966 126.534 64.5439 126.811C64.5912 127.089 64.5497 127.374 64.4254 127.626L62.1305 132.285C61.9818 132.587 61.9501 132.932 62.0414 133.256C62.1326 133.579 62.3404 133.858 62.625 134.038L67.4599 137.094C67.7394 137.27 68.0749 137.335 68.4003 137.277C68.7257 137.219 69.0175 137.041 69.2181 136.779L72.5668 132.39C72.7339 132.176 72.9617 132.017 73.2206 131.933C73.4795 131.849 73.7577 131.844 74.0193 131.92C75.3392 132.305 76.6909 132.572 78.0583 132.719C78.8049 132.799 79.5469 132.845 80.2841 132.86C80.5347 132.863 80.7793 132.936 80.9897 133.072C81.2001 133.208 81.3677 133.4 81.4732 133.627L83.6582 138.322C83.8016 138.628 84.0543 138.87 84.3671 138.999C84.6798 139.129 85.0298 139.138 85.3487 139.024L90.719 137.076C91.0295 136.964 91.2875 136.742 91.4436 136.452C91.5996 136.162 91.6426 135.825 91.5643 135.505L90.6429 131.723C90.5713 131.434 90.5989 131.13 90.7212 130.859C90.8436 130.587 91.0536 130.365 91.3178 130.227C94.0672 128.794 96.5033 126.829 98.4843 124.448C98.6737 124.221 98.9345 124.064 99.2246 124.002C99.5147 123.94 99.8172 123.978 100.083 124.108L104.273 126.162C104.567 126.307 104.905 126.338 105.221 126.249C105.537 126.16 105.809 125.958 105.985 125.682L109.054 120.853C109.235 120.569 109.302 120.228 109.242 119.897C109.182 119.565 109 119.269 108.732 119.065L103.894 115.392C103.697 115.243 103.546 115.041 103.458 114.81C103.369 114.579 103.348 114.328 103.395 114.086C103.518 113.454 103.615 112.812 103.685 112.161ZM85.4826 121.303C73.3966 125.612 63.3547 113.084 70.3001 102.25C71.344 100.623 73.691 98.7374 75.5126 98.0715C87.6141 93.6292 97.732 106.096 90.9205 116.943C89.8385 118.66 87.3943 120.621 85.4826 121.303Z" fill="#A6CBED"/>
<path d="M82.9518 170.554L78.7254 191.857C76.5038 189.085 74.6104 186.279 73.4988 183.708C68.9611 173.231 56.7131 157.604 48.9268 149.685L68.4089 142.66C68.4089 142.66 74.6484 155.173 82.9518 170.554Z" fill="#1A3760"/>
<path d="M67.0272 208.774C67.0272 208.774 66.8145 212.66 71.5353 213.179C71.5353 213.179 74.3867 213.236 74.3938 215.707H60.513C60.513 215.707 60.1143 214.71 60.0171 212.572C59.9424 210.932 61.6118 206.642 61.6118 206.642L67.0272 208.774Z" fill="#1A3760"/>
<path d="M62.018 142.654C62.018 142.654 70.6976 152.166 76.2073 169.3C79.2052 178.623 70.7131 202.062 69.0578 210.205C69.0578 210.205 63.3606 210.688 59.4653 209.186C59.4653 209.186 59.1695 192.365 61.4475 179.402C62.7154 172.147 50.0194 163.885 44.4688 150.776C40.6932 141.856 45.2873 142.008 50.9323 141.793L62.018 142.654Z" fill="#0C478D"/>
<path d="M51.998 100.222C47.1701 102.942 37.2832 100.435 37.2832 100.435C37.2832 100.435 41.2983 95.8574 39.4739 88.4929L43.2649 90.4134L47.3377 92.4758C47.5527 93.6802 47.7018 94.8953 47.7843 96.1159C47.8308 96.7186 47.8731 97.3901 47.9012 98.1263C49.3838 98.5695 50.7723 99.2799 51.998 100.222Z" fill="#F6AB7F"/>
<path d="M69.7052 142.163C69.7052 143.006 68.7275 143.414 68.5204 143.457C66.572 143.811 61.1341 145.921 56.2358 146.407C52.1094 146.838 48.2803 146.429 44.0723 145.586C43.5088 145.474 42.207 145.123 42.1141 144.59C41.9985 144.009 25.8848 111.832 38.4118 98.011C38.7048 97.6865 41.1786 98.2709 43.4397 98.8062C45.3461 99.2554 47.346 99.0921 49.1538 98.3398L51.267 99.4524C53.8718 100.899 58.7983 106.041 59.3759 110.076C59.669 112.127 60.8453 113.646 61.1848 115.451C61.3116 116.119 61.4408 116.771 61.5722 117.407C61.8286 118.654 62.093 119.84 62.3654 120.967C63.1022 124.018 63.8798 126.644 64.6434 128.915C65.4563 131.324 66.2536 133.327 66.9651 135.003C67.8892 137.178 68.6697 138.797 69.1571 140.045C69.5107 140.919 69.7052 141.613 69.7052 142.163Z" fill="#004E99"/>
<path d="M69.1643 140.043C46.418 129.357 38.54 108.836 38.54 108.836C38.54 108.836 57.0205 115.634 61.5793 117.406C61.8357 118.652 62.1001 119.839 62.3725 120.966C63.1093 124.017 63.8869 126.643 64.6505 128.913C65.4634 131.323 66.2607 133.326 66.9722 135.002C67.8963 137.175 68.6768 138.804 69.1643 140.043Z" fill="#183D6B"/>
<path d="M82.4721 133.85L84.4444 134.569C84.4444 134.569 88.3791 131.793 90.8304 136.307C90.8304 136.307 91.7166 138.274 90.3134 138.708C88.9103 139.142 89.4217 138.732 87.4493 139.388C85.477 140.044 83.5329 139.571 82.7891 138.166L81.4521 137.182L82.4721 133.85Z" fill="#F6AB7F"/>
<path d="M84.0904 136.622C84.8159 134.731 85.1484 133.875 85.1484 133.875C85.1484 133.875 70.2955 121.802 68.7825 120.766C67.7513 120.064 57.4854 112.408 52.48 106.445C51.2618 104.993 49.6706 103.898 47.8768 103.278C46.0829 102.658 44.1539 102.536 42.2959 102.925L39.1782 103.577C35.414 104.364 34.1897 109.117 37.1101 111.613C45.3361 118.645 59.2084 126.8 61.7949 128.496C68.2162 132.71 82.4181 138.611 82.4181 138.611C82.4181 138.611 83.5198 138.101 84.0904 136.622Z" fill="#004E99"/>
<path d="M47.7843 96.1088C43.0353 96.3744 39.9473 92.4645 39.9473 92.4645C39.9473 92.4645 42.0942 91.2788 43.2649 90.4064L47.3378 92.4687C47.5528 93.6731 47.7019 94.8883 47.7843 96.1088Z" fill="#F28D51"/>
<path d="M49.8077 91.2465C49.8077 91.2465 42.6131 96.3954 39.4658 91.8787C36.3186 87.3619 33.2672 84.9821 37.733 81.5035C42.1989 78.025 44.2966 79.1237 45.7152 80.3796C47.1338 81.6356 51.5983 89.791 49.8077 91.2465Z" fill="#F6AB7F"/>
<path d="M46.4747 76.297C46.3264 75.2776 46.0422 74.2825 45.6294 73.3383C45.6294 73.3383 45.1786 75.204 41.7595 74.9469C38.3404 74.6898 32.9236 75.2812 31.1175 79.1615C31.0039 79.4088 30.901 79.6631 30.809 79.9244C30.4821 79.0632 30.4047 77.7721 30.4047 77.7721C29.7538 79.4439 30.4047 81.5358 30.4047 81.5358C30.3948 81.5976 30.3863 81.658 30.3779 81.7199C29.6228 82.3563 28.9902 84.333 28.9902 84.333C29.217 83.7808 29.7721 83.4212 30.268 83.1992C30.2525 86.2225 31.481 89.177 33.6392 90.0565C36.7935 91.3434 36.7681 90.3614 39.9407 92.4603C39.9407 92.4603 40.786 91.408 40.2112 90.6999C39.6364 89.9919 37.4387 88.9635 38.6616 87.9337C39.8844 86.9039 40.338 88.063 40.7888 87.3563C41.2396 86.6496 38.9842 84.5901 41.8863 82.6611C44.7884 80.7322 46.7325 78.0334 46.4747 76.297Z" fill="#1A3760"/>
<path d="M381.889 209.374C381.889 209.374 382.276 215.609 383.486 215.696C383.647 215.709 389.62 215.709 389.62 215.709H397.254C397.254 215.709 397.195 213.832 394.966 213.444C392.738 213.056 389.007 211.496 387.656 208.558C386.236 205.469 381.889 209.374 381.889 209.374Z" fill="#19355A"/>
<path d="M351.691 158.134C352.778 160.145 353.996 162.082 355.337 163.934C359.348 169.565 363.714 174.208 364.474 178.597C364.646 179.548 364.882 180.487 365.179 181.407C365.497 182.413 365.89 183.469 366.342 184.562C368.044 188.675 370.59 193.281 373.131 197.469C377.524 204.709 381.656 210.75 381.656 210.75L389.231 210.39C388.928 209.547 385.624 199.55 381.201 187.334L375.656 172.021C375.411 171.342 375.166 170.665 374.922 169.995C374.358 168.438 373.805 166.904 373.264 165.414L365.808 144.81C365.808 144.81 349.219 137.822 347.494 142.35C346.074 146.075 347.232 149.732 351.691 158.134Z" fill="#069FAF"/>
<path d="M365.623 202.617C365.623 202.617 362.847 205.182 363.388 207.004C363.929 208.826 366.434 210.04 366.769 212.268C367.105 214.496 368.46 215.71 369.68 215.71H375.487C375.487 215.71 376.384 214.142 374.219 213.67C372.054 213.198 371.237 210.58 371.372 208.151C371.507 205.721 371.169 202.482 371.169 202.482L366.567 201.403L365.623 202.617Z" fill="#1A3760"/>
<path d="M368.075 143.941C368.075 143.941 385.53 172.18 385.53 174.427C385.53 179.395 372.343 208.004 372.343 208.004C372.343 208.004 365.341 204.315 365.621 201.726C365.621 201.726 369.822 181.643 371.044 178.415C372.265 175.186 348.982 163.024 347.761 148.33L368.075 143.941Z" fill="#26B6BF"/>
<path d="M376.633 129.422C376.633 129.422 380.233 131.463 381.24 131.462C382.247 131.46 386.205 130.7 387.308 131.262C388.411 131.824 390.407 134.084 390.78 134.822C391.454 136.151 388.069 135.564 386.47 134.433C386.355 134.351 386.225 134.295 386.088 134.266C385.95 134.238 385.808 134.239 385.671 134.269C384.842 134.448 383.121 134.76 382.29 134.454C381.172 134.041 375.285 133.583 375.285 133.583L376.633 129.422Z" fill="#F49A62"/>
<path d="M349.244 101.619C349.244 101.619 352.976 128.069 359.155 130.437C362.205 131.606 375.68 134.257 379.666 134.523C379.666 134.523 380.643 133.733 380.405 130.517C380.405 130.517 366.286 125.349 364.282 122.538C361.296 118.354 366.134 105.447 362.388 101.518C358.642 97.5882 352.334 95.8995 349.244 101.619Z" fill="#EF7B2E"/>
<path d="M363.833 99.9513C358.845 101.237 350.575 96.6287 350.575 96.6287C350.575 96.6287 353.787 94.4764 354.976 89.7447C355.037 89.5059 355.09 89.2628 355.14 89.0113L357.702 88.4705L361.506 91.8745C361.394 93.1653 361.206 94.4483 360.942 95.7169C360.861 96.1412 360.767 96.5954 360.661 97.0797C361.885 97.8352 362.961 98.8085 363.833 99.9513Z" fill="#F49A62"/>
<path d="M345.294 120.571C346.008 130.155 345.068 144.735 345.878 147.254C346.583 149.433 354.55 148.138 357.731 147.41C358.908 147.142 360.334 146.757 361.808 146.303C365.917 145.038 370.401 143.222 370.875 141.877C370.893 141.827 370.908 141.774 370.92 141.721C370.96 141.536 370.956 141.344 370.91 141.16C370.751 140.474 370.133 139.732 370.064 138.035C369.983 136.14 369.995 133.907 369.924 131.508C369.924 131.237 369.915 130.946 369.886 130.673V130.575C369.886 130.523 369.886 130.473 369.886 130.422C369.817 127.753 369.676 124.932 369.514 122.14C369.409 120.387 369.29 118.652 369.153 116.988C368.794 112.695 368.308 108.878 367.672 106.464C366.627 102.531 364.324 99.9638 362.227 98.0827L360.712 96.7859C359.021 97.154 357.019 96.9096 355.209 96.0554C353.251 95.1282 352.574 94.4637 352.233 94.7137C347.703 98.1922 344.45 108.855 345.294 120.571Z" fill="#F3924A"/>
<path d="M361.808 146.303C365.917 145.038 370.401 143.222 370.875 141.877C370.893 141.827 370.908 141.774 370.92 141.722C370.92 141.535 370.92 141.346 370.91 141.16C370.751 140.474 370.134 139.732 370.065 138.035C369.983 136.14 369.996 133.907 369.924 131.508C369.924 131.237 369.915 130.946 369.886 130.673V130.575C369.886 130.523 369.886 130.473 369.886 130.422L353.266 109.315C353.266 109.315 342.1 132.503 361.808 146.303Z" fill="#EF7B2E"/>
<path d="M361.512 91.8801C361.4 93.1709 361.212 94.4539 360.948 95.7225C357.228 94.5227 355.54 91.1721 354.977 89.7503C355.037 89.5115 355.091 89.2684 355.14 89.017L357.703 88.4761L361.512 91.8801Z" fill="#ED8F5A"/>
<path d="M362.012 94.0212C362.012 94.0212 353.899 92.6696 354.82 87.6443C355.741 82.619 355.314 79.059 360.534 79.7081C365.754 80.3571 366.404 82.4589 366.507 84.2108C366.61 85.9627 364.146 94.2417 362.012 94.0212Z" fill="#F49A62"/>
<path d="M393.94 137.034L394.655 137.266L400.746 118.582L400.031 118.35L393.94 137.034Z" fill="#3472B8"/>
<path d="M373.98 136.849L394.647 137.288L394.674 136.054L374.006 135.616L373.98 136.849Z" fill="#3472B8"/>
<path d="M374.412 137.801C374.412 137.801 381.053 139.547 383.544 139.364C386.035 139.182 388.106 137.999 388.418 137.382C388.731 136.765 389.39 135.672 387.694 135.874C385.998 136.077 383.685 136.436 383.609 136.11C383.533 135.785 384.991 135.817 384.991 135.817C384.991 135.817 385.43 135.179 384.877 135.157C384.323 135.134 382.71 134.696 382.11 134.995C381.51 135.294 380.957 136.4 380.519 136.352C380.081 136.304 374.962 134.052 374.962 134.052L374.412 137.801Z" fill="#F49A62"/>
<path d="M350.891 102.698C350.891 102.698 351.675 129.398 357.556 132.431C360.456 133.929 373.557 138.051 377.49 138.753C377.49 138.753 378.548 138.074 378.666 134.853C378.666 134.853 365.205 128.163 363.523 125.148C361.018 120.662 367.254 108.365 363.966 104.049C360.677 99.7335 354.594 97.3592 350.891 102.698Z" fill="#F3924A"/>
<path d="M354.977 89.7489C354.977 89.7489 354.884 88.0237 355.95 87.036C355.95 87.036 355.58 85.308 356.266 85.0228C356.952 84.7376 357.094 86.1903 357.408 85.9627C357.722 85.7351 359.123 84.6519 359.723 83.056C360.323 81.46 365.816 83.3931 366.457 83.6811C367.098 83.9691 369.155 82.9141 369.556 82.0585C369.556 82.0585 368.412 81.1467 367.898 80.4625C367.384 79.7783 363.783 75.1619 358.754 76.4726C353.724 77.7834 353.037 80.1773 353.323 82.2327C353.609 84.2881 352.917 89.0605 354.977 89.7489Z" fill="#0C478D"/>
<path d="M346.943 147.684L331.224 138.242C330.586 137.85 330.069 137.291 329.73 136.625C329.391 135.959 329.243 135.213 329.302 134.468C329.463 132.531 329.543 130.574 329.542 128.597C329.554 124.993 329.28 121.394 328.722 117.833C328.589 117.039 328.7 116.223 329.039 115.493C329.378 114.763 329.931 114.151 330.624 113.739L347.042 103.851C347.894 103.342 348.522 102.53 348.8 101.579C349.079 100.628 348.987 99.6072 348.543 98.7206L340.816 83.0293C340.392 82.1749 339.669 81.5055 338.782 81.1486C337.896 80.7916 336.909 80.772 336.009 81.0933L319.41 87.1035C317.808 87.723 315.986 87.1836 314.902 85.7857C310.311 79.8728 304.81 74.7231 298.602 70.5285C297.87 70.0236 297.326 69.2917 297.055 68.4467C296.783 67.6017 296.799 66.6909 297.1 65.8559L300.784 55.7926C301.115 54.8599 301.095 53.8388 300.726 52.92C300.358 52.0012 299.667 51.2475 298.782 50.7996L283.145 43.171C282.834 43.0105 282.502 42.8964 282.158 42.8325C281.359 42.6671 280.528 42.7552 279.781 43.0845C279.034 43.4137 278.409 43.9676 277.994 44.6686L270.905 56.3714L269.182 59.2262C265.906 58.7595 262.601 58.5247 259.291 58.5237C254.871 58.5206 250.459 58.9284 246.115 59.7418C245.326 59.8961 244.509 59.8044 243.774 59.4792C243.04 59.1539 242.423 58.6108 242.009 57.9238L234.04 44.7178C233.515 43.8499 232.683 43.2103 231.707 42.9256C230.732 42.6409 229.685 42.732 228.774 43.1809L216.739 49.0702L213.294 50.7687C212.384 51.2115 211.669 51.9743 211.289 52.9105C210.908 53.8467 210.888 54.8902 211.232 55.8404L216.258 69.6786C216.555 70.4493 216.598 71.294 216.382 72.0908C216.166 72.8877 215.702 73.5955 215.057 74.1124C211.153 77.2786 207.602 80.8535 204.464 84.7756C204.18 85.0896 203.913 85.4178 203.662 85.759C203.579 85.8743 203.485 85.9811 203.381 86.0779C202.839 86.6516 202.139 87.0526 201.369 87.2303C200.599 87.4081 199.794 87.3547 199.054 87.0768L182.654 81.1453C182.472 81.0735 182.284 81.0203 182.091 80.9866C181.218 80.814 180.313 80.9314 179.514 81.321C178.715 81.7105 178.066 82.3505 177.666 83.1431L170.016 98.6784C169.571 99.5848 169.482 100.625 169.767 101.593C170.053 102.561 170.691 103.388 171.557 103.91L187.959 113.756C188.639 114.159 189.182 114.758 189.514 115.474C189.846 116.191 189.953 116.991 189.82 117.77C189.272 121.35 188.998 124.966 189 128.587C189 130.545 189.079 132.482 189.239 134.398C189.301 135.16 189.148 135.925 188.798 136.606C188.448 137.287 187.914 137.857 187.257 138.251L171.479 147.757C170.636 148.266 170.014 149.07 169.736 150.013C169.459 150.955 169.544 151.967 169.977 152.85L177.646 168.365C178.092 169.277 178.861 169.992 179.804 170.371C180.747 170.751 181.797 170.769 182.753 170.422L195.889 165.669C196.738 165.359 197.667 165.342 198.528 165.621C199.388 165.899 200.13 166.458 200.635 167.206C204.666 173.293 209.62 178.718 215.32 183.29C215.986 183.813 216.469 184.534 216.699 185.348C216.93 186.162 216.896 187.028 216.602 187.822L211.235 202.559C210.89 203.515 210.91 204.564 211.29 205.507C211.671 206.449 212.385 207.22 213.297 207.672L228.816 215.279C229.711 215.72 230.739 215.808 231.696 215.527C232.654 215.246 233.47 214.616 233.982 213.762L234.405 213.083L242.635 199.484C243.061 198.776 243.695 198.214 244.45 197.875C245.206 197.536 246.047 197.436 246.861 197.587H246.881C250.979 198.319 255.134 198.687 259.297 198.686C261.559 198.686 263.782 198.566 266.005 198.366C266.758 198.287 267.517 198.424 268.194 198.76C268.871 199.096 269.438 199.618 269.829 200.264L277.919 213.662C278.45 214.547 279.296 215.2 280.287 215.493C281.279 215.785 282.345 215.695 283.273 215.24L298.77 207.632C299.193 207.414 299.578 207.129 299.912 206.789C300.426 206.243 300.78 205.567 300.935 204.835C301.09 204.102 301.041 203.342 300.792 202.635L296.748 191.593C296.514 190.929 296.456 190.216 296.58 189.523C296.703 188.83 297.004 188.181 297.452 187.638C297.7 187.35 297.984 187.095 298.298 186.879C306.102 181.687 312.788 174.993 317.963 167.19C318.451 166.445 319.179 165.888 320.026 165.609C320.873 165.329 321.79 165.345 322.627 165.653L335.904 170.464C336.835 170.801 337.859 170.784 338.779 170.415C339.698 170.047 340.45 169.354 340.889 168.468L341.071 168.108L348.538 152.972C348.982 152.051 349.064 150.998 348.769 150.019C348.474 149.041 347.823 148.208 346.943 147.684ZM222.851 117.83C223.65 115.016 224.709 112.282 226.015 109.663C228.619 104.451 235.046 98.0027 240.294 95.4247C240.857 95.1437 241.421 94.8852 241.976 94.6267C276.298 79.2501 309.397 112.858 292.757 147.105C290.575 151.578 285.748 156.83 281.043 160.085C280.023 160.789 278.952 161.416 277.839 161.962C273.049 164.279 268.288 165.637 263.641 166.155C237.169 169.092 215.382 144.829 222.851 117.83Z" fill="#A6CBED"/>
<path d="M348.511 200.533L345.002 198.426C344.861 198.338 344.747 198.212 344.672 198.064C344.597 197.915 344.565 197.749 344.58 197.583C344.615 197.15 344.633 196.713 344.633 196.272C344.636 195.468 344.575 194.664 344.45 193.87C344.42 193.693 344.445 193.511 344.52 193.348C344.596 193.185 344.718 193.049 344.873 192.957L348.535 190.75C348.726 190.636 348.867 190.455 348.929 190.243C348.991 190.03 348.97 189.802 348.871 189.605L347.146 186.102C347.052 185.911 346.89 185.761 346.692 185.682C346.494 185.602 346.274 185.597 346.073 185.669L342.369 187.011C342.192 187.077 341.999 187.084 341.817 187.031C341.636 186.978 341.477 186.868 341.363 186.717C340.339 185.398 339.111 184.248 337.726 183.312C337.562 183.199 337.441 183.036 337.38 182.848C337.32 182.659 337.323 182.456 337.39 182.27L338.213 180.022C338.287 179.813 338.282 179.586 338.2 179.38C338.117 179.175 337.963 179.007 337.765 178.908L334.276 177.205C334.207 177.169 334.133 177.143 334.056 177.129C333.877 177.092 333.692 177.112 333.525 177.186C333.358 177.259 333.219 177.383 333.126 177.539L331.545 180.152L331.161 180.789C329.45 180.547 327.71 180.587 326.012 180.905C325.836 180.94 325.653 180.92 325.489 180.847C325.325 180.775 325.188 180.653 325.096 180.499L323.317 177.549C323.2 177.356 323.014 177.213 322.796 177.149C322.579 177.086 322.345 177.106 322.142 177.206L319.455 178.521L318.687 178.901C318.486 178.999 318.328 179.168 318.243 179.375C318.158 179.582 318.152 179.813 318.227 180.025L319.354 183.115C319.419 183.286 319.428 183.474 319.379 183.65C319.331 183.827 319.229 183.984 319.086 184.099C318.215 184.805 317.422 185.603 316.722 186.479C316.659 186.548 316.599 186.621 316.543 186.696C316.524 186.722 316.504 186.746 316.481 186.768C316.36 186.896 316.204 186.986 316.032 187.025C315.86 187.065 315.68 187.053 315.515 186.991L311.852 185.668C311.811 185.652 311.769 185.64 311.727 185.632C311.532 185.594 311.33 185.62 311.152 185.707C310.974 185.794 310.83 185.937 310.74 186.113L309.033 189.581C308.934 189.783 308.914 190.015 308.978 190.231C309.042 190.447 309.185 190.632 309.378 190.748L313.041 192.945C313.194 193.034 313.317 193.168 313.392 193.328C313.468 193.488 313.493 193.667 313.464 193.842C313.341 194.641 313.28 195.448 313.28 196.257C313.28 196.694 313.297 197.125 313.334 197.553C313.347 197.724 313.313 197.894 313.235 198.046C313.157 198.198 313.038 198.325 312.892 198.413L309.37 200.535C309.181 200.648 309.042 200.827 308.98 201.038C308.918 201.248 308.938 201.474 309.034 201.671L310.746 205.134C310.846 205.338 311.017 205.497 311.228 205.582C311.438 205.666 311.672 205.671 311.886 205.594L314.817 204.533C315.007 204.464 315.215 204.46 315.407 204.522C315.599 204.584 315.764 204.709 315.877 204.876C316.776 206.233 317.881 207.444 319.152 208.464C319.3 208.581 319.407 208.742 319.458 208.924C319.508 209.106 319.5 209.299 319.434 209.475L318.237 212.764C318.16 212.978 318.165 213.212 318.25 213.422C318.334 213.632 318.494 213.804 318.697 213.905L322.16 215.604C322.36 215.702 322.59 215.722 322.803 215.659C323.017 215.596 323.199 215.456 323.314 215.265L323.407 215.113L325.238 212.077C325.334 211.919 325.475 211.795 325.644 211.719C325.813 211.644 326 211.622 326.182 211.656C327.097 211.819 328.024 211.901 328.953 211.9C329.458 211.9 329.953 211.875 330.449 211.83C330.617 211.812 330.786 211.842 330.938 211.917C331.089 211.992 331.216 212.108 331.303 212.251L333.109 215.242C333.228 215.44 333.416 215.585 333.637 215.65C333.858 215.715 334.096 215.695 334.302 215.594L337.761 213.897C337.856 213.848 337.942 213.784 338.016 213.708C338.131 213.587 338.21 213.436 338.244 213.273C338.279 213.11 338.268 212.94 338.213 212.783L337.31 210.317C337.258 210.169 337.245 210.01 337.272 209.855C337.3 209.701 337.367 209.556 337.467 209.435C337.521 209.371 337.584 209.314 337.654 209.266C339.395 208.107 340.887 206.613 342.042 204.872C342.137 204.727 342.273 204.614 342.432 204.546C342.591 204.478 342.766 204.458 342.937 204.488C342.985 204.497 343.032 204.511 343.078 204.529L346.036 205.602C346.244 205.677 346.473 205.673 346.678 205.591C346.883 205.509 347.051 205.354 347.149 205.157L347.19 205.077L348.857 201.698C348.952 201.495 348.97 201.265 348.906 201.05C348.843 200.835 348.702 200.651 348.511 200.533ZM320.816 193.875C320.993 193.246 321.229 192.635 321.52 192.049C322.102 190.886 323.536 189.446 324.707 188.871C324.833 188.808 324.958 188.75 325.083 188.693C332.743 185.261 340.129 192.767 336.416 200.405C335.93 201.403 334.852 202.576 333.802 203.301C333.575 203.459 333.335 203.6 333.087 203.722C332.092 204.212 331.02 204.528 329.918 204.658C324.011 205.31 319.148 199.895 320.816 193.875Z" fill="#F3924A"/>
<path d="M463.583 135.291L458.325 132.132C458.111 132.001 457.938 131.813 457.825 131.59C457.711 131.367 457.662 131.117 457.683 130.867C457.736 130.22 457.763 129.564 457.763 128.9C457.765 127.695 457.67 126.491 457.481 125.3C457.437 125.034 457.474 124.762 457.587 124.518C457.7 124.274 457.885 124.069 458.116 123.931L463.611 120.624C463.896 120.454 464.106 120.183 464.199 119.865C464.293 119.547 464.262 119.205 464.114 118.909L461.533 113.656C461.391 113.37 461.149 113.146 460.853 113.026C460.556 112.907 460.226 112.9 459.925 113.008L454.373 115.019C454.108 115.117 453.818 115.128 453.546 115.048C453.274 114.969 453.036 114.804 452.866 114.578C451.331 112.6 449.491 110.877 447.414 109.475C447.17 109.305 446.988 109.061 446.897 108.778C446.807 108.495 446.812 108.191 446.912 107.911L448.145 104.54C448.256 104.227 448.249 103.886 448.126 103.578C448.002 103.271 447.771 103.019 447.474 102.869L442.244 100.318C442.14 100.265 442.03 100.226 441.915 100.204C441.648 100.149 441.37 100.179 441.12 100.29C440.87 100.4 440.661 100.585 440.522 100.819L438.151 104.733L437.576 105.689C436.48 105.532 435.374 105.454 434.267 105.454C432.789 105.453 431.313 105.59 429.86 105.862C429.597 105.914 429.323 105.883 429.077 105.775C428.832 105.666 428.625 105.484 428.487 105.255L425.821 100.839C425.646 100.549 425.367 100.335 425.041 100.24C424.714 100.145 424.364 100.175 424.059 100.325L420.034 102.292L418.882 102.854C418.577 103.002 418.339 103.257 418.211 103.57C418.084 103.883 418.078 104.232 418.193 104.549L419.874 109.186C419.973 109.443 419.987 109.726 419.915 109.992C419.843 110.258 419.688 110.495 419.472 110.668C418.167 111.727 416.979 112.923 415.929 114.235C415.834 114.339 415.744 114.448 415.661 114.562C415.634 114.601 415.602 114.637 415.567 114.669C415.386 114.861 415.152 114.995 414.894 115.055C414.637 115.114 414.367 115.096 414.12 115.003L408.634 113.019C408.574 112.995 408.511 112.977 408.447 112.966C408.155 112.908 407.852 112.947 407.585 113.077C407.318 113.208 407.101 113.422 406.968 113.687L404.408 118.885C404.259 119.188 404.23 119.536 404.326 119.86C404.422 120.184 404.635 120.461 404.925 120.635L410.409 123.929C410.637 124.063 410.819 124.263 410.93 124.503C411.041 124.742 411.077 125.01 411.033 125.27C410.847 126.468 410.753 127.678 410.752 128.891C410.752 129.546 410.779 130.194 410.833 130.834C410.854 131.089 410.802 131.345 410.685 131.572C410.568 131.8 410.39 131.991 410.17 132.123L404.892 135.303C404.61 135.472 404.402 135.741 404.308 136.056C404.215 136.372 404.244 136.71 404.39 137.005L406.955 142.195C407.104 142.5 407.361 142.739 407.676 142.866C407.991 142.993 408.343 142.999 408.662 142.883L413.056 141.294C413.341 141.19 413.652 141.184 413.939 141.278C414.227 141.371 414.476 141.558 414.644 141.809C415.992 143.843 417.648 145.657 419.554 147.185C419.775 147.361 419.935 147.603 420.011 147.875C420.087 148.147 420.075 148.436 419.976 148.701L418.182 153.631C418.067 153.95 418.073 154.301 418.2 154.616C418.327 154.931 418.566 155.189 418.87 155.341L424.062 157.885C424.361 158.032 424.705 158.062 425.025 157.968C425.346 157.874 425.619 157.663 425.79 157.378L425.931 157.15L428.684 152.601C428.827 152.365 429.038 152.178 429.289 152.065C429.541 151.952 429.821 151.918 430.093 151.967H430.1C431.471 152.212 432.86 152.334 434.253 152.334C435.01 152.334 435.753 152.295 436.497 152.227C436.749 152.201 437.003 152.247 437.229 152.359C437.456 152.472 437.646 152.646 437.776 152.862L440.481 157.344C440.659 157.639 440.942 157.857 441.273 157.955C441.604 158.053 441.96 158.023 442.27 157.872L447.453 155.326C447.595 155.254 447.725 155.159 447.837 155.046C448.008 154.863 448.126 154.637 448.178 154.392C448.23 154.147 448.214 153.892 448.131 153.656L446.777 149.963C446.699 149.74 446.679 149.502 446.721 149.27C446.762 149.038 446.862 148.821 447.012 148.639C447.095 148.543 447.19 148.458 447.294 148.386C449.904 146.649 452.14 144.41 453.872 141.8C454.014 141.584 454.217 141.415 454.455 141.312C454.693 141.21 454.956 141.18 455.212 141.226C455.287 141.24 455.361 141.26 455.433 141.286L459.873 142.896C460.185 143.008 460.527 143.002 460.835 142.879C461.143 142.756 461.394 142.524 461.541 142.227L461.6 142.108L464.1 137.05C464.247 136.745 464.276 136.397 464.18 136.072C464.085 135.747 463.872 135.469 463.583 135.291ZM422.077 125.305C422.344 124.364 422.698 123.45 423.135 122.574C424.005 120.831 426.155 118.673 427.911 117.812C428.098 117.719 428.285 117.632 428.474 117.545C439.954 112.401 451.026 123.643 445.46 135.097C444.73 136.594 443.116 138.351 441.542 139.439C441.201 139.674 440.843 139.884 440.47 140.067C438.98 140.802 437.374 141.277 435.722 141.471C426.865 142.456 419.579 134.333 422.077 125.302V125.305Z" fill="#E9F3FA"/>
<path d="M215.294 36.8602L209.725 34.2794C209.499 34.1721 209.307 34.0046 209.17 33.7954C209.033 33.5862 208.956 33.3434 208.949 33.0937C208.932 32.4437 208.888 31.7881 208.816 31.1268C208.69 29.9283 208.469 28.7416 208.154 27.5781C208.082 27.3187 208.089 27.0436 208.176 26.7885C208.262 26.5334 208.423 26.3101 208.639 26.1479L213.742 22.2704C214.007 22.0707 214.187 21.7783 214.245 21.4517C214.304 21.1252 214.236 20.7888 214.056 20.51L210.918 15.569C210.747 15.3002 210.482 15.1037 210.174 15.0167C209.867 14.9297 209.538 14.9582 209.25 15.097L203.948 17.7017C203.694 17.8289 203.405 17.8704 203.126 17.8197C202.846 17.769 202.591 17.6289 202.398 17.4207C200.658 15.6198 198.642 14.1053 196.426 12.9335C196.164 12.7919 195.957 12.568 195.836 12.2967C195.715 12.0253 195.687 11.7217 195.757 11.433L196.619 7.95451C196.696 7.63265 196.652 7.294 196.497 7.00185C196.341 6.70969 196.084 6.484 195.774 6.36697L190.298 4.39169C190.189 4.35049 190.075 4.32448 189.958 4.31442C189.686 4.28817 189.413 4.34749 189.177 4.48405C188.94 4.6206 188.752 4.82756 188.64 5.07588L186.705 9.22172L186.236 10.2332C185.13 10.1958 184.023 10.2366 182.923 10.3555C181.452 10.514 180 10.8084 178.584 11.2349C178.327 11.3146 178.052 11.3135 177.797 11.2318C177.541 11.1501 177.316 10.9917 177.154 10.7783L174.026 6.67465C173.821 6.405 173.521 6.22227 173.186 6.16268C172.852 6.1031 172.507 6.171 172.22 6.35292L168.431 8.74124L167.347 9.42824C167.06 9.6084 166.85 9.8879 166.758 10.2131C166.665 10.5382 166.696 10.8862 166.844 11.19L169.017 15.6112C169.143 15.8569 169.188 16.1361 169.145 16.4087C169.102 16.6813 168.973 16.9333 168.777 17.1285C167.593 18.3234 166.541 19.6422 165.64 21.0622C165.557 21.1761 165.48 21.2942 165.409 21.4162C165.385 21.4573 165.358 21.4964 165.327 21.5328C165.167 21.7441 164.948 21.9033 164.697 21.9901C164.446 22.0769 164.175 22.0874 163.918 22.0203L158.251 20.6379C158.188 20.62 158.123 20.6087 158.058 20.6042C157.761 20.5783 157.465 20.6501 157.213 20.8084C156.961 20.9667 156.769 21.2029 156.665 21.4808L154.682 26.922C154.567 27.2399 154.575 27.5894 154.706 27.9015C154.836 28.2136 155.079 28.4656 155.387 28.6079L161.197 31.2912C161.437 31.4005 161.639 31.5798 161.775 31.8054C161.911 32.0311 161.976 32.2926 161.96 32.5556C161.908 33.766 161.948 34.9786 162.079 36.1831C162.151 36.8387 162.248 37.4802 162.369 38.1078C162.417 38.3592 162.393 38.6189 162.301 38.8578C162.21 39.0968 162.053 39.3055 161.849 39.4607L156.946 43.1879C156.684 43.3869 156.506 43.6769 156.447 44.0005C156.389 44.324 156.454 44.6577 156.631 44.9355L159.741 49.819C159.922 50.1062 160.204 50.3163 160.531 50.4087C160.858 50.5011 161.208 50.4691 161.514 50.3191L165.71 48.2666C165.982 48.1331 166.29 48.0942 166.586 48.1561C166.883 48.218 167.15 48.3771 167.345 48.6079C168.905 50.4854 170.747 52.1105 172.806 53.4253C173.047 53.5757 173.233 53.7981 173.339 54.0605C173.444 54.323 173.464 54.6121 173.395 54.8864L172.144 59.9805C172.064 60.3108 172.109 60.6589 172.269 60.9586C172.43 61.2583 172.695 61.4887 173.015 61.606L178.45 63.5729C178.764 63.687 179.109 63.6793 179.417 63.5512C179.725 63.4232 179.974 63.1841 180.114 62.8817L180.229 62.6414L182.474 57.8226C182.59 57.5719 182.78 57.3626 183.019 57.2227C183.258 57.0829 183.534 57.0192 183.81 57.0401C185.199 57.1361 186.594 57.1089 187.978 56.9586C188.73 56.8772 189.465 56.7577 190.196 56.6116C190.444 56.558 190.702 56.5759 190.939 56.6632C191.177 56.7506 191.384 56.9037 191.538 57.1047L194.712 61.2688C194.92 61.5424 195.224 61.7283 195.563 61.7899C195.901 61.8516 196.251 61.7844 196.543 61.6018L201.422 58.511C201.554 58.4239 201.672 58.3163 201.771 58.1921C201.922 57.9918 202.014 57.7542 202.039 57.5051C202.064 57.2559 202.02 57.0048 201.912 56.7788L200.168 53.2525C200.066 53.0402 200.021 52.8054 200.037 52.5706C200.052 52.3358 200.129 52.1091 200.258 51.9123C200.329 51.808 200.414 51.7135 200.51 51.6313C202.917 49.6237 204.898 47.1573 206.337 44.3764C206.455 44.1468 206.638 43.9567 206.864 43.8296C207.089 43.7026 207.347 43.644 207.605 43.6613C207.681 43.6674 207.757 43.6796 207.832 43.6978L212.42 44.8218C212.742 44.9001 213.082 44.8574 213.374 44.7019C213.667 44.5465 213.892 44.2891 214.006 43.9788L214.053 43.8524L215.99 38.5517C216.103 38.2338 216.094 37.8855 215.966 37.5734C215.838 37.2614 215.598 37.0074 215.294 36.8602ZM172.95 31.3952C173.113 30.4305 173.366 29.4832 173.707 28.5657C174.384 26.7393 176.289 24.3623 177.933 23.317C178.109 23.2046 178.287 23.0979 178.463 22.9911C189.32 16.6438 201.541 26.6298 197.247 38.6163C196.684 40.1828 195.268 42.1019 193.821 43.3536C193.508 43.6242 193.174 43.8713 192.824 44.0926C191.421 44.9828 189.875 45.6271 188.254 45.9977C179.564 47.9266 171.443 40.6408 172.95 31.3952Z" fill="#E9F3FA"/>
<path d="M249.131 193.235C249.28 193.398 249.378 193.6 249.414 193.818C249.451 194.036 249.423 194.259 249.335 194.461C249.038 195.279 248.058 196.192 246.919 197.104C246.778 197.222 246.638 197.329 246.532 197.427L246.445 197.504L246.377 197.565C245.315 198.548 245.715 198.764 243.807 200.747C241.631 203.004 240.133 203.044 239.706 202.839C239.346 202.663 240.078 201.466 240.89 200.12L241.008 199.923C241.117 199.745 241.224 199.564 241.332 199.384C242.283 197.764 242.036 197.004 241.812 194.593C241.629 192.635 238.757 183.651 238.757 183.651L242.927 182.934C242.927 182.934 244.182 190.088 245.565 191.191C246.305 191.778 247.133 191.785 247.845 192.22C247.896 192.25 247.945 192.281 247.993 192.313C248.412 192.568 248.795 192.878 249.131 193.235Z" fill="#F49A62"/>
<path d="M249.131 193.235C249.28 193.398 249.379 193.6 249.415 193.818C249.451 194.036 249.424 194.259 249.336 194.461C248.972 195.278 248.016 196.186 246.915 197.095C246.775 197.215 246.645 197.324 246.532 197.427L246.445 197.504L246.377 197.565C245.315 198.548 245.715 198.764 243.808 200.747C241.631 203.004 240.134 203.044 239.707 202.839C239.346 202.663 240.079 201.466 240.89 200.12C242.413 199.528 243.752 198.545 244.77 197.27C246.079 195.603 246.954 193.461 247.845 192.22C247.896 192.25 247.945 192.281 247.993 192.313C248.412 192.568 248.795 192.878 249.131 193.235Z" fill="#E45345"/>
<path d="M215.516 190.644C215.258 191.928 213.422 191.715 211.373 191.215C209.323 190.714 209.81 191.309 206.894 190.987C203.978 190.665 203.09 189.582 203.003 189.148C202.924 188.764 204.365 188.628 205.912 188.446L206.497 188.375C208.242 188.157 209.52 187.034 211.106 186.112C212.608 185.238 214.85 181.678 214.85 181.678L218.851 181.994C218.851 181.994 216.75 185.173 215.939 186.556C215.461 187.369 215.486 188.444 215.546 189.274C215.597 189.73 215.587 190.191 215.516 190.644Z" fill="#F49A62"/>
<path d="M211.376 191.206C209.327 190.707 209.813 191.3 206.897 190.979C203.981 190.657 203.093 189.574 203.006 189.14C202.927 188.756 204.368 188.62 205.915 188.437L205.929 188.467C207.179 189.266 208.622 189.714 210.106 189.762C212.086 189.81 214.182 189.244 215.548 189.266C215.599 189.72 215.589 190.179 215.519 190.63C215.258 191.921 213.423 191.708 211.376 191.206Z" fill="#E45345"/>
<path d="M224.417 132.04C224.417 132.04 223.464 129.713 222.415 129.617C221.365 129.521 218.03 128.999 217.792 129.476C217.554 129.954 217.792 131.662 218.507 132.286C219.221 132.91 223.654 133.903 223.654 133.903L224.417 132.04Z" fill="#F49A62"/>
<path d="M230.847 165.127L239.468 188.267C240.341 188.332 241.218 188.252 242.063 188.03C243.231 187.694 244.571 186.812 244.571 186.812C244.571 186.812 242.433 164.595 238.513 159.978C234.594 155.362 230.847 165.127 230.847 165.127Z" fill="#C5403C"/>
<path d="M264.949 155.766C264.949 155.766 240.174 147.413 234.649 149.19C229.124 150.967 212.531 183.882 212.531 183.882C212.531 183.882 212.906 184.38 213.927 184.762C214.878 185.117 217.179 185.093 217.179 185.093C217.179 185.093 232.151 172.296 233.934 168.563C235.716 164.831 236.429 161.276 238.211 161.632C239.993 161.987 261.203 170.342 266.016 165.365C270.828 160.387 269.57 153.922 269.57 153.922L264.949 155.766Z" fill="#E45345"/>
<path d="M249.809 116.903C249.414 116.088 248.97 114.642 248.755 112.063C248.787 112.319 249.234 115.575 250.488 117.413C255.641 120.784 265.517 132.05 265.321 134.184C265.321 134.184 268.799 128.301 268.86 128.266C268.86 128.266 275.275 120.128 267.671 115.468C263.805 113.098 263.825 110.058 263.987 107.417C264.149 104.776 262.937 93.4073 255.189 96.3758C255.189 96.3758 253.946 95.8265 253.39 95.908C253.39 95.908 253.843 95.9951 254.074 96.2325C253.177 96.1805 251.894 96.2466 250.823 96.8535C247.986 98.4677 245.446 112.899 249.809 116.903Z" fill="#D24439"/>
<path d="M250.794 117.581C250.767 117.592 253.282 118.893 255.173 118.378C256.951 117.895 258.113 115.595 258.087 115.589C257.335 115.44 257.118 114.409 257.134 109.969L256.793 110.036L251.069 111.159C251.069 111.159 251.198 112.956 251.203 114.649C251.207 116.081 251.12 117.428 250.794 117.581Z" fill="#F49A62"/>
<path d="M251.068 111.171C251.068 111.171 251.198 112.968 251.202 114.66C254.406 114.571 256.099 111.655 256.792 110.04L251.068 111.171Z" fill="#ED8F5A"/>
<path d="M257.384 109.419C257.384 109.419 259.063 106.773 259.466 104.512C259.748 102.897 258.928 96.9111 252.897 97.7681C251.681 97.9366 250.52 98.3749 249.497 99.0507C248.188 99.9316 246.298 101.837 248.411 107.059L248.96 108.823L257.384 109.419Z" fill="#D24439"/>
<path d="M249.998 112.774C249.998 112.774 257.577 112.897 257.583 108.19C257.589 103.482 258.569 100.322 253.731 100.041C248.894 99.7602 247.955 101.558 247.565 103.132C247.175 104.705 248.027 112.619 249.998 112.774Z" fill="#F49A62"/>
<path d="M250.278 99.933C250.278 99.933 252.355 105.457 255.539 106.273C258.723 107.089 260.105 106.24 260.105 106.24C260.105 106.24 257.663 104.304 257.156 100.925C257.162 100.925 251.845 97.303 250.278 99.933Z" fill="#D24439"/>
<path d="M250.792 100.381C250.792 100.381 249.242 101.615 248.865 102.813C248.487 104.011 248.317 106.48 247.597 106.397C247.597 106.397 246.033 102.642 247.791 100.517C249.652 98.2667 250.792 100.381 250.792 100.381Z" fill="#D24439"/>
<path d="M267.671 137.916C268.419 134.79 265.876 128.723 263.221 123.701C260.812 119.149 258.312 115.457 258.087 115.589C251.735 119.35 251.161 116.224 251.161 116.224C251.161 116.224 245.385 116.988 243.757 119.793C241.503 123.671 239.036 135.311 236.617 135.138C235.507 135.06 224.338 130.873 224.338 130.873C224.338 130.873 222.477 132.611 222.833 134.745C222.833 134.745 228.349 138.427 233.012 140.777C235.479 142.021 237.709 142.885 238.756 142.643C240.881 142.144 244.199 137.233 245.992 134.342L246.005 134.322C248.294 147.247 245.182 150.185 246.757 151.546C248.421 152.985 250.798 150.862 256.026 153.121C259.455 154.604 264.214 156.75 267.419 157.123C269.098 157.32 270.352 157.028 270.76 155.897C271.954 152.608 266.245 143.875 267.671 137.916Z" fill="#579AD3"/>
<path d="M251.683 109.919C251.683 109.919 251.542 110.517 250.05 110.425C250.05 110.425 248.798 110.347 248.836 109.69C248.836 109.69 250.05 109.224 251.683 109.919Z" fill="white"/>
<path d="M270.76 155.897C270.351 157.021 269.098 157.32 267.418 157.123C265.2 156.16 255.621 152.459 255.725 149.951C255.885 146.238 257.567 146.12 256.379 141.538C255.425 137.858 264.275 131.018 265.687 129.53C268.343 134.552 268.416 134.79 267.668 137.916C266.245 143.875 271.953 152.608 270.76 155.897Z" fill="#3472B8"/>
<path d="M245.992 134.342C244.199 137.233 240.881 142.144 238.755 142.643C237.709 142.89 235.479 142.021 233.012 140.777C234.812 141.24 236.562 141.227 238.261 141.058C240.102 140.88 240.637 138.629 243.548 135.252C245.437 133.067 245.901 133.618 245.992 134.342Z" fill="#3472B8"/>
<path d="M254.868 141.449C254.868 141.449 253.263 140.204 251.748 140.501C250.232 140.797 249.494 141.834 249.55 142.309C249.606 142.784 250.411 144.115 251.57 144.233C252.73 144.352 256.026 143.523 256.026 143.523L254.868 141.449Z" fill="#F49A62"/>
<path d="M258.087 115.589C258.087 115.589 264.266 115.97 266.399 118.944C269.409 123.131 274.639 140.225 273.211 144.135L254.417 144.056C254.417 144.056 253.962 141.932 254.596 140.907C255.23 139.881 265.528 138.219 266.007 137.746C266.486 137.272 260.066 128.503 260.066 127.081C260.066 125.659 258.087 115.589 258.087 115.589Z" fill="#579AD3"/>
<path d="M249.118 135.554H226.399L230.5 149.818H253.255L249.118 135.554Z" fill="#094787"/>
<path d="M260.324 149.263H230.577V149.819H260.324V149.263Z" fill="#19355A"/>
<path d="M239.552 142.456C239.472 142.204 239.317 141.982 239.107 141.82C238.898 141.658 238.644 141.563 238.38 141.549C237.877 141.549 237.586 141.955 237.73 142.456C237.81 142.709 237.965 142.931 238.174 143.093C238.383 143.255 238.637 143.35 238.902 143.365C239.401 143.362 239.693 142.955 239.552 142.456Z" fill="#19355A"/>
<path d="M162.823 173.622H126.982C125.726 173.622 124.707 174.638 124.707 175.891V181.938C124.707 183.191 125.726 184.207 126.982 184.207H162.823C164.08 184.207 165.098 183.191 165.098 181.938V175.891C165.098 174.638 164.08 173.622 162.823 173.622Z" fill="#F3924A"/>
<path d="M165.1 180.837V181.934C165.098 182.535 164.857 183.112 164.431 183.537C164.004 183.962 163.426 184.201 162.823 184.203H126.989C126.385 184.203 125.806 183.964 125.378 183.539C124.95 183.113 124.709 182.536 124.707 181.934V180.743H164.447C164.668 180.744 164.888 180.775 165.1 180.837Z" fill="#EF7B2E"/>
<path d="M133.336 184.206L131.72 190.308L124.993 215.707H124.289L128.177 194.634C128.177 194.614 128.186 194.593 128.19 194.571L130.113 184.148L133.336 184.206Z" fill="#F4C7A6"/>
<path d="M133.336 184.206L131.72 190.308C131.627 190.353 128.685 191.869 128.187 194.571L130.11 184.148L133.336 184.206Z" fill="#D49E7A"/>
<path d="M165.1 215.71H164.396L158.914 195.019L157.669 190.314L156.053 184.211L159.28 184.156L160.381 190.116L161.203 194.579C161.203 194.602 161.213 194.623 161.216 194.642L165.1 215.71Z" fill="#F4C7A6"/>
<path d="M154.179 192.198C154.179 192.198 154.17 192.198 154.168 192.198C154.165 192.198 154.152 192.17 154.179 192.198Z" fill="#F4C7A6"/>
<path d="M160.378 190.11C159.782 190.974 158.961 192.598 158.913 195.016L157.668 190.311L156.052 184.208L159.279 184.154L160.378 190.11Z" fill="#D49E7A"/>
<path d="M119.79 54.5927C120.623 53.7273 121.188 54.0532 121.188 54.0532C121.188 54.0532 131.024 61.5848 131.964 62.1313C132.903 62.6779 145.695 63.0487 145.695 63.0487C145.695 63.0487 150.819 62.9912 152.063 65.6155C153.142 67.8942 152.38 69.8569 151.265 71.2997C150.612 72.1378 149.721 72.7603 148.708 73.0861C147.695 73.4119 146.608 73.4258 145.587 73.1261C140.898 71.7619 131.569 68.976 129.824 67.9111C125.94 65.541 118.924 56.0805 118.924 56.0805C119.094 55.5246 119.39 55.0154 119.79 54.5927Z" fill="#069FAF"/>
<path d="M130.391 47.2761L125.48 44.3258C125.281 44.2036 125.119 44.0289 125.014 43.8209C124.908 43.6128 124.862 43.3796 124.88 43.1471C124.931 42.542 124.956 41.9304 124.955 41.3123C124.959 40.1862 124.874 39.0615 124.699 37.949C124.657 37.701 124.692 37.4463 124.798 37.2182C124.904 36.9902 125.077 36.7993 125.293 36.6705L130.424 33.5797C130.69 33.4203 130.886 33.1665 130.973 32.8691C131.06 32.5717 131.032 32.2526 130.893 31.9753L128.478 27.0723C128.346 26.8054 128.12 26.5963 127.843 26.4847C127.566 26.373 127.258 26.3667 126.977 26.4668L121.789 28.3451C121.542 28.4378 121.27 28.4478 121.016 28.3735C120.762 28.2993 120.539 28.1449 120.381 27.9335C118.947 26.0859 117.228 24.477 115.288 23.1667C115.06 23.0082 114.891 22.7795 114.806 22.5158C114.721 22.2521 114.726 21.9679 114.819 21.707L115.97 18.5628C116.074 18.2713 116.068 17.952 115.952 17.6646C115.837 17.3773 115.621 17.1417 115.344 17.002L110.459 14.6137C110.362 14.5634 110.258 14.5275 110.151 14.5069C109.901 14.4556 109.642 14.4834 109.408 14.5864C109.175 14.6894 108.98 14.8625 108.85 15.0815L106.635 18.7342L106.097 19.6263C105.074 19.4812 104.041 19.4085 103.007 19.4086C101.626 19.4075 100.248 19.5349 98.891 19.7893C98.6451 19.8377 98.3903 19.8098 98.1608 19.7093C97.9313 19.6088 97.7382 19.4406 97.6076 19.2273L95.1182 15.1026C94.9541 14.8316 94.694 14.6319 94.3893 14.5429C94.0846 14.454 93.7576 14.4822 93.4728 14.6221L89.7127 16.4625L88.6364 16.9935C88.3518 17.1318 88.1285 17.3701 88.0094 17.6627C87.8903 17.9552 87.8838 18.2813 87.9912 18.5783L89.562 22.9011C89.6548 23.1418 89.6685 23.4057 89.6012 23.6547C89.5338 23.9037 89.3889 24.1249 89.1873 24.2864C87.9674 25.2754 86.8579 26.3927 85.878 27.6188C85.7893 27.7161 85.7056 27.8178 85.6273 27.9236C85.6016 27.9597 85.5723 27.9931 85.5399 28.0234C85.3707 28.2029 85.1518 28.3283 84.9111 28.3838C84.6704 28.4393 84.4186 28.4224 84.1875 28.3353L79.0637 26.4822C79.0071 26.4606 78.9486 26.4442 78.889 26.433C78.6164 26.3788 78.3334 26.4154 78.0837 26.5373C77.834 26.6591 77.6314 26.8594 77.507 27.1074L75.1121 31.9613C74.9738 32.2445 74.9466 32.5691 75.0357 32.8713C75.1249 33.1735 75.3239 33.4316 75.5939 33.5952L80.7176 36.6705C80.9304 36.7965 81.0999 36.9838 81.2037 37.2078C81.3076 37.4317 81.341 37.6818 81.2995 37.9251C81.1279 39.0441 81.0422 40.1746 81.0431 41.3067C81.0431 41.9183 81.0679 42.5233 81.1177 43.1218C81.1374 43.36 81.0899 43.599 80.9806 43.8117C80.8713 44.0244 80.7046 44.2025 80.4993 44.3258L75.5685 47.2957C75.3049 47.4545 75.1104 47.706 75.0236 48.0006C74.9368 48.2953 74.9638 48.6117 75.0994 48.8875L77.4943 53.7343C77.6334 54.0196 77.8735 54.2433 78.1683 54.3621C78.4632 54.481 78.7917 54.4866 79.0905 54.3778L83.1943 52.8928C83.4597 52.7969 83.7496 52.7921 84.018 52.8792C84.2865 52.9662 84.5182 53.1401 84.6763 53.3733C85.9359 55.2738 87.4833 56.9681 89.2633 58.3958C89.4712 58.5596 89.6219 58.7848 89.6937 59.0391C89.7656 59.2935 89.755 59.564 89.6634 59.8119L87.9856 64.4158C87.8781 64.7146 87.8845 65.0424 88.0034 65.3368C88.1224 65.6313 88.3456 65.872 88.6308 66.0131L93.4798 68.3902C93.7593 68.5278 94.0805 68.5553 94.3795 68.4673C94.6784 68.3793 94.9331 68.1822 95.0929 67.9154L95.2253 67.7032L97.7964 63.4548C97.9294 63.2335 98.1272 63.058 98.3632 62.952C98.5991 62.8461 98.862 62.8146 99.1164 62.8619C100.397 63.091 101.695 63.2062 102.996 63.2062C103.701 63.2062 104.397 63.1682 105.091 63.105C105.326 63.0807 105.564 63.1235 105.775 63.2285C105.987 63.3334 106.165 63.4962 106.287 63.6979L108.814 67.8844C108.98 68.1604 109.244 68.3642 109.553 68.4555C109.862 68.5469 110.194 68.519 110.484 68.3776L115.327 66.0005C115.459 65.9326 115.579 65.8445 115.684 65.7392C115.845 65.5692 115.957 65.3583 116.007 65.1294C116.056 64.9005 116.042 64.6624 115.965 64.441L114.698 60.9906C114.625 60.7834 114.607 60.561 114.645 60.3447C114.683 60.1285 114.776 59.9256 114.916 59.7557C114.993 59.6659 115.082 59.5862 115.179 59.5183C117.618 57.8961 119.706 55.8045 121.323 53.3663C121.457 53.1651 121.646 53.0071 121.868 52.9118C122.091 52.8165 122.336 52.7879 122.574 52.8296C122.644 52.8431 122.714 52.8618 122.781 52.8858L126.929 54.3904C127.22 54.4937 127.539 54.4871 127.826 54.372C128.113 54.2569 128.348 54.0411 128.487 53.7653L128.543 53.6543L130.876 48.924C131.016 48.6384 131.043 48.3113 130.953 48.0065C130.864 47.7017 130.663 47.4413 130.391 47.2761ZM91.6216 37.9475C91.8703 37.0684 92.2004 36.2143 92.6078 35.3963C93.4207 33.768 95.4254 31.7534 97.068 30.9484C97.2441 30.8613 97.4188 30.7798 97.5935 30.6983C108.317 25.895 118.659 36.3951 113.459 47.0948C112.777 48.4997 111.27 50.1322 109.796 51.1493C109.478 51.3696 109.144 51.5659 108.796 51.7366C107.403 52.4227 105.903 52.8656 104.36 53.0459C96.0945 53.9633 89.2887 46.3839 91.6287 37.9475H91.6216Z" fill="#F3924A"/>
<path d="M108.918 57.0598C108.918 57.0598 108.934 53.4394 108.355 52.3857C107.776 51.332 106.467 50.0156 105.719 50.4371C104.971 50.8586 104.741 54.3863 104.971 55.0185C105.201 55.6507 106.901 58.0221 106.901 58.0221L108.918 57.0598Z" fill="#F6AC81"/>
<path d="M153.945 173.621C154.755 172.931 154.27 169.059 154.27 169.059C154.27 169.059 150.1 165.733 149.527 168.28C148.953 170.827 145.567 171.97 143.638 172.282C142.352 172.49 141.924 173.183 141.781 173.621H153.945Z" fill="#203865"/>
<path d="M154.411 169.239C150.551 169.836 149.14 168.92 149.14 168.92C149.19 165.127 148.013 156.581 146.411 146.765C144.298 133.823 141.418 118.678 139.602 109.342C138.558 103.972 137.862 100.524 137.862 100.524L141.017 100.463L156.75 100.152C156.75 100.152 155.574 117.517 155.895 126.093C155.972 128.14 156.136 129.689 156.42 130.378C159.101 136.876 154.411 169.239 154.411 169.239Z" fill="#27488F"/>
<path d="M155.895 126.093C153.757 130.082 148.403 140.349 146.411 146.765C144.298 133.823 141.418 118.678 139.603 109.342C139.693 105.814 140.115 102.73 141.011 100.463L156.745 100.152C156.745 100.152 155.574 117.517 155.895 126.093Z" fill="#203865"/>
<path d="M140.694 173.621C141.503 172.931 141.018 169.059 141.018 169.059C141.018 169.059 136.848 165.733 136.276 168.28C135.704 170.827 132.314 171.97 130.386 172.282C129.1 172.49 128.673 173.183 128.53 173.621H140.694Z" fill="#203865"/>
<path d="M131.023 100.146C131.023 100.146 137.203 157.178 135.979 168.679C135.979 168.679 137.3 169.711 141.198 169.474C141.198 169.474 148.259 136.619 146.763 131.301C145.723 127.605 149.862 101.499 149.862 101.499L131.023 100.146Z" fill="#27488F"/>
<path d="M146.239 59.3624C146.239 59.3624 138.38 63.2764 134.481 61.4922C134.481 61.4922 136.118 59.3765 137.953 58.4998C137.913 57.7974 137.892 57.1722 137.879 56.6158C137.846 54.7614 137.939 53.7175 137.939 53.7175L141.328 51.259L143.627 49.5928C143.504 50.5415 143.473 51.4999 143.534 52.4545C143.839 56.9628 146.239 59.3624 146.239 59.3624Z" fill="#F6AC81"/>
<path d="M143.534 52.4517C143.534 52.4517 141.703 56.096 137.879 56.6158C137.846 54.7613 137.939 53.7175 137.939 53.7175L141.328 51.2589C142.809 51.8138 143.534 52.4517 143.534 52.4517Z" fill="#F3955F"/>
<path d="M137.062 53.4815C137.062 53.4815 144.096 55.9794 145.589 51.5863C147.082 47.1932 148.995 44.5618 144.566 42.7762C140.137 40.9906 138.69 42.3758 137.835 43.7217C136.98 45.0676 135.27 52.7187 137.062 53.4815Z" fill="#F6AC81"/>
<path d="M157.247 100.146C156.147 102.434 131.766 102.332 130.562 100.72C130.072 100.064 129.51 93.5013 129.188 85.8699C129.011 81.644 128.907 77.0879 128.926 73.0291C128.963 66.4065 129.335 61.1044 130.27 60.6998C135.496 58.4393 138.723 57.0021 145.551 57.2086C146.585 57.2374 147.591 57.5477 148.46 58.1059C149.329 58.6641 150.028 59.4489 150.482 60.3753C152.122 63.7597 154.449 69.7571 154.625 76.8392C154.899 87.7538 158.635 97.2636 157.247 100.146Z" fill="#26B6BF"/>
<path d="M136.814 68.5349C136.814 68.5349 136.021 79.9483 129.188 85.8699C129.011 81.644 128.907 77.0879 128.926 73.0292C130.968 70.3079 133.661 68.348 136.814 68.5349Z" fill="#069FAF"/>
<path d="M140.175 57.4517C140.175 57.4517 132.676 57.4981 130.324 59.6771C128.633 61.2393 117.802 69.7558 117.114 69.642C116.425 69.5282 109.45 55.6394 109.45 55.6394C109.45 55.6394 106.011 55.9302 105.438 57.4152C105.438 57.4152 108.678 74.7544 115.679 78.5237C115.679 78.5237 133.372 75.1759 138.621 69.3413C141.325 66.3363 140.175 57.4517 140.175 57.4517Z" fill="#26B6BF"/>
<path d="M137.373 40.2937C137.373 40.2937 137.789 44.4845 139.051 45.6323C140.313 46.7801 139.98 48.3508 140.118 48.5826C140.256 48.8144 141.563 48.1386 141.793 48.525C142.321 49.4115 141.495 50.0577 140.973 50.2713C140.45 50.4848 142.305 54.0842 143.668 54.2162C146.022 54.4452 149.658 47.9532 149.965 46.0496C150.367 43.5615 148.954 39.6798 144.903 39.868C138.541 40.1645 137.245 38.7877 137.373 40.2937Z" fill="#0C478D"/>
<path d="M327.403 21.9445H319.887V68.6375H327.403V21.9445Z" fill="#A6CBED"/>
<path d="M340.054 8.92957H332.538V68.6376H340.054V8.92957Z" fill="#A6CBED"/>
<path d="M353.491 33.2356H345.976V68.6375H353.491V33.2356Z" fill="#A6CBED"/>
<path d="M339.641 0H333.275C333.101 0 332.933 0.0691212 332.81 0.192161C332.686 0.315201 332.617 0.482087 332.617 0.656092C332.617 0.830097 332.686 0.996966 332.81 1.12001C332.933 1.24305 333.101 1.31217 333.275 1.31217H339.641C339.816 1.31217 339.983 1.24305 340.107 1.12001C340.23 0.996966 340.299 0.830097 340.299 0.656092C340.299 0.482087 340.23 0.315201 340.107 0.192161C339.983 0.0691212 339.816 0 339.641 0Z" fill="#A6CBED"/>
<path d="M334.725 3.70185C334.814 3.70596 334.903 3.69201 334.986 3.66086C335.07 3.62971 335.146 3.58199 335.211 3.52059C335.275 3.4592 335.327 3.38542 335.362 3.30369C335.397 3.22195 335.415 3.13397 335.415 3.04507C335.415 2.95617 335.397 2.86819 335.362 2.78646C335.327 2.70472 335.275 2.63092 335.211 2.56953C335.146 2.50814 335.07 2.46042 334.986 2.42926C334.903 2.39811 334.814 2.38417 334.725 2.38828H333.275C333.106 2.39609 332.946 2.4687 332.829 2.59102C332.712 2.71333 332.646 2.87595 332.646 3.04507C332.646 3.21419 332.712 3.37679 332.829 3.49911C332.946 3.62142 333.106 3.69403 333.275 3.70185H334.725Z" fill="#A6CBED"/>
<path d="M352.917 26.2715H346.55C346.376 26.2722 346.209 26.3418 346.086 26.465C345.962 26.5881 345.893 26.755 345.893 26.929C345.893 27.1029 345.962 27.2695 346.086 27.3925C346.209 27.5154 346.376 27.5847 346.55 27.5851H352.917C353.091 27.5847 353.258 27.5154 353.382 27.3925C353.505 27.2695 353.574 27.1029 353.575 26.929C353.574 26.755 353.505 26.5881 353.382 26.465C353.258 26.3418 353.091 26.2722 352.917 26.2715Z" fill="#A6CBED"/>
<path d="M346.551 29.9692H348.002C348.171 29.9614 348.331 29.8888 348.448 29.7665C348.565 29.6442 348.631 29.4816 348.631 29.3124C348.631 29.1433 348.565 28.9807 348.448 28.8584C348.331 28.7361 348.171 28.6635 348.002 28.6556H346.551C346.381 28.6635 346.221 28.7361 346.104 28.8584C345.987 28.9807 345.922 29.1433 345.922 29.3124C345.922 29.4816 345.987 29.6442 346.104 29.7665C346.221 29.8888 346.381 29.9614 346.551 29.9692Z" fill="#A6CBED"/>
</g>
<defs>
<linearGradient id="paint0_linear_158_3587" x1="233.299" y1="44.3933" x2="233.299" y2="216.521" gradientUnits="userSpaceOnUse">
<stop offset="0.543495" stop-color="#F1F1F1"/>
<stop offset="1" stop-color="#F1F1F1" stop-opacity="0"/>
</linearGradient>
<clipPath id="clip0_158_3587">
<rect width="466" height="217" fill="white"/>
</clipPath>
</defs>
</svg>
