<svg width="32" height="33" viewBox="0 0 32 33" fill="none" xmlns="http://www.w3.org/2000/svg">
<path d="M3 16.5C3 19.0712 3.76244 21.5846 5.1909 23.7224C6.61935 25.8602 8.64968 27.5265 11.0251 28.5104C13.4006 29.4944 16.0144 29.7518 18.5362 29.2502C21.0579 28.7486 23.3743 27.5105 25.1924 25.6924C27.0105 23.8743 28.2486 21.5579 28.7502 19.0362C29.2518 16.5144 28.9944 13.9005 28.0104 11.5251C27.0265 9.14967 25.3603 7.11935 23.2224 5.69089C21.0846 4.26243 18.5712 3.49999 16 3.49999C12.5534 3.50398 9.24912 4.8749 6.81201 7.31201C4.3749 9.74911 3.00398 13.0534 3 16.5ZM15.1689 11.2568L20.1689 15.7568C20.2731 15.8506 20.3565 15.9652 20.4135 16.0932C20.4705 16.2212 20.5 16.3598 20.5 16.5C20.5 16.6402 20.4705 16.7787 20.4135 16.9068C20.3565 17.0348 20.2731 17.1494 20.1689 17.2432L15.1689 21.7432C15.0714 21.8311 14.9574 21.8989 14.8336 21.9428C14.7098 21.9867 14.5786 22.0057 14.4474 21.9988C14.3162 21.992 14.1877 21.9593 14.0691 21.9028C13.9506 21.8462 13.8443 21.7669 13.7565 21.6693C13.6686 21.5716 13.6008 21.4577 13.557 21.3338C13.5132 21.21 13.4942 21.0788 13.5011 20.9476C13.5081 20.8164 13.5408 20.6879 13.5974 20.5694C13.654 20.4509 13.7334 20.3447 13.8311 20.2568L18.0049 16.5L13.8311 12.7432C13.7334 12.6553 13.654 12.5491 13.5974 12.4306C13.5408 12.3121 13.5081 12.1836 13.5011 12.0524C13.4942 11.9212 13.5132 11.79 13.557 11.6662C13.6008 11.5423 13.6686 11.4283 13.7565 11.3307C13.8443 11.2331 13.9506 11.1537 14.0691 11.0972C14.1877 11.0406 14.3162 11.008 14.4474 11.0011C14.5786 10.9943 14.7098 11.0133 14.8336 11.0572C14.9574 11.1011 15.0714 11.1689 15.1689 11.2568Z" fill="white"/>
</svg>
