<svg width="26" height="27" viewBox="0 0 26 27" fill="none" xmlns="http://www.w3.org/2000/svg">
<path d="M0 13.5C0 16.0712 0.762437 18.5846 2.1909 20.7224C3.61935 22.8602 5.64968 24.5265 8.02512 25.5104C10.4006 26.4944 13.0144 26.7518 15.5362 26.2502C18.0579 25.7486 20.3743 24.5105 22.1924 22.6924C24.0105 20.8743 25.2486 18.5579 25.7502 16.0362C26.2518 13.5144 25.9944 10.9005 25.0104 8.52511C24.0265 6.14967 22.3603 4.11935 20.2224 2.69089C18.0846 1.26243 15.5712 0.499994 13 0.499994C9.55341 0.503979 6.24912 1.8749 3.81201 4.31201C1.3749 6.74911 0.00398351 10.0534 0 13.5ZM12.1689 8.25683L17.1689 12.7568C17.2731 12.8506 17.3565 12.9652 17.4135 13.0932C17.4705 13.2212 17.5 13.3598 17.5 13.5C17.5 13.6402 17.4705 13.7787 17.4135 13.9068C17.3565 14.0348 17.2731 14.1494 17.1689 14.2432L12.1689 18.7432C12.0714 18.8311 11.9574 18.8989 11.8336 18.9428C11.7098 18.9867 11.5786 19.0057 11.4474 18.9988C11.3162 18.992 11.1877 18.9593 11.0691 18.9028C10.9506 18.8462 10.8443 18.7669 10.7565 18.6693C10.6686 18.5716 10.6008 18.4577 10.557 18.3338C10.5132 18.21 10.4942 18.0788 10.5011 17.9476C10.5081 17.8164 10.5408 17.6879 10.5974 17.5694C10.654 17.4509 10.7334 17.3447 10.8311 17.2568L15.0049 13.5L10.8311 9.74316C10.7334 9.65533 10.654 9.54912 10.5974 9.4306C10.5408 9.31207 10.5081 9.18356 10.5011 9.05239C10.4942 8.92122 10.5132 8.78998 10.557 8.66615C10.6008 8.54233 10.6686 8.42834 10.7565 8.33072C10.8443 8.2331 10.9506 8.15374 11.0691 8.09719C11.1877 8.04064 11.3162 8.00801 11.4474 8.00114C11.5786 7.99428 11.7098 8.01333 11.8336 8.0572C11.9574 8.10107 12.0714 8.16891 12.1689 8.25683Z" fill="white"/>
</svg>
