<svg width="1099" height="235" viewBox="0 0 1099 235" fill="none" xmlns="http://www.w3.org/2000/svg">
<path fill-rule="evenodd" clip-rule="evenodd" d="M0 52.809C0 23.6434 23.6434 0 52.809 0H182.191C211.357 0 235 23.6434 235 52.809V182.191C235 211.357 211.357 235 182.191 235H52.809C23.6434 235 0 211.357 0 182.191V52.809ZM338.48 135.568C338.48 142.728 337.127 149.466 334.419 155.784C331.712 162.041 328.011 167.516 323.318 172.209C318.686 176.842 313.21 180.512 306.893 183.22C300.636 185.927 293.927 187.281 286.767 187.281C282.435 187.281 278.103 186.739 273.771 185.656V157.859C275.697 159.003 277.772 159.875 279.999 160.477C282.225 161.078 284.481 161.379 286.767 161.379C290.317 161.379 293.656 160.717 296.785 159.394C299.974 158.01 302.741 156.145 305.088 153.798C307.434 151.452 309.27 148.714 310.593 145.586C311.977 142.457 312.669 139.118 312.669 135.568V57.8628H338.48V135.568ZM450.39 138.095C450.39 145.315 449.096 152.053 446.509 158.311C443.922 164.508 440.402 169.893 435.95 174.465C431.498 178.978 426.263 182.558 420.247 185.205C414.29 187.792 407.882 189.086 401.023 189.086C394.225 189.086 387.817 187.792 381.8 185.205C375.844 182.558 370.609 178.978 366.097 174.465C361.644 169.893 358.125 164.508 355.538 158.311C352.95 152.053 351.657 145.315 351.657 138.095C351.657 130.754 352.95 123.956 355.538 117.698C358.125 111.441 361.644 106.056 366.097 101.544C370.609 96.971 375.844 93.3911 381.8 90.8039C387.817 88.2168 394.225 86.9232 401.023 86.9232C407.882 86.9232 414.29 88.1566 420.247 90.6234C426.263 93.0301 431.498 96.4897 435.95 101.002C440.402 105.454 443.922 110.839 446.509 117.157C449.096 123.414 450.39 130.393 450.39 138.095ZM425.571 138.095C425.571 134.124 424.91 130.544 423.586 127.355C422.322 124.106 420.578 121.338 418.351 119.052C416.125 116.706 413.508 114.931 410.5 113.727C407.551 112.464 404.393 111.832 401.023 111.832C397.654 111.832 394.465 112.464 391.457 113.727C388.509 114.931 385.922 116.706 383.695 119.052C381.529 121.338 379.815 124.106 378.551 127.355C377.288 130.544 376.656 134.124 376.656 138.095C376.656 141.825 377.288 145.285 378.551 148.474C379.815 151.662 381.529 154.43 383.695 156.776C385.922 159.123 388.509 160.988 391.457 162.372C394.465 163.696 397.654 164.357 401.023 164.357C404.393 164.357 407.551 163.726 410.5 162.462C413.508 161.199 416.125 159.424 418.351 157.137C420.578 154.851 422.322 152.083 423.586 148.835C424.91 145.586 425.571 142.006 425.571 138.095ZM560.765 138.095C560.765 145.676 559.472 152.595 556.885 158.852C554.298 165.11 550.778 170.494 546.326 175.007C541.873 179.459 536.639 182.919 530.622 185.386C524.666 187.852 518.258 189.086 511.399 189.086C504.6 189.086 498.192 187.822 492.176 185.295C486.219 182.768 480.985 179.249 476.472 174.736C472.02 170.224 468.5 164.869 465.913 158.672C463.326 152.414 462.032 145.555 462.032 138.095V52.177H486.761V97.3019C488.084 95.6172 489.679 94.1131 491.544 92.7894C493.469 91.4658 495.515 90.3828 497.681 89.5404C499.907 88.6981 502.193 88.0664 504.54 87.6452C506.886 87.1639 509.173 86.9232 511.399 86.9232C518.258 86.9232 524.666 88.2168 530.622 90.8039C536.639 93.3309 541.873 96.8807 546.326 101.453C550.778 106.026 554.298 111.441 556.885 117.698C559.472 123.896 560.765 130.694 560.765 138.095ZM535.947 138.095C535.947 134.364 535.285 130.905 533.961 127.716C532.698 124.467 530.953 121.669 528.727 119.323C526.501 116.976 523.883 115.141 520.875 113.818C517.927 112.494 514.768 111.832 511.399 111.832C508.03 111.832 504.841 112.584 501.832 114.088C498.884 115.532 496.297 117.488 494.071 119.955C491.845 122.361 490.1 125.159 488.836 128.348C487.573 131.476 486.941 134.725 486.941 138.095C486.941 141.825 487.573 145.285 488.836 148.474C490.1 151.662 491.845 154.43 494.071 156.776C496.297 159.123 498.884 160.988 501.832 162.372C504.841 163.696 508.03 164.357 511.399 164.357C514.768 164.357 517.927 163.696 520.875 162.372C523.883 160.988 526.501 159.123 528.727 156.776C530.953 154.43 532.698 151.662 533.961 148.474C535.285 145.285 535.947 141.825 535.947 138.095ZM627.55 187.281H571.234V162.733H627.55C629.235 162.733 630.679 162.131 631.882 160.928C633.086 159.725 633.687 158.281 633.687 156.596C633.687 154.851 633.086 153.708 631.882 153.167C630.679 152.625 629.235 152.354 627.55 152.354H601.919C597.648 152.354 593.646 151.542 589.916 149.918C586.186 148.293 582.937 146.097 580.169 143.329C577.401 140.501 575.205 137.222 573.581 133.492C572.017 129.762 571.234 125.761 571.234 121.489C571.234 117.217 572.017 113.216 573.581 109.486C575.205 105.755 577.401 102.506 580.169 99.7387C582.937 96.971 586.186 94.805 589.916 93.2407C593.646 91.6162 597.648 90.8039 601.919 90.8039H651.827V115.352H601.919C600.235 115.352 598.791 115.954 597.587 117.157C596.384 118.36 595.782 119.804 595.782 121.489C595.782 123.234 596.384 124.738 597.587 126.001C598.791 127.205 600.235 127.806 601.919 127.806H627.55C631.762 127.806 635.733 128.528 639.463 129.972C643.194 131.356 646.443 133.312 649.21 135.839C651.978 138.366 654.174 141.404 655.798 144.954C657.423 148.504 658.235 152.384 658.235 156.596C658.235 160.868 657.423 164.869 655.798 168.599C654.174 172.269 651.978 175.518 649.21 178.346C646.443 181.114 643.194 183.31 639.463 184.934C635.733 186.499 631.762 187.281 627.55 187.281ZM777.545 148.474C777.545 153.828 776.523 158.852 774.477 163.545C772.431 168.238 769.633 172.36 766.084 175.909C762.594 179.399 758.503 182.167 753.81 184.212C749.117 186.258 744.093 187.281 738.738 187.281H674.029V57.8628H738.738C744.093 57.8628 749.117 58.8856 753.81 60.9313C758.503 62.9769 762.594 65.7747 766.084 69.3245C769.633 72.8141 772.431 76.9055 774.477 81.5985C776.523 86.2914 777.545 91.3153 777.545 96.6702C777.545 99.0768 777.214 101.544 776.553 104.071C775.891 106.598 774.958 109.034 773.755 111.381C772.552 113.727 771.108 115.863 769.423 117.789C767.738 119.714 765.873 121.308 763.827 122.572C765.933 123.715 767.828 125.279 769.513 127.265C771.198 129.19 772.642 131.326 773.845 133.673C775.048 136.019 775.951 138.486 776.553 141.073C777.214 143.6 777.545 146.067 777.545 148.474ZM699.931 161.379H738.738C740.543 161.379 742.228 161.048 743.792 160.386C745.356 159.725 746.71 158.822 747.853 157.679C749.057 156.476 749.989 155.092 750.651 153.527C751.313 151.963 751.644 150.279 751.644 148.474C751.644 146.669 751.313 144.984 750.651 143.42C749.989 141.855 749.057 140.501 747.853 139.358C746.71 138.155 745.356 137.222 743.792 136.561C742.228 135.899 740.543 135.568 738.738 135.568H699.931V161.379ZM699.931 109.666H738.738C740.543 109.666 742.228 109.335 743.792 108.673C745.356 108.012 746.71 107.109 747.853 105.966C749.057 104.763 749.989 103.379 750.651 101.814C751.313 100.19 751.644 98.4752 751.644 96.6702C751.644 94.8652 751.313 93.1805 750.651 91.6162C749.989 90.0518 749.057 88.6981 747.853 87.5549C746.71 86.3516 745.356 85.419 743.792 84.7572C742.228 84.0954 740.543 83.7645 738.738 83.7645H699.931V109.666ZM887.921 138.095C887.921 145.315 886.627 152.053 884.04 158.311C881.453 164.508 877.933 169.893 873.481 174.465C869.029 178.978 863.794 182.558 857.777 185.205C851.821 187.792 845.413 189.086 838.554 189.086C831.755 189.086 825.348 187.792 819.331 185.205C813.374 182.558 808.14 178.978 803.628 174.465C799.175 169.893 795.655 164.508 793.068 158.311C790.481 152.053 789.188 145.315 789.188 138.095C789.188 130.754 790.481 123.956 793.068 117.698C795.655 111.441 799.175 106.056 803.628 101.544C808.14 96.971 813.374 93.3911 819.331 90.8039C825.348 88.2168 831.755 86.9232 838.554 86.9232C845.413 86.9232 851.821 88.1566 857.777 90.6234C863.794 93.0301 869.029 96.4897 873.481 101.002C877.933 105.454 881.453 110.839 884.04 117.157C886.627 123.414 887.921 130.393 887.921 138.095ZM863.102 138.095C863.102 134.124 862.44 130.544 861.117 127.355C859.853 124.106 858.108 121.338 855.882 119.052C853.656 116.706 851.039 114.931 848.03 113.727C845.082 112.464 841.923 111.832 838.554 111.832C835.185 111.832 831.996 112.464 828.988 113.727C826.04 114.931 823.452 116.706 821.226 119.052C819.06 121.338 817.345 124.106 816.082 127.355C814.818 130.544 814.187 134.124 814.187 138.095C814.187 141.825 814.818 145.285 816.082 148.474C817.345 151.662 819.06 154.43 821.226 156.776C823.452 159.123 826.04 160.988 828.988 162.372C831.996 163.696 835.185 164.357 838.554 164.357C841.923 164.357 845.082 163.726 848.03 162.462C851.039 161.199 853.656 159.424 855.882 157.137C858.108 154.851 859.853 152.083 861.117 148.835C862.44 145.586 863.102 142.006 863.102 138.095ZM994.957 187.281H989L979.434 174.014C977.088 176.12 974.591 178.106 971.943 179.971C969.356 181.776 966.619 183.37 963.731 184.754C960.843 186.078 957.864 187.13 954.796 187.913C951.787 188.695 948.719 189.086 945.59 189.086C938.792 189.086 932.384 187.822 926.367 185.295C920.411 182.708 915.176 179.158 910.664 174.646C906.211 170.073 902.692 164.688 900.104 158.491C897.517 152.234 896.224 145.435 896.224 138.095C896.224 130.815 897.517 124.046 900.104 117.789C902.692 111.531 906.211 106.116 910.664 101.544C915.176 96.971 920.411 93.3911 926.367 90.8039C932.384 88.2168 938.792 86.9232 945.59 86.9232C947.756 86.9232 949.982 87.1037 952.269 87.4647C954.615 87.8257 956.872 88.4274 959.038 89.2697C961.264 90.0518 963.339 91.1048 965.265 92.4284C967.19 93.7521 968.815 95.3766 970.138 97.3019V52.177H994.957V187.281ZM970.138 138.095C970.138 134.725 969.476 131.476 968.153 128.348C966.889 125.159 965.144 122.361 962.918 119.955C960.692 117.488 958.075 115.532 955.067 114.088C952.118 112.584 948.96 111.832 945.59 111.832C942.221 111.832 939.032 112.434 936.024 113.637C933.076 114.84 930.489 116.585 928.262 118.872C926.096 121.098 924.382 123.835 923.118 127.084C921.855 130.333 921.223 134.003 921.223 138.095C921.223 141.645 921.855 145.014 923.118 148.203C924.382 151.392 926.096 154.189 928.262 156.596C930.489 159.003 933.076 160.898 936.024 162.282C939.032 163.666 942.221 164.357 945.59 164.357C948.96 164.357 952.118 163.635 955.067 162.191C958.075 160.687 960.692 158.732 962.918 156.325C965.144 153.858 966.889 151.061 968.153 147.932C969.476 144.743 970.138 141.464 970.138 138.095ZM1052.27 163.635C1053.23 163.936 1054.19 164.147 1055.15 164.267C1056.12 164.327 1057.08 164.357 1058.04 164.357C1060.45 164.357 1062.76 164.027 1064.99 163.365C1067.22 162.703 1069.29 161.77 1071.22 160.567C1073.2 159.303 1074.95 157.799 1076.45 156.054C1078.02 154.249 1079.28 152.264 1080.24 150.098L1098.29 168.238C1096.01 171.487 1093.36 174.405 1090.35 176.992C1087.4 179.58 1084.18 181.776 1080.69 183.581C1077.26 185.386 1073.62 186.739 1069.77 187.642C1065.98 188.605 1062.07 189.086 1058.04 189.086C1051.24 189.086 1044.83 187.822 1038.82 185.295C1032.86 182.768 1027.63 179.249 1023.11 174.736C1018.66 170.224 1015.14 164.869 1012.56 158.672C1009.97 152.414 1008.67 145.555 1008.67 138.095C1008.67 130.454 1009.97 123.474 1012.56 117.157C1015.14 110.839 1018.66 105.454 1023.11 101.002C1027.63 96.5498 1032.86 93.0903 1038.82 90.6234C1044.83 88.1566 1051.24 86.9232 1058.04 86.9232C1062.07 86.9232 1066.01 87.4045 1069.86 88.3672C1073.71 89.3298 1077.35 90.7137 1080.78 92.5187C1084.27 94.3237 1087.52 96.5498 1090.53 99.1972C1093.54 101.784 1096.19 104.702 1098.47 107.951L1052.27 163.635ZM1064.9 112.825C1063.76 112.404 1062.61 112.133 1061.47 112.013C1060.39 111.892 1059.24 111.832 1058.04 111.832C1054.67 111.832 1051.48 112.464 1048.48 113.727C1045.53 114.931 1042.94 116.676 1040.71 118.962C1038.55 121.248 1036.83 124.016 1035.57 127.265C1034.31 130.454 1033.67 134.064 1033.67 138.095C1033.67 138.997 1033.7 140.02 1033.76 141.163C1033.88 142.306 1034.04 143.48 1034.22 144.683C1034.46 145.826 1034.73 146.939 1035.03 148.022C1035.33 149.105 1035.72 150.068 1036.2 150.91L1064.9 112.825ZM87.2911 125.653C87.2911 134.247 79.9468 141.214 70.8871 141.214C61.8275 141.214 54.4831 134.247 54.4831 125.653C54.4831 117.059 61.8275 110.093 70.8871 110.093C79.9468 110.093 87.2911 117.059 87.2911 125.653ZM76.9154 148.819C75.0929 149.136 73.2463 149.292 71.3965 149.288C63.1897 149.288 57.066 147.187 53.0256 142.984C48.9852 138.781 46.9687 132.544 46.9759 124.271H29.045C29.0668 131.099 30.1357 137.153 32.1934 142.391C34.1003 147.386 37.0959 151.893 40.9626 155.585C44.8133 159.191 49.3825 161.943 54.3708 163.66C59.8529 165.534 65.6143 166.46 71.4074 166.398C76.0187 166.421 80.6112 165.809 85.0556 164.58L76.9154 148.819ZM199.924 125.26C201.065 127.242 201.954 129.359 202.57 131.561C203.017 133.087 203.294 134.657 203.396 136.244C203.374 141.6 202.432 146.107 200.571 149.765C198.804 153.316 196.132 156.338 192.823 158.526C189.327 160.804 185.435 162.407 181.349 163.253C176.718 164.249 171.991 164.727 167.254 164.678H134.366V147.71H167.367C168.565 147.712 169.762 147.643 170.951 147.503L171.235 147.474H171.329L171.522 147.456H171.617H171.711H171.806H171.9H171.998H172.096H172.195H172.289H172.387H172.486L172.58 147.434H172.675L172.773 147.416H172.875L172.969 147.398H173.067H173.165C175.19 147.039 177.16 146.421 179.026 145.558C180.774 144.74 182.303 143.519 183.487 141.995C184.639 140.476 185.236 138.618 185.258 136.338C185.271 134.286 184.653 132.279 183.487 130.59C182.297 128.922 180.779 127.514 179.026 126.453L178.939 126.398L178.855 126.351L178.764 126.297L178.681 126.249L178.593 126.195L178.506 126.144L178.423 126.1L178.332 126.049L178.248 126.002L178.157 125.951L178.07 125.904L177.979 125.857L177.895 125.809L177.804 125.762L177.717 125.718L177.634 125.668L177.546 125.624L177.365 125.533L177.277 125.489L177.186 125.453L177.008 125.366L176.914 125.322L176.826 125.282L176.739 125.239L176.648 125.199L176.561 125.159L176.467 125.122L176.376 125.079L176.285 125.042L176.19 125.006L176.103 124.973L175.827 124.864L175.547 124.751L175.361 124.682L175.267 124.642L175.081 124.577L174.987 124.548L174.892 124.515L174.325 124.322L174.231 124.293L174.14 124.268L174.042 124.242L173.947 124.206L173.856 124.181L173.758 124.152L173.663 124.122L173.569 124.097L173.471 124.068L173.376 124.039L173.278 124.013L173.184 123.988L173.085 123.962L172.987 123.937L172.893 123.908L172.791 123.886L172.693 123.864L172.598 123.846L172.504 123.824L172.406 123.803L172.307 123.784L172.213 123.763H172.115L172.017 123.744L171.918 123.726L171.729 123.69H171.635L171.442 123.653H171.348L171.159 123.621H171.068L170.875 123.588H170.784H170.686L170.497 123.563L170.311 123.541H170.217L170.031 123.519H169.937H169.842L169.661 123.497H169.475H169.381L169.108 123.472H169.013H168.923H168.832H168.741H168.646H168.377H168.286H168.192H168.105H167.923H167.836H167.472H167.385H156.252V107.475H167.908H168.421C169.863 107.437 171.301 107.294 172.722 107.046L172.998 106.995L173.136 106.966L173.271 106.948L173.402 106.919L173.536 106.89L173.667 106.868L173.794 106.835L173.918 106.806L174.045 106.78L174.172 106.748L174.3 106.715L174.423 106.679L174.543 106.646L174.663 106.613L174.783 106.573L174.903 106.537L175.016 106.501L175.136 106.468L175.252 106.431L175.369 106.388L175.481 106.351L175.59 106.311L175.703 106.271L175.812 106.231L175.918 106.188L176.027 106.144L176.136 106.101L176.241 106.053L176.343 106.01L176.445 105.966L176.543 105.919L176.645 105.875L176.743 105.832L176.845 105.784L177.037 105.69L177.128 105.639L177.219 105.592L177.314 105.544L177.401 105.493L177.586 105.395L177.674 105.344L178.037 105.141L178.121 105.09L178.284 104.981L178.372 104.923L178.452 104.872L178.535 104.814L178.612 104.759L178.688 104.705L178.768 104.65L178.848 104.592L178.917 104.534L178.993 104.479L179.066 104.417L179.139 104.359L179.284 104.239L179.353 104.177L179.426 104.116L179.491 104.057L179.56 103.992L179.626 103.93L179.691 103.872L179.757 103.814L179.826 103.748L179.884 103.683L179.946 103.621L180.008 103.552L180.069 103.49L180.124 103.421L180.189 103.359L180.244 103.298L180.306 103.225L180.357 103.159L180.411 103.087L180.473 103.021L180.524 102.949L180.575 102.883L180.629 102.814L180.68 102.745L180.728 102.672L180.778 102.599L180.826 102.53L180.88 102.458L180.924 102.381L180.967 102.312C181.909 100.752 182.388 98.9568 182.349 97.1351C182.342 95.8514 182.095 94.5802 181.622 93.3868C181.052 91.9389 180.199 90.619 179.113 89.5039L179.059 89.4421L179.008 89.3876L178.953 89.3331L178.895 89.2713L178.844 89.2167L178.782 89.1622L178.728 89.104L178.67 89.0495L178.612 88.9877L178.55 88.9368L178.488 88.8859L178.43 88.8277L178.372 88.7732L178.306 88.7186L178.248 88.6677L178.186 88.6132L178.121 88.5587L178.063 88.5078L177.997 88.4569L177.932 88.4023L177.863 88.3514L177.797 88.3042L177.724 88.2496L177.659 88.1987L177.59 88.1515L177.521 88.1042L177.455 88.0497L177.386 88.0024L177.317 87.9515L177.241 87.9043L177.168 87.857L177.099 87.8097L177.026 87.7625L176.95 87.7152L176.877 87.6679L176.801 87.6207L176.728 87.5734L176.652 87.5298L176.579 87.4789L176.503 87.4353L176.427 87.3953L176.347 87.3444L176.274 87.3007L176.194 87.2607L176.114 87.2098L176.034 87.1735L175.958 87.1299L175.874 87.0899L175.794 87.0426L175.71 87.0026L175.63 86.9626L175.55 86.919L175.47 86.879L175.39 86.8354L175.303 86.799L175.22 86.7554L175.132 86.7154L175.045 86.6754L174.958 86.6391L174.867 86.5954L174.783 86.5591L174.696 86.5227L174.605 86.4864L174.514 86.4427L174.423 86.41L174.329 86.37L174.238 86.3373L174.14 86.3009L174.049 86.2609L173.951 86.2282L173.856 86.1955L173.758 86.1628L173.663 86.1264L173.565 86.0937L173.467 86.0646L173.369 86.0355L173.271 86.0065L173.169 85.9774L173.067 85.9446L172.962 85.9192L172.86 85.8937L172.755 85.861L172.656 85.8392L172.551 85.8174L172.442 85.7956L172.333 85.7738L172.231 85.752L172.017 85.7047H171.907L171.798 85.6829C170.564 85.4421 169.311 85.3059 168.054 85.2757H167.788H131.203C122.579 85.4211 114.184 87.2026 113.894 98.6657V123.163C113.941 129.061 112.957 134.923 110.985 140.483C109.171 145.57 106.324 150.227 102.623 154.16C100.385 156.514 97.8431 158.56 95.0647 160.242L86.9208 144.442C87.9527 143.634 88.8992 142.723 89.7457 141.723C91.7781 139.291 93.2957 136.472 94.2067 133.437C95.2105 130.112 95.7081 126.654 95.6827 123.181V99.1311C95.6827 68.1918 117.426 68.4471 138.654 68.6964C140.547 68.7186 142.436 68.7408 144.306 68.7408H167.268C171.727 68.691 176.172 69.24 180.484 70.3732C184.295 71.3705 187.876 73.0992 191.027 75.4631C194.029 77.7579 196.422 80.7539 197.997 84.1886C199.629 87.7225 200.476 91.9398 200.498 96.8116C200.522 99.2917 200.094 101.756 199.237 104.083C198.343 106.485 196.964 108.676 195.186 110.522C193.347 112.48 190.933 114.135 187.944 115.488C190.591 116.295 193.042 117.642 195.143 119.443C197.042 121.109 198.657 123.074 199.924 125.26Z" fill="white"/>
</svg>
