<svg width="260" height="60" viewBox="0 0 260 60" fill="none" xmlns="http://www.w3.org/2000/svg">
<path fill-rule="evenodd" clip-rule="evenodd" d="M17.1584 0.26416C7.68207 0.26416 0 7.94622 0 17.4225V42.2468C0 51.7231 7.68206 59.4052 17.1584 59.4052H41.7571C51.2334 59.4052 58.9155 51.7232 58.9155 42.2468V17.4225C58.9155 7.94623 51.2334 0.26416 41.7571 0.26416H17.1584ZM82.6772 36.3213C83.3056 34.8551 83.6198 33.2912 83.6198 31.6295V13.5957H77.6294V31.6295C77.6294 32.4534 77.4688 33.2284 77.1477 33.9545C76.8405 34.6806 76.4146 35.3159 75.87 35.8605C75.3254 36.4051 74.6831 36.8379 73.9431 37.1591C73.217 37.4663 72.442 37.6199 71.6181 37.6199C71.0875 37.6199 70.5639 37.5501 70.0472 37.4104C69.5306 37.2708 69.0488 37.0683 68.602 36.803V43.2542C69.6074 43.5055 70.6128 43.6312 71.6181 43.6312C73.2798 43.6312 74.8367 43.317 76.2889 42.6887C77.7551 42.0603 79.0258 41.2085 80.101 40.1333C81.1901 39.0442 82.0489 37.7735 82.6772 36.3213ZM109.592 32.216C109.592 33.8916 109.292 35.4556 108.691 36.9078C108.091 38.346 107.274 39.5957 106.241 40.657C105.207 41.7042 103.993 42.5351 102.596 43.1495C101.214 43.7499 99.7267 44.0501 98.1349 44.0501C96.557 44.0501 95.0699 43.7499 93.6735 43.1495C92.2911 42.5351 91.0763 41.7042 90.029 40.657C88.9957 39.5957 88.1789 38.346 87.5784 36.9078C86.978 35.4556 86.6778 33.8916 86.6778 32.216C86.6778 30.5125 86.978 28.9346 87.5784 27.4824C88.1789 26.0302 88.9957 24.7804 90.029 23.7332C91.0763 22.6719 92.2911 21.8411 93.6735 21.2407C95.0699 20.6403 96.557 20.34 98.1349 20.34C99.7267 20.34 101.214 20.6263 102.596 21.1988C103.993 21.7573 105.207 22.5602 106.241 23.6075C107.274 24.6408 108.091 25.8905 108.691 27.3567C109.292 28.8089 109.592 30.4287 109.592 32.216ZM103.832 32.216C103.832 31.2944 103.678 30.4636 103.371 29.7235C103.078 28.9695 102.673 28.3272 102.156 27.7966C101.64 27.252 101.032 26.8401 100.334 26.5608C99.6499 26.2676 98.9168 26.1209 98.1349 26.1209C97.3529 26.1209 96.6128 26.2676 95.9147 26.5608C95.2304 26.8401 94.63 27.252 94.1134 27.7966C93.6107 28.3272 93.2127 28.9695 92.9195 29.7235C92.6262 30.4636 92.4796 31.2944 92.4796 32.216C92.4796 33.0818 92.6262 33.8847 92.9195 34.6247C93.2127 35.3648 93.6107 36.0071 94.1134 36.5517C94.63 37.0963 95.2304 37.5291 95.9147 37.8503C96.6128 38.1575 97.3529 38.3111 98.1349 38.3111C98.9168 38.3111 99.6499 38.1645 100.334 37.8712C101.032 37.578 101.64 37.1661 102.156 36.6355C102.673 36.1049 103.078 35.4625 103.371 34.7085C103.678 33.9545 103.832 33.1236 103.832 32.216ZM134.307 37.0334C134.908 35.5812 135.208 33.9754 135.208 32.216C135.208 30.4985 134.908 28.9206 134.307 27.4824C133.707 26.0302 132.89 24.7735 131.857 23.7122C130.823 22.651 129.609 21.8272 128.212 21.2407C126.83 20.6403 125.343 20.34 123.751 20.34C123.234 20.34 122.704 20.3959 122.159 20.5076C121.615 20.6053 121.084 20.752 120.567 20.9475C120.065 21.1429 119.59 21.3943 119.143 21.7015C118.71 22.0087 118.34 22.3578 118.033 22.7487V12.2761H112.294V32.216C112.294 33.9475 112.594 35.5393 113.195 36.9915C113.795 38.4298 114.612 39.6725 115.645 40.7198C116.692 41.7671 117.907 42.5839 119.29 43.1704C120.686 43.7569 122.173 44.0501 123.751 44.0501C125.343 44.0501 126.83 43.7638 128.212 43.1913C129.609 42.6188 130.823 41.8159 131.857 40.7826C132.89 39.7354 133.707 38.4856 134.307 37.0334ZM128.987 29.8073C129.294 30.5474 129.448 31.3503 129.448 32.216C129.448 33.0818 129.294 33.8847 128.987 34.6247C128.694 35.3648 128.289 36.0071 127.772 36.5517C127.256 37.0963 126.648 37.5291 125.95 37.8503C125.266 38.1575 124.533 38.3111 123.751 38.3111C122.969 38.3111 122.229 38.1575 121.531 37.8503C120.847 37.5291 120.246 37.0963 119.729 36.5517C119.213 36.0071 118.808 35.3648 118.515 34.6247C118.221 33.8847 118.075 33.0818 118.075 32.216C118.075 31.4341 118.221 30.68 118.515 29.9539C118.808 29.2139 119.213 28.5646 119.729 28.006C120.246 27.4335 120.847 26.9797 121.531 26.6446C122.229 26.2955 122.969 26.1209 123.751 26.1209C124.533 26.1209 125.266 26.2745 125.95 26.5817C126.648 26.8889 127.256 27.3148 127.772 27.8594C128.289 28.404 128.694 29.0533 128.987 29.8073ZM150.708 43.6312H137.638V37.9341H150.708C151.098 37.9341 151.434 37.7944 151.713 37.5152C151.992 37.2359 152.132 36.9008 152.132 36.5098C152.132 36.1049 151.992 35.8395 151.713 35.7139C151.434 35.5882 151.098 35.5254 150.708 35.5254H144.759C143.768 35.5254 142.839 35.3369 141.973 34.9598C141.108 34.5828 140.354 34.0732 139.711 33.4308C139.069 32.7746 138.559 32.0135 138.182 31.1478C137.819 30.2821 137.638 29.3535 137.638 28.3621C137.638 27.3707 137.819 26.4421 138.182 25.5764C138.559 24.7106 139.069 23.9566 139.711 23.3143C140.354 22.6719 141.108 22.1693 141.973 21.8062C142.839 21.4292 143.768 21.2407 144.759 21.2407H156.342V26.9378H144.759C144.368 26.9378 144.033 27.0774 143.754 27.3567C143.474 27.636 143.335 27.9711 143.335 28.3621C143.335 28.767 143.474 29.1161 143.754 29.4093C144.033 29.6886 144.368 29.8283 144.759 29.8283H150.708C151.685 29.8283 152.607 29.9958 153.472 30.3309C154.338 30.6521 155.092 31.1059 155.734 31.6924C156.377 32.2789 156.886 32.984 157.263 33.8079C157.64 34.6317 157.829 35.5323 157.829 36.5098C157.829 37.5012 157.64 38.4298 157.263 39.2955C156.886 40.1473 156.377 40.9013 155.734 41.5576C155.092 42.1999 154.338 42.7096 153.472 43.0866C152.607 43.4497 151.685 43.6312 150.708 43.6312ZM184.806 38.1226C185.281 37.0334 185.519 35.8675 185.519 34.6247C185.519 34.0662 185.442 33.4937 185.288 32.9072C185.149 32.3068 184.939 31.7343 184.66 31.1897C184.381 30.6451 184.045 30.1494 183.654 29.7026C183.263 29.2418 182.824 28.8787 182.335 28.6134C182.81 28.3202 183.243 27.9502 183.633 27.5033C184.024 27.0565 184.36 26.5608 184.639 26.0162C184.918 25.4716 185.135 24.9061 185.288 24.3196C185.442 23.7332 185.519 23.1607 185.519 22.6021C185.519 21.3594 185.281 20.1934 184.806 19.1043C184.332 18.0151 183.682 17.0656 182.859 16.2557C182.049 15.4319 181.099 14.7826 180.01 14.3078C178.921 13.833 177.755 13.5957 176.512 13.5957H161.494V43.6312H176.512C177.755 43.6312 178.921 43.3938 180.01 42.9191C181.099 42.4443 182.049 41.802 182.859 40.9921C183.682 40.1682 184.332 39.2117 184.806 38.1226ZM176.512 37.6199H167.506V31.6295H176.512C176.931 31.6295 177.322 31.7063 177.685 31.8599C178.048 32.0135 178.362 32.23 178.628 32.5092C178.907 32.7746 179.123 33.0887 179.277 33.4518C179.43 33.8148 179.507 34.2058 179.507 34.6247C179.507 35.0436 179.43 35.4346 179.277 35.7977C179.123 36.1607 178.907 36.4819 178.628 36.7611C178.362 37.0264 178.048 37.2359 177.685 37.3895C177.322 37.5431 176.931 37.6199 176.512 37.6199ZM176.512 25.6182H167.506V19.607H176.512C176.931 19.607 177.322 19.6838 177.685 19.8374C178.048 19.991 178.362 20.2074 178.628 20.4867C178.907 20.752 179.123 21.0661 179.277 21.4292C179.43 21.7922 179.507 22.1832 179.507 22.6021C179.507 23.021 179.43 23.419 179.277 23.796C179.123 24.1591 178.907 24.4802 178.628 24.7595C178.362 25.0248 178.048 25.2343 177.685 25.3879C177.322 25.5415 176.931 25.6182 176.512 25.6182ZM211.135 32.216C211.135 33.8916 210.834 35.4556 210.234 36.9078C209.634 38.346 208.817 39.5957 207.783 40.657C206.75 41.7042 205.535 42.5351 204.139 43.1495C202.757 43.7499 201.269 44.0501 199.678 44.0501C198.1 44.0501 196.613 43.7499 195.216 43.1495C193.834 42.5351 192.619 41.7042 191.572 40.657C190.538 39.5957 189.722 38.346 189.121 36.9078C188.521 35.4556 188.221 33.8916 188.221 32.216C188.221 30.5125 188.521 28.9346 189.121 27.4824C189.722 26.0302 190.538 24.7804 191.572 23.7332C192.619 22.6719 193.834 21.8411 195.216 21.2407C196.613 20.6403 198.1 20.34 199.678 20.34C201.269 20.34 202.757 20.6263 204.139 21.1988C205.535 21.7573 206.75 22.5602 207.783 23.6075C208.817 24.6408 209.634 25.8905 210.234 27.3567C210.834 28.8089 211.135 30.4287 211.135 32.216ZM205.375 32.216C205.375 31.2944 205.221 30.4636 204.914 29.7235C204.621 28.9695 204.216 28.3272 203.699 27.7966C203.182 27.252 202.575 26.8401 201.877 26.5608C201.193 26.2676 200.46 26.1209 199.678 26.1209C198.896 26.1209 198.156 26.2676 197.457 26.5608C196.773 26.8401 196.173 27.252 195.656 27.7966C195.153 28.3272 194.755 28.9695 194.462 29.7235C194.169 30.4636 194.022 31.2944 194.022 32.216C194.022 33.0818 194.169 33.8847 194.462 34.6247C194.755 35.3648 195.153 36.0071 195.656 36.5517C196.173 37.0963 196.773 37.5291 197.457 37.8503C198.156 38.1575 198.896 38.3111 199.678 38.3111C200.46 38.3111 201.193 38.1645 201.877 37.8712C202.575 37.578 203.182 37.1661 203.699 36.6355C204.216 36.1049 204.621 35.4625 204.914 34.7085C205.221 33.9545 205.375 33.1236 205.375 32.216ZM234.593 43.6312H235.976V12.2761H230.216V22.7487C229.909 22.3019 229.532 21.9249 229.085 21.6177C228.638 21.3105 228.156 21.0661 227.64 20.8846C227.137 20.6891 226.613 20.5495 226.069 20.4657C225.538 20.3819 225.021 20.34 224.519 20.34C222.941 20.34 221.454 20.6403 220.057 21.2407C218.675 21.8411 217.46 22.6719 216.413 23.7332C215.38 24.7944 214.563 26.0511 213.962 27.5033C213.362 28.9555 213.062 30.5264 213.062 32.216C213.062 33.9196 213.362 35.4974 213.962 36.9496C214.563 38.3879 215.38 39.6376 216.413 40.6989C217.46 41.7461 218.675 42.57 220.057 43.1704C221.454 43.7569 222.941 44.0501 224.519 44.0501C225.245 44.0501 225.957 43.9593 226.655 43.7778C227.367 43.5963 228.058 43.3519 228.729 43.0447C229.399 42.7236 230.034 42.3535 230.635 41.9346C231.249 41.5018 231.829 41.041 232.373 40.5522L234.593 43.6312ZM229.755 29.9539C230.062 30.68 230.216 31.4341 230.216 32.216C230.216 32.998 230.062 33.759 229.755 34.4991C229.462 35.2252 229.057 35.8745 228.54 36.447C228.024 37.0055 227.416 37.4593 226.718 37.8084C226.034 38.1435 225.301 38.3111 224.519 38.3111C223.737 38.3111 222.997 38.1505 222.298 37.8293C221.614 37.5082 221.014 37.0683 220.497 36.5098C219.995 35.9513 219.597 35.302 219.303 34.5619C219.01 33.8218 218.863 33.0399 218.863 32.216C218.863 31.2665 219.01 30.4147 219.303 29.6607C219.597 28.9067 219.995 28.2713 220.497 27.7547C221.014 27.2241 221.614 26.8191 222.298 26.5398C222.997 26.2606 223.737 26.1209 224.519 26.1209C225.301 26.1209 226.034 26.2955 226.718 26.6446C227.416 26.9797 228.024 27.4335 228.54 28.006C229.057 28.5646 229.462 29.2139 229.755 29.9539ZM249.276 38.1435C249.499 38.2133 249.723 38.2622 249.946 38.2901C250.17 38.3041 250.393 38.3111 250.617 38.3111C251.175 38.3111 251.713 38.2343 252.229 38.0807C252.746 37.9271 253.228 37.7107 253.675 37.4314C254.135 37.1382 254.54 36.7891 254.889 36.3841C255.252 35.9652 255.546 35.5044 255.769 35.0017L259.958 39.2117C259.427 39.9658 258.813 40.643 258.115 41.2434C257.431 41.8439 256.684 42.3535 255.874 42.7724C255.078 43.1913 254.233 43.5055 253.339 43.715C252.46 43.9384 251.552 44.0501 250.617 44.0501C249.039 44.0501 247.552 43.7569 246.155 43.1704C244.773 42.5839 243.558 41.7671 242.511 40.7198C241.477 39.6725 240.661 38.4298 240.06 36.9915C239.46 35.5393 239.159 33.9475 239.159 32.216C239.159 30.4426 239.46 28.8229 240.06 27.3567C240.661 25.8905 241.477 24.6408 242.511 23.6075C243.558 22.5742 244.773 21.7713 246.155 21.1988C247.552 20.6263 249.039 20.34 250.617 20.34C251.552 20.34 252.467 20.4517 253.36 20.6752C254.254 20.8986 255.099 21.2197 255.895 21.6386C256.705 22.0576 257.459 22.5742 258.157 23.1886C258.855 23.789 259.469 24.4663 260 25.2203L249.276 38.1435ZM252.208 26.3513C251.943 26.2536 251.678 26.1908 251.412 26.1628C251.161 26.1349 250.896 26.1209 250.617 26.1209C249.835 26.1209 249.094 26.2676 248.396 26.5608C247.712 26.8401 247.112 27.245 246.595 27.7756C246.092 28.3062 245.694 28.9485 245.401 29.7026C245.108 30.4426 244.961 31.2805 244.961 32.216C244.961 32.4255 244.968 32.6628 244.982 32.9282C245.01 33.1935 245.045 33.4658 245.087 33.745C245.143 34.0103 245.206 34.2687 245.275 34.52C245.345 34.7713 245.436 34.9948 245.548 35.1902L252.208 26.3513ZM21.8843 31.8863C21.8843 34.0491 20.043 35.8023 17.7718 35.8023C15.5005 35.8023 13.6592 34.0491 13.6592 31.8863C13.6592 29.7236 15.5005 27.9703 17.7718 27.9703C20.043 27.9703 21.8843 29.7236 21.8843 31.8863ZM19.2831 37.7167C18.8262 37.7962 18.3632 37.8357 17.8995 37.8347C15.842 37.8347 14.3068 37.3058 13.2938 36.2481C12.2809 35.1904 11.7753 33.6207 11.7771 31.5388H7.28176C7.28722 33.2571 7.5552 34.7805 8.07109 36.099C8.54916 37.356 9.30017 38.4902 10.2696 39.4194C11.2349 40.3269 12.3805 41.0194 13.6311 41.4515C15.0054 41.9231 16.4498 42.1561 17.9022 42.1405C19.0583 42.1464 20.2096 41.9925 21.3239 41.683L19.2831 37.7167ZM50.1218 31.7875C50.4078 32.2863 50.6307 32.819 50.7853 33.3732C50.8972 33.7572 50.9666 34.1524 50.9922 34.5516C50.9868 35.8997 50.7507 37.0339 50.284 37.9544C49.8411 38.8481 49.1711 39.6088 48.3417 40.1594C47.4651 40.7325 46.4895 41.136 45.4651 41.3489C44.3041 41.5996 43.1189 41.7199 41.9313 41.7075H33.6862V37.4374H41.9596C42.2599 37.4379 42.56 37.4205 42.8583 37.3853L42.9294 37.3779H42.9531L43.0014 37.3734H43.0251H43.0488H43.0725H43.0962H43.1208H43.1454H43.17H43.1937H43.2183H43.2429L43.2666 37.3679H43.2903L43.3149 37.3633H43.3405L43.3642 37.3587H43.3888H43.4134C43.9209 37.2684 44.4147 37.1128 44.8827 36.8958C45.3209 36.6899 45.7042 36.3826 46.001 35.9991C46.29 35.6166 46.4395 35.1491 46.4449 34.5754C46.4484 34.0589 46.2934 33.5539 46.001 33.1289C45.7027 32.709 45.3222 32.3547 44.8827 32.0877L44.8608 32.0739L44.8398 32.062L44.817 32.0483L44.7961 32.0364L44.7742 32.0227L44.7523 32.0099L44.7314 31.9989L44.7086 31.9861L44.6876 31.9742L44.6648 31.9614L44.6429 31.9495L44.6202 31.9376L44.5992 31.9257L44.5764 31.9138L44.5545 31.9028L44.5336 31.89L44.5117 31.879L44.4661 31.8562L44.4442 31.8452L44.4215 31.836L44.3768 31.8141L44.3531 31.8031L44.3312 31.793L44.3093 31.7821L44.2866 31.772L44.2647 31.7619L44.241 31.7528L44.2182 31.7418L44.1954 31.7327L44.1717 31.7235L44.1498 31.7153L44.0806 31.6878L44.0104 31.6595L43.9639 31.6421L43.9402 31.632L43.8937 31.6155L43.87 31.6082L43.8463 31.6L43.7041 31.5515L43.6804 31.5442L43.6577 31.5378L43.633 31.5314L43.6093 31.5222L43.5866 31.5158L43.5619 31.5085L43.5382 31.5012L43.5145 31.4948L43.4899 31.4874L43.4662 31.4801L43.4416 31.4737L43.4179 31.4673L43.3933 31.4609L43.3687 31.4545L43.345 31.4472L43.3195 31.4417L43.2949 31.4362L43.2712 31.4316L43.2475 31.4261L43.2229 31.4207L43.1983 31.4161L43.1746 31.4106H43.15L43.1253 31.406L43.1007 31.4014L43.0533 31.3923H43.0296L42.9813 31.3831H42.9576L42.9102 31.3749H42.8875L42.8391 31.3667H42.8164H42.7918L42.7444 31.3603L42.6979 31.3548H42.6742L42.6277 31.3493H42.604H42.5803L42.5347 31.3438H42.4882H42.4645L42.3962 31.3374H42.3725H42.3497H42.3269H42.3041H42.2804H42.213H42.1902H42.1665H42.1446H42.099H42.0772H41.986H41.9641H39.1732V27.3116H42.0954H42.2239C42.5855 27.3021 42.9459 27.2661 43.3022 27.2036L43.3714 27.1908L43.4061 27.1835L43.4398 27.1789L43.4726 27.1716L43.5063 27.1643L43.5392 27.1588L43.5711 27.1505L43.602 27.1432L43.634 27.1368L43.6659 27.1286L43.6978 27.1203L43.7287 27.1112L43.7588 27.103L43.7889 27.0947L43.819 27.0847L43.8491 27.0755L43.8773 27.0664L43.9074 27.0581L43.9366 27.049L43.9657 27.038L43.994 27.0288L44.0213 27.0188L44.0496 27.0087L44.0769 26.9987L44.1033 26.9877L44.1307 26.9767L44.158 26.9657L44.1845 26.9538L44.21 26.9428L44.2355 26.9319L44.2601 26.92L44.2856 26.909L44.3103 26.898L44.3358 26.8861L44.3841 26.8623L44.4069 26.8495L44.4297 26.8376L44.4534 26.8257L44.4752 26.8129L44.5217 26.7882L44.5436 26.7754L44.6347 26.7242L44.6557 26.7114L44.6967 26.6839L44.7186 26.6693L44.7387 26.6565L44.7596 26.6418L44.7788 26.6281L44.7979 26.6144L44.8179 26.6006L44.838 26.586L44.8553 26.5714L44.8745 26.5576L44.8927 26.5421L44.9109 26.5275L44.9474 26.4973L44.9647 26.4817L44.9829 26.4661L44.9993 26.4515L45.0166 26.435L45.0331 26.4195L45.0495 26.4048L45.0659 26.3902L45.0832 26.3737L45.0978 26.3573L45.1133 26.3417L45.1288 26.3243L45.1442 26.3088L45.1579 26.2914L45.1743 26.2758L45.188 26.2603L45.2035 26.242L45.2163 26.2255L45.2299 26.2072L45.2454 26.1907L45.2582 26.1724L45.2709 26.156L45.2846 26.1386L45.2974 26.1212L45.3092 26.1029L45.322 26.0846L45.3338 26.0672L45.3475 26.0489L45.3584 26.0297L45.3694 26.0123C45.6054 25.6197 45.7255 25.1679 45.7157 24.7094C45.7139 24.3863 45.6521 24.0664 45.5335 23.7661C45.3905 23.4017 45.1767 23.0695 44.9045 22.7889L44.8909 22.7734L44.8781 22.7597L44.8644 22.7459L44.8498 22.7304L44.8371 22.7166L44.8216 22.7029L44.8079 22.6883L44.7933 22.6746L44.7788 22.659L44.7633 22.6462L44.7478 22.6334L44.7332 22.6187L44.7186 22.605L44.7022 22.5913L44.6876 22.5785L44.6721 22.5648L44.6557 22.551L44.6411 22.5382L44.6247 22.5254L44.6083 22.5117L44.591 22.4989L44.5746 22.487L44.5564 22.4733L44.5399 22.4605L44.5226 22.4486L44.5053 22.4367L44.4889 22.4229L44.4716 22.4111L44.4543 22.3982L44.4351 22.3863L44.4169 22.3745L44.3996 22.3626L44.3814 22.3507L44.3622 22.3388L44.344 22.3269L44.3248 22.315L44.3066 22.3031L44.2875 22.2921L44.2692 22.2793L44.2501 22.2683L44.231 22.2583L44.2109 22.2454L44.1927 22.2345L44.1726 22.2244L44.1526 22.2116L44.1325 22.2024L44.1134 22.1915L44.0924 22.1814L44.0724 22.1695L44.0514 22.1594L44.0313 22.1494L44.0113 22.1384L43.9912 22.1283L43.9712 22.1173L43.9493 22.1082L43.9284 22.0972L43.9065 22.0872L43.8846 22.0771L43.8627 22.0679L43.8399 22.057L43.819 22.0478L43.7971 22.0387L43.7743 22.0295L43.7515 22.0185L43.7287 22.0103L43.705 22.0002L43.6823 21.992L43.6577 21.9829L43.6349 21.9728L43.6103 21.9646L43.5866 21.9563L43.5619 21.9481L43.5382 21.9389L43.5136 21.9307L43.489 21.9234L43.4644 21.9161L43.4398 21.9087L43.4143 21.9014L43.3888 21.8932L43.3623 21.8868L43.3368 21.8804L43.3104 21.8721L43.2858 21.8667L43.2593 21.8612L43.232 21.8557L43.2046 21.8502L43.1791 21.8447L43.1253 21.8328H43.098L43.0707 21.8273C42.7611 21.7667 42.4471 21.7324 42.1318 21.7248H42.0653H32.8932C30.7312 21.7614 28.6266 22.2098 28.5537 25.0946V31.2596C28.5657 32.7441 28.3189 34.2193 27.8245 35.6185C27.3698 36.8987 26.656 38.0707 25.7281 39.0606C25.167 39.653 24.5297 40.1678 23.8332 40.5913L21.7915 36.6149C22.0502 36.4116 22.2875 36.1822 22.4997 35.9305C23.0092 35.3186 23.3897 34.6092 23.6181 33.8453C23.8697 33.0084 23.9945 32.1383 23.9881 31.2642V25.2117C23.9881 17.4254 29.4393 17.4897 34.7612 17.5524C35.2359 17.558 35.7095 17.5636 36.1781 17.5636H41.935C43.0527 17.5511 44.1671 17.6892 45.2482 17.9744C46.2036 18.2254 47.1014 18.6605 47.8914 19.2554C48.644 19.8329 49.2439 20.5869 49.6387 21.4513C50.048 22.3406 50.2603 23.402 50.2658 24.628C50.2717 25.2522 50.1645 25.8722 49.9495 26.4579C49.7256 27.0623 49.3799 27.6139 48.9341 28.0783C48.4729 28.5712 47.8677 28.9878 47.1185 29.3281C47.7821 29.5313 48.3965 29.8703 48.9232 30.3236C49.3994 30.7429 49.8043 31.2373 50.1218 31.7875Z" fill="url(#paint0_linear_174_221)"/>
<defs>
<linearGradient id="paint0_linear_174_221" x1="-9.99957" y1="55.4807" x2="22.2278" y2="-51.3994" gradientUnits="userSpaceOnUse">
<stop stop-color="#345267"/>
<stop offset="1" stop-color="#3F8F8B"/>
</linearGradient>
</defs>
</svg>
