<svg width="461" height="458" viewBox="0 0 461 458" fill="none" xmlns="http://www.w3.org/2000/svg">
<path d="M407.564 393.472C398.098 403.303 389.14 409.643 382.064 414.651C298.879 473.528 200.449 456.366 179.529 452.174C148.638 445.985 88.9259 434.022 45.756 383.942C-19.5554 308.177 -9.38567 188.81 41.276 110.013C50.543 95.6002 99.4928 15.603 198.982 2.77379C259.193 -4.99031 329.378 10.6683 380.205 52.6744C486.894 140.849 479.299 318.975 407.564 393.472Z" fill="black" fill-opacity="0.06"/>
<path d="M210.974 274.239C202.924 248.917 187.349 228.737 168.9 216.875C152.408 206.269 140.525 189.753 136.126 170.675C135.663 168.671 135.114 166.659 134.475 164.649C124.793 134.196 98.238 115.477 75.163 122.841C52.0881 130.202 41.2301 160.858 50.912 191.313C52.8914 197.54 55.5773 203.275 58.7947 208.396C69.0619 224.74 73.08 244.341 69.3028 263.301C65.9266 280.245 66.843 299.322 72.8781 318.307C81.8791 346.62 100.289 368.507 121.606 379.525C129.669 383.692 136.94 389.297 142.96 396.07C152.965 407.324 167.066 412.613 180.02 408.479C193.996 404.02 202.727 389.841 203.355 373.3C203.71 363.938 205.908 354.763 209.488 346.089C217.94 325.609 219.114 299.84 210.974 274.239Z" fill="#C3F0EE"/>
<path opacity="0.57" d="M93.5432 152.658C102.956 171.823 111.744 191.275 120.328 210.82C122.476 215.706 124.545 220.625 126.63 225.538L129.756 232.906L132.82 240.302C134.843 245.24 136.936 250.15 138.903 255.113L144.808 269.996C148.617 279.97 152.512 289.91 156.134 299.953C157.952 304.972 159.87 309.955 161.585 315.012L166.804 330.154C173.556 350.412 179.802 370.851 184.998 391.568L184.106 391.803L179.626 376.451L178.515 372.613L177.308 368.802L174.879 361.185L172.465 353.566C171.664 351.024 170.771 348.513 169.927 345.985C168.207 340.94 166.529 335.884 164.777 330.851C157.638 310.764 150.232 290.774 142.414 270.939C138.428 261.051 134.529 251.13 130.474 241.27L127.453 233.868L124.37 226.489C122.318 221.569 120.266 216.649 118.164 211.75C114.044 201.916 109.854 192.111 105.583 182.341C101.363 172.548 97.0499 162.793 92.7075 153.055L93.5432 152.658Z" fill="white"/>
<path d="M278.318 223.908C274.556 196.253 262.121 172.552 245.236 156.93C230.142 142.966 220.855 123.724 219.737 103.191C219.62 101.032 219.413 98.8523 219.114 96.6562C214.59 63.3977 190.581 39.2136 165.491 42.6392C140.4 46.0661 123.727 75.8059 128.253 109.064C129.177 115.866 130.919 122.286 133.316 128.166C140.969 146.936 141.602 167.941 134.316 186.866C127.806 203.779 125.335 223.679 128.156 244.411C132.362 275.334 147.413 301.316 167.403 316.584C174.964 322.359 181.451 329.476 186.442 337.574C194.737 351.031 208.317 359.063 222.403 357.141C237.599 355.066 249.131 341.985 252.74 324.989C254.782 315.37 258.688 306.279 263.929 297.957C276.302 278.309 282.122 251.867 278.318 223.908Z" fill="#7BC8C4"/>
<path opacity="0.57" d="M179.091 76.821C185.359 98.3533 190.931 120.072 196.277 141.847C197.616 147.291 198.868 152.755 200.137 158.214L202.039 166.404L203.873 174.61C205.075 180.087 206.352 185.545 207.49 191.035L210.91 207.502C213.049 218.51 215.282 229.498 217.218 240.545C218.194 246.067 219.276 251.569 220.139 257.111L222.807 273.721C226.138 295.902 228.914 318.178 230.561 340.551L229.599 340.632L227.732 323.939L227.274 319.767L226.712 315.605L225.572 307.286L224.448 298.965C224.079 296.192 223.606 293.431 223.19 290.663C222.322 285.133 221.497 279.596 220.593 274.073C216.833 252 212.78 229.976 208.275 208.039C205.939 197.088 203.696 186.117 201.283 175.182L199.496 166.976L197.64 158.785C196.406 153.323 195.173 147.861 193.883 142.412C191.398 131.492 188.836 120.588 186.184 109.706C183.589 98.8104 180.891 87.9363 178.16 77.0758L179.091 76.821Z" fill="white"/>
<path d="M393.642 413.977H174.618C172.906 413.977 171.519 412.587 171.519 410.872V114.35C171.519 112.636 172.906 111.246 174.618 111.246H393.642C395.353 111.246 396.741 112.636 396.741 114.35V410.871C396.741 412.585 395.353 413.977 393.642 413.977Z" fill="url(#paint0_linear_364_5590)"/>
<path d="M358.4 374.099H209.38C203.731 374.099 199.152 369.511 199.152 363.852V166.973C199.152 161.314 203.731 156.726 209.38 156.726H358.4C364.048 156.726 368.628 161.314 368.628 166.973V363.852C368.628 369.511 364.048 374.099 358.4 374.099Z" fill="#95B5B3"/>
<path d="M352.761 358.976H215.154C213.46 358.976 212.086 357.599 212.086 355.902V177.682C212.086 175.984 213.46 174.608 215.154 174.608H352.761C354.455 174.608 355.829 175.984 355.829 177.682V355.903C355.829 357.601 354.455 358.976 352.761 358.976Z" fill="url(#paint1_linear_364_5590)"/>
<path d="M327.248 243.429L240.566 244.872C233.969 244.983 228.601 250.122 228.601 256.352V311.043C228.601 317.273 233.969 322.107 240.566 321.841L327.248 318.354C333.475 318.103 338.505 313.021 338.505 307V254.144C338.505 248.123 333.475 243.325 327.248 243.429Z" fill="white"/>
<path d="M331.635 233.537C329.009 233.577 326.878 231.546 326.878 229.004V217.034C326.878 205.026 316.74 195.285 304.189 195.322L275.951 195.404C263.077 195.442 252.527 205.469 252.527 217.758V230.007C252.527 232.61 250.292 234.752 247.531 234.794C244.764 234.836 242.519 232.753 242.519 230.141V217.855C242.519 200.315 257.602 186.045 275.951 186.045H304.189C322.019 186.045 336.378 199.906 336.378 216.941V228.874C336.378 231.411 334.256 233.498 331.635 233.537Z" fill="white"/>
<path d="M297.931 273.739C297.931 267.661 292.634 262.889 286.197 263.327C280.503 263.715 275.795 268.283 275.488 273.736C275.25 277.968 277.571 281.627 281.099 283.476C282.601 284.263 283.347 285.922 283.055 287.562L280.58 301.476C280.265 303.248 281.686 304.805 283.557 304.738L289.917 304.51C291.778 304.442 293.19 302.791 292.878 301.048L290.405 287.262C290.11 285.617 290.963 283.984 292.467 283.083C295.74 281.125 297.931 277.648 297.931 273.739Z" fill="#3C7E81"/>
<path d="M123.836 414.505C123.838 414.387 123.83 414.265 123.8 414.144C122.002 407.004 113.081 402.558 113.081 402.558L109.546 402.836C107.512 409.129 107.775 412.987 108.1 414.707C108.11 414.756 108.125 414.802 108.137 414.848C111.053 415.108 117.056 415.279 123.836 414.505Z" fill="#86949E"/>
<path d="M108.137 414.846C108.294 415.421 108.717 415.867 109.259 415.981C113.408 416.855 120.001 416.153 122.769 415.79C123.38 415.71 123.827 415.144 123.836 414.505C117.056 415.279 111.053 415.108 108.137 414.846Z" fill="#91B3FA"/>
<path d="M108.124 397.559L109.621 404.781C109.73 405.31 110.137 405.706 110.628 405.753C111.229 405.81 112.086 405.843 112.948 405.717C113.72 405.604 114.258 404.816 114.121 403.972L113.081 397.561H108.124V397.559Z" fill="url(#paint2_linear_364_5590)"/>
<path d="M139.147 414.756C135.242 414.647 133.224 414.186 132.18 413.758C132.177 414.147 132.18 414.543 132.192 414.953C132.205 415.391 132.53 415.74 132.928 415.739L154.365 415.6C155.049 415.596 155.448 414.801 155.152 414.172C152.341 414.404 145.183 414.925 139.147 414.756Z" fill="#91B3FA"/>
<path d="M155.152 414.171C155.127 414.116 155.104 414.06 155.067 414.009C153.174 411.359 148.353 406.081 138.824 403.793L134.253 403.649C134.253 403.649 132.217 407.193 132.179 413.758C133.224 414.186 135.243 414.647 139.147 414.756C145.182 414.924 152.341 414.404 155.152 414.171Z" fill="#86949E"/>
<path d="M133.202 396.922C133.275 397.259 134.225 402.398 134.594 404.39C134.681 404.863 135.05 405.211 135.487 405.236C136.27 405.28 137.533 405.284 138.617 404.989C139.203 404.83 139.597 404.231 139.555 403.568L139.044 395.44L133.202 396.922Z" fill="url(#paint3_linear_364_5590)"/>
<path d="M129.738 302.047C129.738 302.047 136.026 345.335 140.564 396.847C140.649 397.807 139.886 398.642 138.945 398.84C137.559 399.133 135.522 399.48 133.834 399.432C132.934 399.406 132.18 398.737 132.03 397.848C130.484 388.765 119.453 340.021 116.558 329.293C116.558 329.293 113.233 374.863 114.296 398.506C114.323 399.093 113.892 399.603 113.309 399.67C112.424 399.773 111.008 399.851 109.206 399.66C108.523 399.587 107.971 399.069 107.873 398.387C106.772 390.7 100.434 344.947 100.703 311.987C100.718 310.127 102.881 294.857 102.881 294.857L129.738 302.047Z" fill="#3B394F"/>
<path d="M132.174 229.25L133.016 251.902C135.407 252.727 137.684 253.367 139.852 253.846C141.208 249.472 144.194 244.104 146.638 240.112C137.656 236.933 132.174 229.25 132.174 229.25Z" fill="#EF7B2E"/>
<path d="M101.934 304.542C101.288 304.312 100.837 303.725 100.766 303.042C99.9299 294.914 95.8808 244.521 121.441 223.79C121.441 223.79 122.907 219.948 134.955 229.393C147.004 238.838 140.553 248.738 137.668 262.391C134.178 278.914 128.054 292.42 130.764 302.587C130.951 303.288 130.582 304.026 129.903 304.277C120.542 307.733 111.22 307.848 101.934 304.542Z" fill="#EEA886"/>
<path d="M131.411 208.691C131.403 209.408 121.196 223.932 121.196 223.932C121.196 223.932 123.028 227.546 131.774 230.481L139.323 214.93L131.411 208.691Z" fill="url(#paint4_linear_364_5590)"/>
<path d="M126.355 258.387C126.292 258.387 126.226 258.369 126.169 258.331C118.016 252.812 114.18 243.903 114.142 243.814C114.071 243.644 114.15 243.45 114.318 243.379C114.488 243.307 114.682 243.385 114.753 243.554C114.789 243.642 118.555 252.373 126.541 257.779C126.693 257.882 126.732 258.088 126.63 258.24C126.566 258.336 126.461 258.387 126.355 258.387Z" fill="#474747"/>
<path d="M138.5 246.041C138.391 246.041 138.284 245.987 138.221 245.889C138.197 245.851 135.706 241.966 130.962 233.455C129.503 230.838 127.585 229.18 125.263 228.529C121.417 227.452 117.71 229.519 117.673 229.539C117.513 229.626 117.313 229.574 117.221 229.415C117.131 229.256 117.186 229.052 117.345 228.962C117.505 228.872 121.317 226.733 125.435 227.889C127.937 228.588 129.991 230.352 131.54 233.13C136.273 241.619 138.754 245.491 138.778 245.529C138.878 245.683 138.834 245.889 138.679 245.987C138.624 246.024 138.562 246.041 138.5 246.041Z" fill="#474747"/>
<path d="M139.447 200.368C139.447 200.368 143.079 208.726 143.323 213.113C143.566 217.5 144.509 220.346 139.447 221.23C134.385 222.113 130.119 219.587 127.809 215.217C127.809 215.217 124.189 208.484 125 205.727C125.813 202.968 139.447 200.368 139.447 200.368Z" fill="url(#paint5_linear_364_5590)"/>
<path d="M129.539 212.075L129.827 211.948C130.195 211.787 130.351 211.348 130.166 210.992C129.452 209.611 128.061 206.444 129.858 205.705C132.175 204.753 141.354 202.878 143.335 199.614C145.238 196.478 143.551 192.43 141.018 191.279C140.848 191.202 140.648 191.263 140.561 191.428L140.35 191.829C140.206 192.102 139.801 192.061 139.715 191.764C139.633 191.478 139.254 191.423 139.096 191.675C138.488 192.651 136.843 194.234 132.449 195.047C126.202 196.202 122.074 198.734 121.97 203.059C121.963 203.334 121.671 203.486 121.437 203.343C120.976 203.061 120.238 202.929 119.252 203.76C117.536 205.205 118.239 208.953 121.998 212.037C122.177 212.184 122.176 212.463 121.982 212.589C121.3 213.034 120.284 214.09 122.918 215.501C125.641 216.959 127.674 216.839 128.457 216.71C128.653 216.678 128.778 216.489 128.735 216.296L127.899 212.496C127.852 212.28 128.015 212.076 128.235 212.076H129.539V212.075Z" fill="#3D3C45"/>
<path d="M129.695 212.877C129.695 212.877 128.309 207.539 125.921 209.035C123.531 210.531 127.16 215.017 129.082 215.216L129.695 212.877Z" fill="url(#paint6_linear_364_5590)"/>
<path d="M176.721 227.546C176.721 227.546 174.901 224.313 175.016 222.742C175.132 221.171 174.155 218.864 175.195 219.034C176.235 219.205 176.449 219.065 176.732 220.95C177.015 222.837 180.295 231.07 176.721 227.546Z" fill="url(#paint7_linear_364_5590)"/>
<path d="M177.064 222.406L177.023 228.865C164.701 242.194 154.727 242.978 146.64 240.113C144.195 244.105 141.209 249.472 139.854 253.847C172.76 261.115 180.508 230.807 180.508 230.807C184.965 228.958 185.863 227.875 185.671 226.663L177.064 222.406Z" fill="url(#paint8_linear_364_5590)"/>
<path d="M186.54 215.998C185.488 215.571 183.43 211.64 183.036 212.932C182.642 214.225 183.203 215.998 183.036 216.548C182.869 217.098 180.304 223.425 180.816 224.83C181.186 225.844 183.223 225.694 183.534 227.353C183.638 227.903 184.076 228.298 184.586 228.3C185.096 228.3 185.535 227.906 185.639 227.355C185.68 227.134 187.591 216.425 186.54 215.998Z" fill="url(#paint9_linear_364_5590)"/>
<path d="M152.953 202.545C144.644 219.01 151.231 239.105 167.665 247.43C181.022 254.196 196.774 251.103 206.666 240.867L263.765 269.79C264.714 270.27 265.841 270.231 266.754 269.686L272.338 266.353C272.434 266.295 272.525 266.233 272.613 266.167C272.637 266.149 272.661 266.13 272.685 266.109C272.75 266.057 272.813 266.003 272.872 265.948C272.892 265.929 272.913 265.91 272.933 265.89C273.007 265.816 273.078 265.74 273.143 265.661C273.144 265.659 273.145 265.658 273.145 265.656C273.847 264.802 274.06 263.609 273.631 262.53L269.094 251.134C268.814 250.431 268.286 249.854 267.611 249.511L261.892 246.614L260.378 249.614L255.465 247.125L256.979 244.125L252.382 241.797L250.99 244.556L245.019 241.53L246.412 238.772L244.187 237.645L243.47 239.065L238.464 236.529L239.182 235.109L235.289 233.137L233.775 236.136L230.993 234.728L232.507 231.728L230.097 230.507L228.583 233.505L223.763 231.063L225.277 228.064L218.502 224.631L215.601 223.162C217.965 209.113 211.113 194.571 197.756 187.805C181.321 179.481 161.263 186.08 152.953 202.545ZM172.407 204.819C175.735 206.504 177.068 210.575 175.386 213.908C173.704 217.242 169.642 218.578 166.314 216.893C162.986 215.208 161.653 211.138 163.335 207.804C165.018 204.47 169.079 203.134 172.407 204.819Z" fill="#345267"/>
<path d="M199.236 212.634L226.304 226.345L224.79 229.345L229.61 231.786L231.124 228.786L233.534 230.008L232.02 233.007L234.802 234.416L236.315 231.417L240.208 233.389L239.491 234.809L244.497 237.344L245.214 235.925L247.438 237.052L246.046 239.81L252.016 242.835L253.409 240.077L258.006 242.405L256.492 245.405L261.405 247.894L262.919 244.894L268.638 247.791C269.313 248.133 269.839 248.71 270.12 249.414L274.658 260.81C275.223 262.231 274.674 263.851 273.363 264.635L267.779 267.967C266.865 268.512 265.738 268.551 264.79 268.071L195.862 233.156L199.236 212.634Z" fill="url(#paint10_linear_364_5590)"/>
<path d="M168.693 245.711C185.127 254.036 205.185 247.436 213.495 230.972C221.804 214.507 215.217 194.412 198.783 186.087C182.349 177.762 162.291 184.361 153.981 200.826C145.672 217.291 152.259 237.386 168.693 245.711ZM167.342 215.173C164.014 213.488 162.681 209.418 164.363 206.084C166.045 202.75 170.107 201.414 173.435 203.099C176.763 204.784 178.097 208.854 176.414 212.188C174.732 215.524 170.67 216.859 167.342 215.173Z" fill="url(#paint11_linear_364_5590)"/>
<path d="M207.692 239.148L264.792 268.071C265.74 268.551 266.868 268.512 267.78 267.967L273.365 264.635C274.207 264.132 274.729 263.282 274.849 262.363C269.645 256.714 220.177 235.073 218.327 230.619C217.669 229.034 217.556 226.635 219.529 222.914L216.627 221.445C218.992 207.396 212.14 192.853 198.783 186.087C182.349 177.762 162.291 184.361 153.981 200.826C145.672 217.291 152.259 237.386 168.693 245.711C182.05 252.476 197.802 249.383 207.692 239.148ZM173.435 203.1C176.763 204.786 178.097 208.856 176.414 212.19C174.732 215.524 170.67 216.86 167.342 215.174C164.014 213.489 162.681 209.419 164.363 206.085C166.046 202.751 170.107 201.415 173.435 203.1Z" fill="#3F8F8B"/>
<path d="M171.645 239.86C184.854 246.551 200.976 241.247 207.655 228.014C214.333 214.781 209.039 198.629 195.831 191.938C182.622 185.247 166.5 190.551 159.821 203.784C153.143 217.017 158.437 233.169 171.645 239.86ZM167.342 215.173C164.014 213.488 162.681 209.418 164.363 206.084C166.045 202.75 170.107 201.414 173.435 203.099C176.763 204.784 178.096 208.854 176.414 212.188C174.732 215.524 170.67 216.86 167.342 215.173Z" fill="#00CCB3"/>
<path d="M126.355 258.387C126.355 258.387 157.756 268.919 175.319 255.521C176.409 254.691 177.783 254.328 179.134 254.548L185.843 255.643C188.66 256.102 191.343 254.274 191.95 251.481C192.296 249.888 192.463 248.144 192.11 246.648L179.443 245.882L179.805 244.236C179.805 244.236 174.206 245.609 174.095 249.997C174.095 249.997 160.961 258.615 137.009 245.238C137.009 245.239 127.681 252.551 126.355 258.387Z" fill="url(#paint12_linear_364_5590)"/>
<g opacity="0.3">
<path d="M368.885 100.671C368.154 100.641 367.585 100.023 367.616 99.2906C367.674 97.867 367.671 96.4204 367.608 94.99C367.575 94.2661 368.128 93.6527 368.847 93.6069C368.855 93.6069 368.864 93.6055 368.872 93.6055C369.603 93.5732 370.222 94.1407 370.254 94.8728C370.32 96.3786 370.324 97.9007 370.262 99.3998C370.234 100.085 369.692 100.627 369.025 100.67C368.979 100.672 368.932 100.672 368.885 100.671ZM366.822 88.0499C366.565 86.6424 366.244 85.2323 365.87 83.8585C365.678 83.1521 366.094 82.4214 366.8 82.2286C367.509 82.0372 368.235 82.4538 368.427 83.1602C368.82 84.6054 369.158 86.0897 369.428 87.5713C369.56 88.2925 369.084 88.9841 368.364 89.1162C368.311 89.1257 368.259 89.1324 368.208 89.1351C367.547 89.1769 366.944 88.7172 366.822 88.0499ZM363.576 77.2662C363.014 75.9544 362.388 74.6521 361.715 73.393C361.369 72.7472 361.613 71.9424 362.257 71.5959C362.902 71.2508 363.705 71.4935 364.051 72.1392C364.759 73.4644 365.418 74.8368 366.01 76.2173C366.3 76.8914 365.987 77.6719 365.316 77.9604C365.172 78.0225 365.024 78.0562 364.877 78.0656C364.334 78.102 363.802 77.796 363.576 77.2662ZM358.004 67.4814C357.163 66.3274 356.261 65.1977 355.326 64.1205C354.846 63.5678 354.903 62.7292 355.455 62.248C356.007 61.7667 356.844 61.8247 357.324 62.3774C358.309 63.5112 359.258 64.7002 360.143 65.9149C360.575 66.5067 360.446 67.3372 359.855 67.7699C359.644 67.9249 359.402 68.0072 359.158 68.0234C358.721 68.0503 358.281 67.8602 358.004 67.4814ZM350.394 59.1837C349.32 58.2481 348.191 57.3448 347.04 56.5009C346.449 56.0681 346.321 55.2377 346.752 54.6458C347.184 54.054 348.012 53.9246 348.603 54.3587C349.816 55.2471 351.004 56.1962 352.133 57.1817C352.684 57.663 352.744 58.5015 352.263 59.0542C352.021 59.3333 351.689 59.4856 351.348 59.5072C351.012 59.5288 350.667 59.4223 350.394 59.1837ZM341.142 52.78C339.886 52.1046 338.586 51.475 337.278 50.9088C336.607 50.6176 336.297 49.8371 336.588 49.1643C336.879 48.4916 337.658 48.1816 338.329 48.4728C339.706 49.0686 341.074 49.7319 342.396 50.4424C343.04 50.7888 343.283 51.5937 342.935 52.2394C342.711 52.6587 342.292 52.9081 341.851 52.9364C341.613 52.9499 341.368 52.9014 341.142 52.78ZM291.948 52.1612C291.603 51.5141 291.848 50.7107 292.493 50.3655C293.816 49.6591 295.187 49.0012 296.569 48.4094C297.242 48.1209 298.021 48.435 298.307 49.1091C298.595 49.7831 298.282 50.5624 297.609 50.8509C296.297 51.4117 294.994 52.0372 293.739 52.7086C293.567 52.8003 293.384 52.8501 293.201 52.8623C292.7 52.8946 292.201 52.6358 291.948 52.1612ZM330.709 48.5927C329.336 48.2139 327.93 47.8904 326.529 47.6315C325.809 47.4981 325.334 46.8051 325.468 46.0852C325.601 45.364 326.291 44.8921 327.011 45.0215C328.486 45.2952 329.966 45.6349 331.413 46.034C332.118 46.2281 332.532 46.9588 332.338 47.6666C332.185 48.2274 331.694 48.6049 331.145 48.6386C331.002 48.6467 330.856 48.6332 330.709 48.5927ZM302.572 47.6288C302.381 46.9211 302.799 46.1931 303.506 46.0016C304.952 45.6093 306.435 45.275 307.912 45.0067C308.632 44.8732 309.321 45.3545 309.452 46.0758C309.582 46.797 309.105 47.4873 308.385 47.618C306.981 47.8728 305.571 48.191 304.196 48.5631C304.108 48.5873 304.02 48.6008 303.933 48.6062C303.317 48.6453 302.739 48.2476 302.572 47.6288ZM319.606 46.8469C318.184 46.7862 316.741 46.7849 315.315 46.8456C314.584 46.8766 313.966 46.309 313.936 45.5756C313.905 44.853 314.458 44.241 315.175 44.1951C315.184 44.1951 315.194 44.1938 315.203 44.1938C316.704 44.1291 318.223 44.1304 319.72 44.1938C320.451 44.2261 321.019 44.8449 320.987 45.577C320.957 46.2605 320.416 46.8024 319.749 46.8442C319.702 46.8483 319.654 46.8483 319.606 46.8469Z" fill="#3F8F8B"/>
<path d="M285.423 57.9744C285.682 57.9582 285.941 57.8652 286.161 57.6899C286.696 57.2639 287.249 56.8433 287.804 56.4361C288.395 56.0047 288.526 55.1729 288.094 54.5811C287.663 53.9893 286.833 53.8585 286.242 54.2913C285.658 54.7186 285.077 55.1608 284.514 55.6084C283.941 56.0641 283.846 56.8999 284.3 57.4729C284.58 57.8288 285.004 58 285.423 57.9744Z" fill="#3F8F8B"/>
</g>
<g opacity="0.3">
<path d="M266.109 93.5139C266.747 93.4734 267.28 92.9746 267.343 92.3154C267.408 91.6346 267.488 90.943 267.583 90.2608C267.682 89.5342 267.175 88.8642 266.451 88.7644C265.723 88.6646 265.057 89.1729 264.957 89.8982C264.859 90.6167 264.774 91.3447 264.706 92.0619C264.636 92.7913 265.17 93.4397 265.898 93.5098C265.969 93.5179 266.039 93.5179 266.109 93.5139Z" fill="#3F8F8B"/>
<path d="M318.079 150.177C317.347 150.188 316.746 149.602 316.735 148.868C316.724 148.135 317.308 147.534 318.04 147.523C319.433 147.503 320.847 147.423 322.257 147.285C322.981 147.213 323.634 147.749 323.704 148.479C323.775 149.208 323.242 149.858 322.513 149.928C321.902 149.987 321.291 150.037 320.683 150.075C319.818 150.131 318.94 150.165 318.079 150.177ZM328.044 147.755C327.875 147.041 328.316 146.327 329.027 146.157C330.395 145.832 331.762 145.447 333.093 145.01C333.787 144.779 334.536 145.161 334.764 145.858C334.991 146.553 334.612 147.304 333.917 147.532C332.517 147.992 331.077 148.399 329.638 148.74C329.564 148.758 329.489 148.768 329.415 148.774C328.782 148.814 328.194 148.394 328.044 147.755ZM310.871 149.786C309.408 149.606 307.932 149.36 306.485 149.054C305.769 148.903 305.311 148.2 305.461 147.482C305.612 146.765 306.314 146.307 307.03 146.456C308.404 146.746 309.805 146.979 311.194 147.151C311.92 147.241 312.436 147.903 312.347 148.631C312.267 149.274 311.741 149.753 311.117 149.793C311.038 149.798 310.954 149.796 310.871 149.786ZM338.838 144.204C338.517 143.544 338.79 142.75 339.448 142.428C340.709 141.812 341.958 141.134 343.161 140.414C343.789 140.038 344.602 140.243 344.977 140.872C345.353 141.502 345.148 142.316 344.52 142.692C343.252 143.451 341.937 144.165 340.611 144.814C340.45 144.893 340.282 144.936 340.114 144.946C339.593 144.979 339.081 144.701 338.838 144.204ZM299.544 147.085C298.158 146.586 296.774 146.021 295.43 145.405C294.763 145.1 294.471 144.313 294.776 143.647C295.08 142.98 295.866 142.687 296.532 142.992C297.809 143.577 299.123 144.113 300.441 144.587C301.13 144.835 301.488 145.595 301.24 146.284C301.056 146.797 300.587 147.128 300.076 147.16C299.901 147.171 299.721 147.147 299.544 147.085ZM289.085 141.959C287.837 141.168 286.609 140.313 285.434 139.422C284.851 138.978 284.736 138.146 285.178 137.563C285.621 136.978 286.451 136.863 287.034 137.307C288.151 138.155 289.319 138.966 290.503 139.718C291.121 140.111 291.305 140.93 290.914 141.551C290.677 141.924 290.287 142.138 289.877 142.164C289.607 142.18 289.33 142.115 289.085 141.959ZM279.988 134.672C278.943 133.626 277.928 132.525 276.975 131.398C276.502 130.838 276.572 130.001 277.13 129.527C277.689 129.052 278.524 129.122 278.998 129.682C279.904 130.752 280.867 131.798 281.86 132.793C282.378 133.311 282.38 134.152 281.861 134.67C281.625 134.908 281.319 135.038 281.008 135.057C280.642 135.081 280.268 134.953 279.988 134.672ZM272.695 125.571C271.902 124.321 271.154 123.023 270.471 121.713C270.132 121.063 270.383 120.261 271.032 119.921C271.679 119.583 272.481 119.833 272.819 120.483C273.467 121.728 274.178 122.96 274.931 124.146C275.324 124.765 275.141 125.585 274.524 125.978C274.329 126.102 274.113 126.17 273.898 126.183C273.431 126.213 272.964 125.994 272.695 125.571ZM267.574 115.081C267.077 113.691 266.633 112.261 266.253 110.831C266.065 110.122 266.486 109.395 267.194 109.207C267.899 109.02 268.627 109.441 268.814 110.15C269.173 111.509 269.596 112.868 270.068 114.187C270.315 114.878 269.957 115.637 269.268 115.885C269.148 115.928 269.025 115.952 268.904 115.96C268.33 115.995 267.777 115.65 267.574 115.081ZM264.878 103.731C264.744 102.652 264.64 101.554 264.571 100.47C264.547 100.078 264.526 99.6856 264.51 99.2947C264.479 98.5626 265.037 97.9304 265.778 97.9142C266.509 97.8832 267.127 98.4521 267.158 99.1855C267.174 99.5575 267.193 99.9296 267.216 100.303C267.282 101.334 267.378 102.376 267.506 103.404C267.598 104.13 267.082 104.795 266.356 104.885C266.329 104.888 266.301 104.892 266.274 104.893C265.582 104.937 264.966 104.432 264.878 103.731Z" fill="#3F8F8B"/>
<path d="M349.732 138.831C349.995 138.815 350.256 138.719 350.477 138.543C351.036 138.092 351.596 137.623 352.142 137.146C352.694 136.665 352.751 135.826 352.27 135.274C351.789 134.721 350.953 134.663 350.401 135.145C349.882 135.598 349.35 136.045 348.819 136.472C348.248 136.93 348.157 137.766 348.614 138.338C348.894 138.687 349.317 138.857 349.732 138.831Z" fill="#3F8F8B"/>
</g>
<path d="M352.235 116.215C352.389 115.999 352.39 115.711 352.237 115.495L347.871 109.34C349.213 106.08 350.045 102.581 350.283 98.9617L356.905 95.3676C357.137 95.2408 357.264 94.982 357.221 94.7204L355.742 85.7864C355.699 85.5248 355.494 85.3199 355.235 85.2768L347.81 84.0176C346.418 80.6675 344.503 77.6261 342.183 74.9744L344.331 67.7376C344.406 67.4841 344.312 67.2105 344.098 67.0568L336.747 61.7869C336.532 61.6332 336.244 61.6319 336.028 61.7856L329.884 66.1589C326.631 64.8148 323.139 63.9817 319.526 63.7431L315.938 57.1089C315.812 56.8757 315.553 56.749 315.292 56.7921L306.375 58.2737C306.114 58.3168 305.909 58.5218 305.866 58.7819L304.609 66.2223C301.265 67.6163 298.23 69.5346 295.583 71.8588L288.359 69.7072C288.106 69.6317 287.833 69.7261 287.68 69.9404L282.42 77.3053C282.266 77.521 282.265 77.8095 282.418 78.0252L286.784 84.1808C285.442 87.4405 284.61 90.9376 284.372 94.5587L277.75 98.1528C277.518 98.2782 277.391 98.5384 277.434 98.7999L278.913 107.734C278.956 107.996 279.161 108.2 279.42 108.244L286.846 109.503C288.237 112.853 290.152 115.894 292.472 118.546L290.324 125.783C290.249 126.036 290.343 126.31 290.557 126.464L297.908 131.733C298.123 131.887 298.411 131.888 298.627 131.735L304.771 127.361C308.024 128.706 311.515 129.539 315.129 129.777L318.717 136.411C318.842 136.643 319.102 136.771 319.363 136.728L328.28 135.247C328.541 135.204 328.746 134.999 328.789 134.738L330.046 127.299C333.39 125.905 336.425 123.987 339.072 121.663L346.296 123.814C346.549 123.89 346.822 123.796 346.975 123.581L352.235 116.215Z" fill="#688D8B"/>
<path d="M316.573 105.83C311.579 105.414 307.856 101.007 308.271 96.0039C308.471 93.5799 309.603 91.3811 311.456 89.8092C313.307 88.2386 315.659 87.4837 318.079 87.6859C323.073 88.1025 326.796 92.5095 326.381 97.5124C326.003 102.064 322.328 105.562 317.908 105.844C317.469 105.872 317.023 105.868 316.573 105.83ZM312.824 91.431C311.403 92.6362 310.537 94.3214 310.382 96.1805C310.064 100.016 312.92 103.396 316.748 103.714C320.578 104.035 323.95 101.171 324.269 97.3358C324.586 93.5004 321.731 90.1206 317.903 89.8025C317.555 89.7742 317.211 89.7701 316.869 89.7917C315.386 89.8874 313.979 90.4523 312.824 91.431Z" fill="#779E9C"/>
<path d="M318.552 118.979C319.311 118.93 320.073 118.844 320.833 118.717C321.073 118.678 321.311 118.634 321.549 118.586C322.722 118.352 323.877 118.024 324.991 117.609C325.006 117.604 325.022 117.598 325.037 117.591C325.08 117.575 325.123 117.559 325.166 117.542C325.25 117.509 325.333 117.477 325.416 117.444C325.636 117.358 325.765 117.141 325.75 116.917C325.746 116.863 325.735 116.808 325.714 116.756C325.606 116.483 325.298 116.35 325.026 116.458C323.625 117.013 322.156 117.42 320.658 117.668C313.218 118.906 306.026 116.096 301.325 110.853C298.711 107.937 296.867 104.268 296.181 100.122C296.06 99.3957 295.978 98.6677 295.932 97.9424C295.624 93.0595 296.988 88.2601 299.868 84.2279C303.176 79.5957 308.086 76.5314 313.695 75.5998C325.276 73.676 336.253 81.5478 338.173 93.1458C338.291 93.8603 338.374 94.5788 338.418 95.2987C338.614 98.4129 338.129 101.537 336.985 104.442C336.955 104.517 336.944 104.594 336.948 104.67C336.961 104.868 337.086 105.052 337.282 105.129C337.555 105.236 337.862 105.104 337.97 104.83C339.171 101.779 339.681 98.5005 339.474 95.2313C339.427 94.4764 339.341 93.7228 339.217 92.9718C337.201 80.7942 325.671 72.5328 313.521 74.551C307.634 75.5297 302.479 78.7464 299.006 83.6091C295.982 87.8422 294.549 92.8815 294.873 98.0071C294.922 98.7688 295.009 99.5332 295.134 100.296C296.111 106.196 299.322 111.359 304.174 114.839C308.404 117.868 313.436 119.304 318.552 118.979Z" fill="#779E9C"/>
<g opacity="0.3">
<path d="M416.353 132.708C416.707 132.685 417.018 132.435 417.098 132.071C417.252 131.393 417.386 130.7 417.498 130.012C417.571 129.566 417.269 129.144 416.823 129.071C416.376 128.996 415.956 129.302 415.883 129.748C415.777 130.403 415.648 131.064 415.502 131.711C415.403 132.152 415.68 132.591 416.12 132.691C416.198 132.707 416.276 132.712 416.353 132.708Z" fill="#3F8F8B"/>
<path d="M417.085 126.456C416.633 126.438 416.282 126.058 416.299 125.605C416.342 124.463 416.328 123.306 416.256 122.166C416.242 121.926 416.223 121.685 416.203 121.442C416.165 120.992 416.499 120.594 416.949 120.556C417.376 120.537 417.796 120.853 417.833 121.304C417.855 121.558 417.874 121.81 417.89 122.061C417.965 123.257 417.981 124.47 417.934 125.667C417.918 126.09 417.583 126.427 417.17 126.453C417.142 126.457 417.115 126.457 417.085 126.456ZM415.601 117.323C415.317 115.967 414.948 114.616 414.503 113.31C414.356 112.881 414.585 112.416 415.013 112.269C415.438 112.124 415.906 112.351 416.052 112.78C416.519 114.15 416.906 115.567 417.204 116.988C417.297 117.431 417.013 117.865 416.57 117.958C416.531 117.966 416.492 117.972 416.453 117.973C416.053 117.999 415.686 117.726 415.601 117.323ZM412.915 109.461C412.31 108.218 411.621 106.999 410.864 105.84C410.618 105.461 410.724 104.953 411.103 104.706C411.482 104.458 411.988 104.565 412.236 104.945C413.028 106.161 413.751 107.439 414.386 108.743C414.584 109.15 414.416 109.64 414.009 109.839C413.91 109.887 413.806 109.913 413.702 109.919C413.382 109.94 413.066 109.768 412.915 109.461ZM408.384 102.499C407.492 101.441 406.525 100.429 405.513 99.4917C405.18 99.1843 405.16 98.6653 405.467 98.3336C405.773 98.002 406.291 97.9804 406.623 98.2878C407.685 99.2706 408.698 100.332 409.634 101.442C409.926 101.788 409.882 102.305 409.538 102.598C409.398 102.715 409.231 102.778 409.063 102.789C408.812 102.804 408.558 102.706 408.384 102.499ZM402.294 96.8574C401.172 96.0485 399.989 95.303 398.779 94.6384C398.384 94.4213 398.238 93.9225 398.455 93.5262C398.672 93.1285 399.169 92.9829 399.565 93.2013C400.834 93.8969 402.073 94.6802 403.249 95.5268C403.615 95.791 403.7 96.3033 403.436 96.6714C403.287 96.879 403.06 96.9963 402.823 97.0111C402.641 97.0219 402.454 96.9734 402.294 96.8574ZM395.021 92.8683C393.737 92.3573 392.41 91.9233 391.075 91.5768C390.638 91.4635 390.376 91.016 390.489 90.5778C390.602 90.1397 391.047 89.8768 391.486 89.99C392.885 90.354 394.278 90.8097 395.624 91.3449C396.044 91.5121 396.249 91.988 396.083 92.4086C395.961 92.7133 395.679 92.9047 395.373 92.9249C395.258 92.9317 395.138 92.9141 395.021 92.8683ZM386.998 90.7827C385.634 90.6034 384.238 90.5091 382.854 90.501C382.402 90.4983 382.038 90.1289 382.041 89.6759C382.044 89.2229 382.411 88.8657 382.864 88.8603C384.316 88.8697 385.779 88.9695 387.211 89.1569C387.659 89.2162 387.975 89.6274 387.916 90.0763C387.865 90.4713 387.54 90.7639 387.157 90.7881C387.105 90.7908 387.052 90.7895 386.998 90.7827ZM373.625 90.8663C373.518 90.4268 373.787 89.9833 374.227 89.8754C375.442 89.5788 376.695 89.3429 377.946 89.1758C378.136 89.1488 378.326 89.1259 378.515 89.103C378.961 89.0382 379.371 89.3726 379.422 89.8229C379.475 90.2731 379.153 90.6789 378.704 90.7315C378.526 90.7517 378.347 90.7746 378.165 90.7989C376.968 90.958 375.773 91.1831 374.614 91.4662C374.567 91.4784 374.519 91.4851 374.472 91.4878C374.083 91.5148 373.721 91.2573 373.625 90.8663Z" fill="#3F8F8B"/>
</g>
<g opacity="0.3">
<path d="M384.363 159.636C382.94 159.707 381.498 159.693 380.08 159.593C379.629 159.56 379.29 159.169 379.321 158.717C379.353 158.265 379.748 157.929 380.196 157.956C381.548 158.052 382.922 158.065 384.281 157.997C384.732 157.974 385.117 158.322 385.14 158.774C385.163 159.223 384.821 159.606 384.374 159.635C384.371 159.636 384.367 159.636 384.363 159.636ZM387.679 158.493C387.602 158.046 387.901 157.623 388.346 157.546C389.687 157.316 391.025 157 392.327 156.611C392.757 156.483 393.216 156.728 393.345 157.162C393.475 157.596 393.228 158.052 392.796 158.183C391.432 158.591 390.028 158.921 388.625 159.163C388.595 159.168 388.566 159.171 388.536 159.174C388.124 159.199 387.75 158.911 387.679 158.493ZM375.831 159.028C374.43 158.753 373.034 158.39 371.683 157.949C371.254 157.809 371.019 157.345 371.158 156.915C371.298 156.484 371.759 156.251 372.189 156.39C373.478 156.81 374.809 157.157 376.145 157.42C376.589 157.507 376.877 157.937 376.791 158.381C376.719 158.754 376.402 159.018 376.04 159.041C375.972 159.047 375.902 159.043 375.831 159.028ZM395.742 156.279C395.56 155.865 395.749 155.381 396.163 155.199C397.408 154.652 398.631 154.024 399.799 153.329C400.188 153.099 400.69 153.228 400.92 153.615C401.15 154.005 401.022 154.508 400.633 154.738C399.409 155.466 398.125 156.127 396.82 156.7C396.73 156.739 396.635 156.762 396.543 156.767C396.21 156.79 395.885 156.604 395.742 156.279ZM367.7 156.373C366.41 155.771 365.144 155.082 363.935 154.327C363.552 154.087 363.435 153.581 363.674 153.197C363.914 152.813 364.418 152.694 364.802 152.936C365.955 153.657 367.162 154.314 368.393 154.888C368.802 155.079 368.98 155.567 368.789 155.977C368.658 156.259 368.388 156.43 368.099 156.449C367.965 156.457 367.829 156.434 367.7 156.373ZM360.442 151.841C359.332 150.945 358.265 149.971 357.273 148.951C356.958 148.627 356.965 148.108 357.288 147.793C357.611 147.477 358.129 147.484 358.445 147.807C359.391 148.781 360.408 149.708 361.469 150.564C361.82 150.849 361.875 151.365 361.592 151.717C361.443 151.903 361.228 152.007 361.007 152.02C360.811 152.034 360.609 151.976 360.442 151.841ZM354.475 145.699C353.61 144.561 352.808 143.36 352.091 142.13C351.862 141.739 351.994 141.238 352.384 141.009C352.774 140.78 353.275 140.913 353.504 141.303C354.187 142.476 354.953 143.621 355.778 144.705C356.051 145.065 355.982 145.58 355.622 145.854C355.489 145.956 355.334 146.01 355.179 146.02C354.915 146.036 354.648 145.925 354.475 145.699Z" fill="#3F8F8B"/>
<path d="M403.765 152.475C403.922 152.465 404.078 152.409 404.213 152.305C404.767 151.876 405.311 151.428 405.83 150.974C406.171 150.676 406.206 150.158 405.909 149.817C405.612 149.478 405.095 149.441 404.755 149.738C404.26 150.171 403.742 150.598 403.213 151.006C402.855 151.283 402.79 151.799 403.066 152.156C403.237 152.382 403.502 152.491 403.765 152.475Z" fill="#3F8F8B"/>
</g>
<path d="M405.935 137.02C406.037 136.875 406.039 136.683 405.937 136.537L403.016 132.418C403.914 130.237 404.471 127.897 404.63 125.474L409.061 123.069C409.217 122.984 409.302 122.81 409.272 122.636L408.283 116.657C408.255 116.482 408.118 116.346 407.944 116.316L402.975 115.474C402.044 113.232 400.763 111.198 399.21 109.422L400.647 104.58C400.697 104.41 400.635 104.226 400.491 104.124L395.571 100.597C395.427 100.495 395.235 100.493 395.089 100.596L390.978 103.521C388.801 102.622 386.465 102.064 384.047 101.905L381.646 97.4654C381.562 97.3091 381.388 97.2241 381.215 97.2538L375.247 98.2447C375.072 98.2743 374.936 98.4105 374.906 98.5844L374.065 103.563C371.827 104.496 369.797 105.779 368.025 107.335L363.191 105.895C363.022 105.845 362.839 105.907 362.736 106.052L359.216 110.98C359.114 111.125 359.112 111.317 359.215 111.462L362.135 115.58C361.237 117.762 360.68 120.102 360.521 122.525L356.09 124.93C355.934 125.013 355.849 125.187 355.879 125.362L356.868 131.341C356.898 131.517 357.033 131.653 357.207 131.682L362.176 132.525C363.108 134.767 364.389 136.801 365.942 138.577L364.504 143.419C364.455 143.589 364.517 143.772 364.661 143.875L369.58 147.402C369.724 147.504 369.917 147.505 370.062 147.403L374.173 144.477C376.35 145.377 378.686 145.935 381.104 146.094L383.505 150.533C383.59 150.688 383.763 150.775 383.937 150.745L389.905 149.754C390.08 149.724 390.215 149.588 390.245 149.414L391.086 144.436C393.324 143.503 395.354 142.219 397.127 140.664L401.96 142.103C402.13 142.153 402.313 142.091 402.415 141.947L405.935 137.02Z" fill="#688D8B"/>
<path d="M382.064 130.181C380.415 130.044 378.92 129.272 377.852 128.007C376.784 126.744 376.271 125.139 376.408 123.487C376.691 120.08 379.683 117.543 383.089 117.821C386.491 118.105 389.027 121.108 388.744 124.514C388.606 126.164 387.837 127.664 386.574 128.734C385.549 129.604 384.298 130.106 382.98 130.19C382.679 130.209 382.372 130.206 382.064 130.181ZM378.039 123.622C377.938 124.837 378.315 126.018 379.101 126.948C379.887 127.877 380.987 128.446 382.198 128.547C383.411 128.646 384.588 128.269 385.518 127.482C386.447 126.696 387.013 125.592 387.114 124.378C387.323 121.872 385.456 119.664 382.955 119.455C382.729 119.436 382.505 119.435 382.286 119.448C380.071 119.59 378.229 121.342 378.039 123.622Z" fill="#779E9C"/>
<path d="M383.443 139.33C383.959 139.298 384.479 139.237 385 139.152C386.034 138.981 387.053 138.704 388.03 138.327C388.074 138.31 388.117 138.292 388.162 138.276C388.5 138.143 388.7 137.808 388.679 137.463C388.673 137.38 388.654 137.295 388.622 137.212C388.457 136.792 387.98 136.587 387.56 136.753C386.652 137.113 385.701 137.377 384.733 137.536C384.681 137.545 384.627 137.554 384.574 137.562C382.281 137.92 379.986 137.692 377.857 136.929C376.701 136.516 375.595 135.943 374.564 135.217C374.556 135.212 374.548 135.205 374.539 135.2C374.513 135.181 374.487 135.163 374.462 135.146C371.469 133 369.488 129.815 368.887 126.178C368.809 125.708 368.755 125.237 368.725 124.767C368.525 121.605 369.409 118.498 371.274 115.888C373.416 112.889 376.595 110.906 380.225 110.304C383.853 109.702 387.504 110.55 390.497 112.695C393.489 114.842 395.47 118.026 396.071 121.663C396.148 122.126 396.201 122.591 396.23 123.056C396.358 125.073 396.043 127.093 395.303 128.974C395.257 129.09 395.24 129.21 395.248 129.326C395.267 129.633 395.459 129.916 395.765 130.036C396.186 130.201 396.66 129.996 396.826 129.574C397.655 127.47 398.007 125.207 397.865 122.952C397.832 122.432 397.774 121.911 397.688 121.394C397.013 117.323 394.799 113.76 391.449 111.361C388.101 108.961 384.021 108.008 379.959 108.686C375.896 109.36 372.341 111.579 369.945 114.935C367.859 117.855 366.87 121.331 367.093 124.868C367.127 125.392 367.186 125.919 367.274 126.446C368.576 134.322 375.651 139.827 383.443 139.33Z" fill="#779E9C"/>
<defs>
<linearGradient id="paint0_linear_364_5590" x1="302.718" y1="21.9602" x2="263.551" y2="428.88" gradientUnits="userSpaceOnUse">
<stop stop-color="#9DB7C9"/>
<stop offset="0.482292" stop-color="#84C4DA"/>
<stop offset="1" stop-color="#5BA7A3"/>
</linearGradient>
<linearGradient id="paint1_linear_364_5590" x1="295.821" y1="120.232" x2="273.041" y2="368.256" gradientUnits="userSpaceOnUse">
<stop stop-color="#345267"/>
<stop offset="0.25" stop-color="#376170"/>
<stop offset="1" stop-color="#3F8F8B"/>
</linearGradient>
<linearGradient id="paint2_linear_364_5590" x1="112.315" y1="390.609" x2="109.256" y2="417.263" gradientUnits="userSpaceOnUse">
<stop stop-color="#FEBBBA"/>
<stop offset="1" stop-color="#FF928E"/>
</linearGradient>
<linearGradient id="paint3_linear_364_5590" x1="136.732" y1="393.425" x2="135.358" y2="420.218" gradientUnits="userSpaceOnUse">
<stop stop-color="#FEBBBA"/>
<stop offset="1" stop-color="#FF928E"/>
</linearGradient>
<linearGradient id="paint4_linear_364_5590" x1="124.477" y1="235.254" x2="131.58" y2="215.892" gradientUnits="userSpaceOnUse">
<stop stop-color="#FEBBBA"/>
<stop offset="1" stop-color="#FF928E"/>
</linearGradient>
<linearGradient id="paint5_linear_364_5590" x1="141.879" y1="206.198" x2="99.6332" y2="239.783" gradientUnits="userSpaceOnUse">
<stop stop-color="#FEBBBA"/>
<stop offset="1" stop-color="#FF928E"/>
</linearGradient>
<linearGradient id="paint6_linear_364_5590" x1="137.633" y1="204.353" x2="116.844" y2="220.231" gradientUnits="userSpaceOnUse">
<stop stop-color="#FEBBBA"/>
<stop offset="1" stop-color="#FF928E"/>
</linearGradient>
<linearGradient id="paint7_linear_364_5590" x1="186.769" y1="214.868" x2="142.743" y2="252.828" gradientUnits="userSpaceOnUse">
<stop stop-color="#FEBBBA"/>
<stop offset="1" stop-color="#FF928E"/>
</linearGradient>
<linearGradient id="paint8_linear_364_5590" x1="187.686" y1="218.414" x2="144.831" y2="255.365" gradientUnits="userSpaceOnUse">
<stop stop-color="#FEBBBA"/>
<stop offset="1" stop-color="#FF928E"/>
</linearGradient>
<linearGradient id="paint9_linear_364_5590" x1="188.397" y1="216.755" x2="144.371" y2="254.715" gradientUnits="userSpaceOnUse">
<stop stop-color="#FEBBBA"/>
<stop offset="1" stop-color="#FF928E"/>
</linearGradient>
<linearGradient id="paint10_linear_364_5590" x1="251.807" y1="164.99" x2="231.081" y2="266.449" gradientUnits="userSpaceOnUse">
<stop stop-color="#FE7062"/>
<stop offset="1" stop-color="#FF928E"/>
</linearGradient>
<linearGradient id="paint11_linear_364_5590" x1="145.016" y1="212.998" x2="319.336" y2="226.007" gradientUnits="userSpaceOnUse">
<stop stop-color="#FF9085"/>
<stop offset="1" stop-color="#FB6FBB"/>
</linearGradient>
<linearGradient id="paint12_linear_364_5590" x1="160.549" y1="247.966" x2="139.57" y2="352.425" gradientUnits="userSpaceOnUse">
<stop stop-color="#FEBBBA"/>
<stop offset="1" stop-color="#FF928E"/>
</linearGradient>
</defs>
</svg>
